<svg viewBox="0 0 72 72" xmlns="http://www.w3.org/2000/svg" xmlns:xlink="http://www.w3.org/1999/xlink"><radialGradient id="a" cx="-3.886" cy="367.356" gradientTransform="matrix(1.5064 .3758 -.2904 .6505 143.986 -204.48)" gradientUnits="userSpaceOnUse" r="1.648"><stop offset=".003" stop-color="#f7adaf" stop-opacity=".97"/><stop offset=".263" stop-color="#f7b0b2" stop-opacity=".718"/><stop offset=".471" stop-color="#f8babc" stop-opacity=".515"/><stop offset=".661" stop-color="#facbcc" stop-opacity=".33"/><stop offset=".839" stop-color="#fce3e3" stop-opacity=".157"/><stop offset="1" stop-color="#fff" stop-opacity="0"/></radialGradient><radialGradient id="b" cx="-98.083" cy="341.221" gradientTransform="matrix(1.5271 -.3928 .2554 .5991 102.605 -210.077)" gradientUnits="userSpaceOnUse" r="1.648"><stop offset="0" stop-color="#f7adaf" stop-opacity=".97"/><stop offset=".261" stop-color="#f7b0b2" stop-opacity=".718"/><stop offset=".469" stop-color="#f8babc" stop-opacity=".515"/><stop offset=".66" stop-color="#facbcc" stop-opacity=".33"/><stop offset=".839" stop-color="#fce3e3" stop-opacity=".157"/><stop offset="1" stop-color="#fff" stop-opacity="0"/></radialGradient><path d="m42.32 66.95-4.87-4.28h-3.88l-5.61 4.29-4.84 4.03-9.33-9.97.27-.39c.07-.11.74-1.05 1.19-1.47.49-.46 1.05-.71 1.64-.71.56 0 1.09.22 1.53.65l.71-.82 3.83-4.45-.01-.4-.91-4.93-2.32-.26h-.01c-4.97-.77-9.17-2.43-10.87-3.28-1.14-.57-1.82-1.94-1.77-3.58.07-2.39.28-5.14.87-8.95-1.26-.52-2.13-1.91-1.92-3.26.07-.44.14-1.85.22-2.45.23-1.77.49-3.78.85-4.8.73-2.02 1.81-2.42 3.31-2.42h.06c1.76.01 7.23 1.45 9.5 2.06l.07.02c1.35.36 2.07 1.29 1.85 2.35-.06.28-.18.84-.28 1.26.67.19 1.23.79 1.11 1.81-.11.94-.59 4.64-.9 5.62-.3.96-1.07 1.43-2.36 1.43-.14 0-.3-.01-.46-.02l-.26 1.2 4.56.7-.01.01 2.06.28c.04-.22.08-.43.13-.65-1.01-.18-2.54-.69-2.88-2.32-.18-.86.06-3 .23-3.96.11-.63.56-1.35 1.93-1.61-1.14-1.12-1.88-2.37-2.24-3.8l-.12-.49.46-.2c.04-.02.96-.4 2.54-.4.14 0 .28 0 .42.01-1-1.2-2.2-3.22-2.01-5.91l.03-.42.41-.1c.28-.07.59-.11.9-.11 1.42 0 2.87.75 3.96 1.48-.38-1.44-.56-3.46.36-5.66l.19-.46.49.12c2.22.55 3.38 1.96 4.18 3.51.42-1.67 1.55-3.94 4.48-5.72l.51-.31.3.51c.83 1.42 1.62 4.31 1.48 6.54 2.04-1.59 3.84-1.78 3.93-1.79l.46-.04.15.44c.06.17 1.14 3.52 0 6.29.62-.14 1.22-.18 1.7-.18.8 0 1.37.11 1.39.11l.34.06.11.32c.03.08.57 1.8-1.37 4.13.17.05.28.11.3.12l.4.2-.09.44c-.19.88-.59 1.54-1.02 2.03.81.39 1.07.97 1.13 1.45.13.96.27 3.12.05 3.97-.3 1.18-1.21 1.88-2.77 2.15.07.38.12.76.15 1.14l5.09-1.28 2.24-.48-.08-1.05c-.19.02-.37.02-.54.02-1.24 0-2-.46-2.31-1.4-.32-.98-1.06-4.68-1.19-5.61-.14-1.01.42-1.63 1.08-1.82-.1-.42-.23-.98-.3-1.26-.24-1.06.47-2 1.81-2.38l.07-.02c2.26-.65 7.72-2.16 9.48-2.19h.17c1.44 0 2.48.4 3.23 2.4.38 1.01.67 3.02.92 4.78.09.61.27 2.12.35 2.56.23 1.34-.62 2.75-1.87 3.28.64 3.8.79 6.45.9 8.83.07 1.63-.59 3.01-1.72 3.6-2.03 1.05-7.32 3.06-11.01 3.81l-2.48.84-.59 4.67 2.77 4.57c.42-.37.92-.57 1.44-.57.59 0 1.15.24 1.64.71.45.43 1.11 1.37 1.19 1.47l.27.39-9.33 9.97z" fill="#231f20"/><path d="m65.4 29.52c-.28-1.65-.74-5.93-1.23-7.23-.65-1.72-1.44-2.04-2.85-2.02-1.92.04-8.74 2-9.4 2.19-.82.23-1.61.79-1.41 1.69.11.48.43 1.8.43 1.8s.08.03-.41.12-.9.46-.8 1.22c.13.97.86 4.59 1.16 5.51.28.85 1.03 1.17 2.83.91l.16 2.17-2.73.58-5.75 1.44a13.8 13.8 0 0 0 -.32-2.38c1.65-.15 2.62-.7 2.9-1.8.17-.67.08-2.62-.06-3.74-.1-.77-.86-1.12-1.67-1.26.72-.59 1.34-1.32 1.57-2.42 0 0-.71-.35-1.36-.1 2.78-2.59 2.14-4.49 2.14-4.49s-2.56-.49-4.4.68c2.4-2.66.86-7.29.86-7.29s-2.71.26-5.19 3.16c1.3-1.53.39-6.2-.79-8.2-4.92 3-4.42 7.46-4.42 7.46-.88-2.13-1.8-4.47-4.68-5.18-1.64 3.92.48 7.28.48 7.28s-3.4-3.33-6.1-2.66c-.29 4.18 3.06 6.66 3.06 6.66-2.74-.54-4.36.14-4.36.14.55 2.15 1.95 3.53 3.14 4.43-1.09-.03-2.62.12-2.82 1.23-.2 1.12-.38 3.06-.24 3.74.24 1.16 1.26 1.76 3.03 1.96-.15.56-.27 1.17-.36 1.79l-4.11-.56.04-.03-3.63-.56.32-2.34c1.81.24 2.55-.09 2.82-.94.29-.92.76-4.55.88-5.52.09-.75-.33-1.13-.81-1.21-.49-.08-.41-.11-.41-.11s.3-1.32.4-1.81c.19-.9-.61-1.45-1.43-1.67-.66-.18-7.5-2.05-9.42-2.06-1.4-.01-2.19.32-2.82 2.05-.47 1.31-.79 5.49-1.05 7.14-.19 1.22.77 2.53 2 2.76-.66 4.03-.87 7.05-.94 9.37-.04 1.39.5 2.56 1.45 3.04 1.92.96 6.08 2.5 10.7 3.22l2.74.3 1 5.4.01.67-3.98 4.62-1.13 1.31s-.32-.33-.36-.38c-.71-.75-1.67-.72-2.43 0-.42.4-1.11 1.39-1.11 1.39l8.63 9.22 4.42-3.68 5.77-4.42h4.3l5.04 4.42 4.42 3.68 8.63-9.22s-.69-.99-1.11-1.39c-.75-.71-1.71-.75-2.43 0-.05.05-.36.38-.36.38l-3.27-5.38.66-5.24 2.86-.97-1.49-1.38.22-.47-.16.41 1.43 1.44c3.75-.76 8.98-2.78 10.89-3.76.95-.49 1.47-1.67 1.41-3.06-.1-2.32-.26-5.23-.98-9.26 1.24-.26 2.18-1.58 1.98-2.79z" fill="#f8c9b0"/><path d="m51.7 44.68-.81-1.98 1.01-2.43-1.21-1.66.47-2.17-7.54 1.89s-12.15-.63-12.28-.69l-9.72-1.33s-5.32 2.33-8.21 5.57c1 2.16 4.46 5.07 6.38 5.77l2.74.3 1.22 6.58c1.18 0 11.39 7.53 11.39 7.53h2.53l4.52-1.55c3.63 0 4.94-5.95 6.41-5.95l.66-5.24 2.86-.97-1.49-1.38z" fill="#f05a28"/><path d="m26.6 38.02.5 6.08 4.27-.22-.02-5.73zm13.42.37-.37 5.06 5.18-.27-.12-4.66z" fill="#f05a28"/><path d="m51.87 59.97-3.27-5.38-16.95-4.19c0-3.6-.06-13.77-.06-15.5l-2.46-.57c0 2.04.04 16.28.04 16.28l-6 1.13.38 2.31-3.98 4.62 1.97.52.46 2.28 2.39.35.38 2.36 2.43.3.4 2.03 5.77-4.42h4.3l5.04 4.42z" fill="#7f2719"/><path d="m31.13 44.62 4.37 4.46 5.17-4.35z" fill="#29b473"/><path d="m35.49 49.32-4.79-4.88 10.44.12zm-3.94-4.52 3.97 4.05 4.68-3.95z" fill="#231f20"/><path d="m19.57 58.66-1.13 1.31s-.32-.33-.36-.38c-.71-.75-1.67-.72-2.43 0-.42.4-1.11 1.39-1.11 1.39l8.63 9.22 4.42-3.68-.4-2.03-2.43-.3-.38-2.36-2.38-.36-.45-2.29z" fill="#f8c9b0"/><path d="m18.27 64.38c.4-.47.83-.91 1.23-1.2.2-.14.39-.25.56-.3s.31-.05.4-.04c-.04-.02-.09-.06-.17-.08s-.16-.03-.26-.02c-.2.02-.43.11-.66.24-.46.27-.93.72-1.34 1.2-.09.1-.17.2-.25.31l.22.23c.08-.12.17-.23.27-.34zm-2.53-2.66c.4-.47.83-.91 1.23-1.2.2-.14.39-.25.56-.3s.31-.05.4-.04c-.04-.02-.09-.06-.17-.08s-.16-.03-.26-.02c-.2.02-.43.11-.66.24-.46.27-.93.72-1.34 1.2-.09.1-.17.2-.25.31l.22.23c.08-.12.18-.23.27-.34zm1.26 1.33c.4-.47.83-.91 1.23-1.2.2-.14.39-.25.56-.3s.31-.05.4-.04c-.04-.02-.09-.06-.17-.08s-.16-.03-.26-.02c-.2.02-.43.11-.66.24-.46.27-.93.72-1.34 1.2-.09.1-.17.2-.25.31l.22.23c.09-.12.18-.23.27-.34z" fill="#231f20"/><path d="m48.76 59.19-.45 2.29-2.39.35-.38 2.36-2.43.3-.4 2.03 4.42 3.68 8.63-9.22s-.69-.99-1.11-1.39c-.75-.71-1.71-.75-2.43 0-.05.05-.36.38-.36.38l-.83-1.31z" fill="#f8c9b0"/><path d="m52.04 64.38c-.4-.47-.83-.91-1.23-1.2-.2-.14-.39-.25-.56-.3s-.31-.05-.4-.04c.04-.02.09-.06.17-.08s.16-.03.26-.02c.2.02.43.11.66.24.46.27.93.72 1.34 1.2.09.1.17.2.25.31l-.22.23c-.08-.12-.18-.23-.27-.34zm2.53-2.66c-.4-.47-.83-.91-1.23-1.2-.2-.14-.39-.25-.56-.3s-.31-.05-.4-.04c.04-.02.09-.06.17-.08s.16-.03.26-.02c.2.02.43.11.66.24.46.27.93.72 1.34 1.2.09.1.17.2.25.31l-.22.23c-.09-.12-.18-.23-.27-.34zm-1.26 1.33c-.4-.47-.83-.91-1.23-1.2-.2-.14-.39-.25-.56-.3s-.31-.05-.4-.04c.04-.02.09-.06.17-.08s.16-.03.26-.02c.2.02.43.11.66.24.46.27.93.72 1.34 1.2.09.1.17.2.25.31l-.22.23c-.09-.12-.18-.23-.27-.34zm-30.46-11.15c-.08 0-.15-.06-.16-.13-.02-.09.04-.17.13-.19l6.18-1.11v-15.98c0-.09.07-.16.16-.16s.16.07.16.16v16.11c0 .08-.06.15-.13.16l-6.31 1.13c-.01.01-.02.01-.03.01zm25.75 2.85h-.04l-17.06-4.09a.162.162 0 0 1 -.12-.16v-15.8c0-.09.07-.16.16-.16s.16.07.16.16v15.67l16.94 4.05c.09.02.14.11.12.2-.02.08-.08.13-.16.13z" fill="#231f20"/><path d="m20.91 25.62s.3-1.32.4-1.81c.19-.9-.61-1.45-1.43-1.67-.66-.18-7.5-2.05-9.42-2.06-1.4-.01-2.19.32-2.82 2.05-.47 1.31-.79 5.49-1.05 7.14-.19 1.22.77 2.53 2 2.76-.66 4.03-.87 7.05-.94 9.37-.04 1.39.5 2.56 1.45 3.04 1.92.96 6.08 2.5 10.7 3.22l-.84-2.49 1.68-.8-1.22-3.39 2.37-1.75-2.11-1.51 2.06-1.43-3.63-.56.32-2.34c1.81.24 2.55-.09 2.82-.94.29-.92.76-4.55.88-5.52.09-.75-.33-1.13-.81-1.21-.49-.07-.41-.1-.41-.1z" fill="#f8c9b0"/><path d="m39.44 45.87h-.17l-7.75-.18c-.11 0-.22-.01-.33-.01-.02 0-.1-.01-.1-.01-.07-.01-.14-.01-.22-.02-.03 0-.12-.01-.12-.01-.06-.01-.13-.02-.19-.02-.03 0-.12-.02-.12-.02l-.18-.03c-.04-.01-.08-.01-.11-.02-.06-.01-.12-.02-.18-.04a.355.355 0 0 0 -.1-.02c-.06-.02-.13-.03-.19-.05 0 0-.07-.02-.09-.02-.07-.02-.14-.04-.21-.07l-.05-.02c-1.9-.65-3.17-2.16-3.69-4.38-.38-1.64-.33-3.67.14-5.59-1.74-.26-2.7-.97-2.95-2.15-.16-.75.04-2.75.23-3.85.11-.61.61-1.33 2.29-1.46-1.35-1.18-2.21-2.52-2.6-4.07l-.06-.25.24-.1c.04-.02.91-.38 2.43-.38.36 0 .73.02 1.1.06-1.01-1.03-2.62-3.19-2.41-6.23l.01-.22.21-.05c.26-.07.54-.1.83-.1 1.67 0 3.41 1.1 4.49 1.92-.5-1.37-.98-3.7.1-6.27l.1-.24.25.06c2.46.61 3.56 2.35 4.37 4.14.06-.4.15-.86.32-1.36.46-1.41 1.56-3.42 4.19-5.02l.26-.16.15.26c.61 1.05 1.15 2.77 1.36 4.39.09.69.17 1.73.01 2.67.96-.85 1.88-1.36 2.56-1.66 1.02-.44 1.72-.51 1.75-.52l.24-.02.08.23c.06.17 1.26 3.89-.25 6.64.8-.26 1.6-.33 2.23-.33.77 0 1.32.1 1.34.11l.17.03.06.17c.03.08.57 1.82-1.62 4.21.39.05.68.19.7.2l.21.1-.05.23c-.21 1.01-.74 1.71-1.24 2.2.99.32 1.29.91 1.35 1.38.14 1.11.25 3.12.06 3.86-.29 1.12-1.22 1.78-2.83 1.99.73 3.67.06 7.95-3.09 9.49l-.02.01c-.01 0-.01.01-.02.01-.09.04-.18.08-.28.12l-.04.01c-.1.04-.21.08-.32.12l-.04.01c-.09.03-.19.06-.29.09l-.06.02c-.12.03-.23.06-.34.08l-.05.01c-.1.02-.2.04-.31.05l-.09.01c-.13.02-.25.03-.36.04h-.03c-.12.01-.23.02-.36.02h-.1c-.07.01-.14.01-.22.01z" fill="#231f20"/><path d="m46.25 28.71c.72-.59 1.34-1.32 1.57-2.42 0 0-.71-.35-1.36-.1 2.78-2.59 2.14-4.49 2.14-4.49s-2.56-.49-4.4.68c2.4-2.66.86-7.29.86-7.29s-2.71.26-5.19 3.16c1.3-1.53.39-6.2-.79-8.2-4.92 3-4.42 7.46-4.42 7.46-.88-2.13-1.8-4.47-4.68-5.18-1.64 3.92.48 7.28.48 7.28s-3.4-3.33-6.1-2.66c-.29 4.18 3.06 6.66 3.06 6.66-2.74-.54-4.36.14-4.36.14.55 2.15 1.95 3.53 3.14 4.43-1.09-.03-2.62.12-2.82 1.23-.2 1.12-.38 3.06-.24 3.74.24 1.16 1.26 1.76 3.03 1.96-.95 3.52-.74 8.58 3.27 9.94.02.01.03.01.05.02l.2.06c.03.01.05.01.08.02.06.02.12.03.18.05.03.01.06.02.1.02.06.01.11.03.17.04.04.01.07.01.11.02l.18.03c.04.01.07.01.11.02.06.01.12.02.18.02.04 0 .07.01.11.01.07.01.14.01.21.02.03 0 .06.01.1.01.1.01.21.01.31.01.77.02 2.32.05 3.87.09s3.11.07 3.87.09h.48c.11 0 .22-.01.33-.02h.04c.12-.01.24-.02.35-.04.03 0 .05-.01.08-.01.1-.01.2-.03.3-.05.01 0 .03-.01.04-.01.11-.02.22-.05.32-.07.02-.01.04-.01.06-.02.09-.03.19-.05.28-.08.01 0 .03-.01.04-.01.1-.03.2-.07.3-.11.01 0 .02-.01.03-.01.09-.04.18-.08.26-.12.01 0 .01-.01.02-.01h.01c3.29-1.6 3.61-6.19 2.87-9.49 1.65-.15 2.62-.7 2.9-1.8.17-.67.08-2.62-.06-3.74-.09-.79-.85-1.14-1.67-1.28zm-3.66 3.05c.01.01.01.02.02.02-.01 0-.02-.01-.02-.02zm-.08-.09c.01.01.02.02.02.03 0-.01-.01-.02-.02-.03zm-.04-.05c-.01-.01-.02-.02-.02-.03 0 0 .01.02.02.03zm-.06-.09c-.01-.01-.02-.02-.02-.03 0 0 .01.01.02.03zm-.07-.11c-.01-.01-.01-.02-.02-.03.01.01.01.02.02.03zm-13.51.05.02-.02zm.16-.17c.01-.01.01-.02.02-.03-.01.01-.02.02-.02.03zm.06-.09c.01-.01.01-.02.02-.03 0 .01-.01.02-.02.03zm.07-.09c.01-.01.01-.02.02-.03-.01.01-.01.02-.02.03zm-.35.41-.02.02c.01 0 .01-.01.02-.02zm-.09.08-.01.01c.01 0 .01-.01.01-.01z" fill="#231f20"/><path d="m23.38 29.41c-.2 1.12-.38 3.06-.24 3.74.29 1.39 1.67 1.97 4.13 2.03.44-2.17.62-4.85.02-6.9 0-.01-3.6-.61-3.91 1.13zm24.55.56c-.23-1.75-3.86-1.31-3.86-1.31-.7 2.02-.64 4.71-.3 6.89 2.46.05 3.87-.47 4.22-1.84.17-.66.08-2.61-.06-3.74z" fill="#f8c9b0"/><path d="m46.46 26.19c2.78-2.59 2.14-4.49 2.14-4.49s-2.56-.49-4.4.68c2.4-2.66.86-7.29.86-7.29s-2.71.26-5.19 3.16c1.3-1.53.39-6.2-.79-8.2-4.92 3-4.42 7.46-4.42 7.46-.88-2.13-1.8-4.47-4.68-5.18-1.64 3.92.48 7.28.48 7.28s-3.4-3.33-6.1-2.66c-.29 4.18 3.06 6.66 3.06 6.66-2.74-.54-4.36.14-4.36.14.74 2.89 3.03 4.4 4.24 5.18 0 0-1.5-.08-1.46.39.05.66 1.2.98 1.2.98-.71.1-1.24.18-1.32.66-.01.14.67.71 1.15 1.08-.02.37-.01.79.05 1.21.76-1.19 1.73-1.3 2.27-2.25.77-1.36-.17-6.42 1.05-8.52.45-.77 1.14-1.47 2.22-1.06 1.5.58 3.42 2.57 3.53 2.7.12-.13 1.64-2.33 3.16-2.83 1.01-.33 1.74.27 2.1.85 1.24 2 .29 7.76 1 9.15.53 1.05 1.61 1.15 2.33 2.66l.02-1.03s.78-.54.88-.96c.1-.41-.85-.68-.85-.68s1.18-.67 1.18-1.11c.01-.44-1.16-.35-1.16-.35 1.26-.88 2.76-1.68 3.15-3.54.02.01-.68-.34-1.34-.09z" fill="#79432f"/><path d="m44.9 34.75c-.67-2.31-2.02-2.25-2.63-3.46-.71-1.4.24-7.15-1-9.15-.36-.58-1.09-1.18-2.1-.85-1.52.49-3.04 2.69-3.16 2.83-.12-.14-2.03-2.12-3.53-2.7-1.08-.42-1.77.29-2.22 1.06-1.22 2.1-.27 7.16-1.05 8.52-.67 1.18-2.01 1.06-2.79 3.34-1.36 3.99-1.28 10.92 5.12 11.06.77.02 2.32.05 3.87.09s3.11.07 3.87.09c6.4.13 6.8-6.78 5.62-10.83z" fill="#f8c9b0"/><path d="m35.3 27.98c-.18.54-.39.9-.39.9-.9-.6-3.7-2.45-4.07-2.32-.42.14-1.05 1.57-.87 1.92s4.15 2.81 4.58 2.75c.42-.05.98-2.66.75-3.25z" fill="#231f20"/><path d="m34.03 33.67c-.25.57-1.61.74-3.04.38s-2.38-1.1-2.12-1.67c.25-.57 1.61-.74 3.04-.38 1.42.35 2.38 1.1 2.12 1.67z" fill="url(#a)"/><path d="m30.55 32.96c.06-.02.17-.15.28-.27.11-.11.25-.22.27-.28-.07-.01-.23.06-.36.19s-.2.29-.19.36zm1.19-.42c-.06 0-.19.08-.29.22-.05.07-.09.15-.09.22-.01.07.01.13.03.15.02-.02.04-.07.06-.13.02-.05.06-.11.1-.17.08-.11.19-.23.19-.29zm.65.2c-.09.06-.08.4.01.46.08-.06.08-.4-.01-.46z"/><path d="m42.6 32.19c.22.52-.77 1.25-2.22 1.62s-2.8.25-3.02-.27.77-1.25 2.22-1.62c1.44-.37 2.8-.25 3.02.27z" fill="url(#b)"/><path d="m39.41 32.79c.01.06.12.16.21.26.04.05.07.11.09.16s.03.1.05.13c.02-.02.05-.07.05-.14s-.03-.16-.09-.22c-.11-.14-.25-.2-.31-.19zm.58-.25c.03.05.17.13.24.26.04.06.06.13.06.19s-.01.11 0 .15c.03-.01.08-.06.1-.14s.01-.18-.04-.27a.425.425 0 0 0 -.2-.18.306.306 0 0 0 -.16-.01zm.65-.22c-.01.05.05.13.11.2s.12.14.17.16c.03-.05-.01-.15-.07-.24-.07-.08-.16-.13-.21-.12z"/><path d="m41.14 34.53c-1.56-.57-2.75.68-5.34.71-2.16.02-4.06-1.58-5.91-.58-1.81.99-2.15 5.12-2.12 7.92.01 1.02.89 2.17 1.42 2.38.66.26 1.44.42 2.33.44.77.02 2.32.05 3.87.09s3.11.07 3.87.09c1.17.03 2.14-.18 2.93-.57.44-.21 1.39-1.1 1.34-2.39-.09-2.79.12-7.18-2.39-8.09z" fill="#fff"/><path d="m39.47 45.73h-.2l-7.75-.18c-.88-.02-1.69-.17-2.39-.45-.3-.12-.67-.48-.98-.95-.2-.31-.53-.92-.54-1.58-.02-2.05.14-6.93 2.2-8.05 1.17-.64 2.33-.29 3.56.09.78.24 1.58.48 2.42.47 1.17-.01 2.04-.28 2.81-.51.91-.27 1.69-.51 2.58-.19 2.33.85 2.41 4.38 2.48 7.22l.03 1.01c.05 1.37-.94 2.3-1.42 2.53-.79.39-1.74.59-2.8.59zm-8.24-11.24c-.43 0-.85.09-1.26.31-.64.35-2.11 1.8-2.03 7.78.01 1 .88 2.06 1.32 2.24.67.26 1.43.41 2.28.42l7.75.18c1.09.03 2.05-.16 2.86-.55.41-.2 1.3-1.04 1.25-2.24l-.03-1.01c-.07-2.74-.15-6.16-2.28-6.93-.79-.29-1.49-.08-2.38.19-.79.24-1.69.51-2.9.52-.89.01-1.71-.24-2.51-.48-.72-.23-1.41-.43-2.07-.43z" fill="#231f20"/><path d="m31.13 31.78c.11.03.31.02.58.03.26 0 .58.01.9.03.32.01.64.03.91.05.27.01.48.03.6 0-.08-.08-.29-.19-.56-.26-.27-.08-.6-.13-.94-.14-.33-.02-.67 0-.94.06-.28.05-.48.15-.55.23z"/><path d="m31.4 30.74c.14.19.72.44 1.31.67.29.12.59.23.84.32s.44.16.57.16c-.04-.11-.2-.28-.43-.44s-.52-.31-.83-.43c-.6-.24-1.24-.36-1.46-.28zm8.91.62c-.08-.08-.3-.14-.58-.15s-.61.02-.94.09-.65.17-.91.29-.44.25-.51.35c.12.01.33-.04.59-.1s.58-.13.89-.19l.89-.17c.26-.05.46-.08.57-.12z"/><path d="m39.87 30.37c-.23-.05-.84.18-1.4.51-.28.17-.55.36-.75.55s-.33.38-.35.5c.12-.02.3-.13.54-.25.23-.13.5-.28.78-.44.54-.32 1.07-.66 1.18-.87z"/><path d="m36.13 27.9c.15.54.35.92.35.92.93-.56 3.76-2.28 4.14-2.13.42.16 1.15 1.5.95 1.85-.2.34-4.3 2.74-4.73 2.66-.42-.08-.97-2.73-.71-3.3z" fill="#231f20"/><path d="m48.49 54.58-16.95-4.08s4.55 1.94 6.8 3.8c2.94 2.43 4.15 4.71 4.15 4.71z" fill="#8b5667"/><path d="m42.44 59.25-.09-.16c-.01-.02-1.24-2.28-4.11-4.66-2.21-1.83-6.71-3.76-6.76-3.78l.1-.3 17.28 4.16zm-9.34-8.21c1.54.73 3.91 1.96 5.34 3.14 2.49 2.06 3.77 4.04 4.1 4.6l5.59-4.12z" fill="#231f20"/><path d="m34.84 10.57h-.03c-.07-.02-.11-.08-.09-.15.29-1.13.56-2.36.58-3.61h-.53c-.14.04-.27.06-.41.07-.63.06-1.27-.18-1.8-.67-.48-.44-.83-1.06-.97-1.69-.15-.7-.08-1.61.6-2.06.28-.18.68-.27 1.11-.21.2-.3.5-.56.89-.78.46-.26.99-.42 1.52-.46.67-.06 1.3.08 1.78.38.55.35.9.95.87 1.53-.01.25-.1.5-.23.7 0 .02.01.05.01.07.01.27-.17.5-.3.65-.06.08-.13.16-.19.24-.2.71-.54 1.19-.85 1.5-.36.36-.79.59-1.23.68-.01 1.28-.28 2.55-.58 3.71-.04.06-.09.1-.15.1zm-1.62-4.81c.05.17.13.33.24.45.28.34.75.36 1.26.36.19-.05.38-.14.57-.25 0-.09-.01-.19-.02-.28-.25-.01-.5-.06-.72-.15-.11-.05-.21-.1-.3-.17-.34.06-.69.07-1.03.04zm2.33.69v.07c.37-.08.74-.29 1.04-.59.19-.19.39-.45.56-.79-.17.17-.36.34-.57.48-.15.15-.32.3-.51.46-.18.14-.35.26-.52.37zm-3.3-.98c.27.42.65.78 1.09.99l-.09-.09c-.15-.19-.25-.4-.31-.66-.04-.01-.08-.01-.11-.02a2.08 2.08 0 0 1 -.58-.22zm3.28.55c0 .04.01.09.01.13.08-.05.16-.11.24-.17-.08.02-.17.03-.25.04zm-.93-.39.06.03c.18.08.38.12.59.13-.01-.13-.03-.26-.05-.39-.19.09-.39.17-.6.23zm.84-.33c.03.16.05.32.06.48.15-.01.29-.05.42-.1.17-.06.33-.15.48-.25.36-.38.58-.75.66-1.13 0-.01 0-.02.01-.03-.07 0-.15 0-.22-.01.02.13.01.27-.01.4 0 .03-.02.05-.04.07-.38.32-.86.52-1.36.57zm-2.28.2c.29.04.58.04.86-.01-.08-.1-.14-.2-.18-.32-.04-.1-.06-.21-.07-.32-.19-.15-.35-.34-.48-.54-.12.31-.18.65-.15 1 0 .07.01.13.02.19zm-.16-2.36c-.1.09-.2.17-.29.26-.37.34-.94.98-.66 1.52.16.31.55.46.85.53 0-.04-.01-.08-.01-.12-.03-.46.06-.92.26-1.32-.12-.27-.17-.58-.15-.87zm1.07 1.91c0 .01.01.03.01.04.05.15.14.26.24.35.16-.04.32-.09.48-.15-.26-.04-.5-.12-.73-.24zm-.04-.32c.01 0 .01.01.02.01.31.21.7.31 1.09.32-.06-.27-.13-.53-.22-.79-.08-.23-.16-.43-.26-.61-.34.24-.62.66-.63 1.07zm.85-1.22c.11.2.2.43.29.68.09.26.16.53.22.8.38-.24.71-.56.95-.93-.04-.03-.08-.05-.11-.08-.21-.17-.35-.4-.39-.64-.05-.01-.1-.02-.15-.02-.27-.02-.55.05-.81.19zm1.68.67c-.18.29-.42.55-.68.77.26-.08.51-.21.72-.38.02-.13.01-.26-.02-.38-.01-.01-.01-.01-.02-.01zm.79.04c-.01.04-.01.09-.02.13-.03.12-.06.24-.11.35l.18-.21c.03-.1.05-.2.07-.31-.04.01-.08.03-.12.04zm-3.92-.19c.09.19.21.36.36.51.08-.44.38-.83.72-1.08.01-.01.02-.01.03-.02-.05-.09-.11-.17-.17-.24-.2.08-.39.2-.56.36-.15.13-.28.29-.38.47zm-.45-1.55c-.23 0-.46.06-.66.19-.5.33-.61.97-.54 1.54.14-.37.45-.72.74-1 .16-.14.34-.3.53-.45.02-.09.06-.18.1-.27-.05 0-.11-.01-.17-.01zm3.82 1.51c.1.02.2.03.3.02.01-.32-.08-.65-.26-.95l-.29-.09c-.14-.05-.29-.08-.38-.02-.04.02-.07.07-.08.13.13.08.24.18.34.28.14.11.25.26.31.42.01.02.01.04.01.06.01.05.03.1.05.15zm.39-.82c.11.25.17.52.18.78.05-.02.1-.05.15-.07.02-.17.04-.35.04-.54-.1-.06-.22-.12-.37-.17zm-1.06.29c.05.12.14.24.26.33.02.02.05.04.07.05-.06-.11-.13-.22-.22-.31a.673.673 0 0 0 -.11-.07zm-2.84-.56c-.06.27-.05.55.03.82.09-.13.19-.25.31-.36.17-.15.36-.28.56-.37-.07-.07-.15-.14-.23-.19-.09-.06-.18-.12-.29-.17-.13.09-.26.18-.38.27zm4.52.65c0 .03 0 .06-.01.08.01-.01.02-.02.03-.04 0-.01-.01-.02-.02-.04zm.01-.34c.06.04.11.1.16.15.06-.13.1-.28.11-.43.02-.49-.28-1.01-.76-1.31-.43-.27-1-.4-1.61-.34-.5.04-.98.19-1.41.43-.32.18-.58.39-.75.63.03.01.06.02.1.03.54-.32 1.17-.55 1.84-.47.56.07 1.09.38 1.45.87.03.03.05.07.07.1l.21.07c.07.02.2.06.34.13 0-.12-.01-.24-.01-.37 0-.07.05-.13.12-.13s.13.05.14.12zm-3.2-.1c.05.06.09.13.13.19.22-.12.46-.2.69-.22a1.63 1.63 0 0 0 -.82.03zm.48-.32a1.725 1.725 0 0 1 .76.16c.04-.09.09-.16.17-.21.18-.12.4-.07.55-.02-.31-.32-.7-.53-1.12-.58-.54-.06-1.06.1-1.53.35.06.04.13.08.19.12.12.08.23.18.33.29.21-.07.43-.11.65-.11z" fill="#a6a8ab"/><path d="m28.15 39.64c.94.13 4.17.24 7.42.29 1.63.02 3.26.03 4.62.01s2.43-.07 2.95-.13c-.52-.05-1.59-.09-2.95-.13-1.35-.04-2.99-.07-4.61-.1-3.25-.06-6.49-.06-7.43.06z"/><path d="m35.91 35.3c-.14 1.25-.13 8.59 0 9.96.14-1.37.14-8.72 0-9.96zm-3.95-.64c-.05.33-.1 1.06-.18 1.99s-.18 2.07-.28 3.21c-.21 2.28-.41 4.57-.39 5.3.12-.72.39-3 .6-5.28.1-1.14.19-2.28.24-3.21.03-.94.03-1.68.01-2.01zm7.59.01c-.07 1.33.3 9.09.5 10.53.06-1.45-.3-9.22-.5-10.53z"/><circle cx="30.08" cy="50.73" fill="#bbbdbf" r="1.66"/><g fill="#231f20"><path d="m30.08 52.56a1.83 1.83 0 1 1 1.83-1.83 1.844 1.844 0 0 1 -1.83 1.83zm0-3.31c-.82 0-1.48.67-1.48 1.48s.67 1.48 1.48 1.48 1.48-.67 1.48-1.48-.67-1.48-1.48-1.48z"/><path d="m14.87 27.3h-.03l-7.88-1.31c-.09-.02-.16-.11-.14-.2.02-.1.11-.16.2-.14l7.88 1.31c.09.02.16.11.14.2-.01.08-.08.14-.17.14z"/><path d="m10.67 26.51h-.04c-.09-.02-.15-.11-.14-.21.01-.03.61-2.99.78-4.49.2-1.84.22-1.85.37-1.88.09-.02.19.05.2.14.01.04 0 .07-.01.1-.01.04-.07.31-.21 1.67-.16 1.52-.78 4.49-.78 4.52-.01.09-.08.15-.17.15zm3.49.63c-.01 0-.03 0-.04-.01a.18.18 0 0 1 -.13-.21c0-.02.42-1.67.79-4.09.19-1.21.21-1.91.21-1.91 0-.1.09-.17.18-.17.1 0 .17.08.17.18 0 .03-.02.72-.21 1.96-.38 2.43-.8 4.1-.8 4.12-.03.07-.1.13-.17.13z"/></g><path d="m50.95 25.95s-.32-1.32-.43-1.8c-.2-.9.59-1.46 1.41-1.69.66-.19 7.47-2.15 9.4-2.19 1.4-.03 2.2.29 2.85 2.02.49 1.3.96 5.58 1.23 7.23.2 1.22-.74 2.54-1.96 2.78.71 4.02.88 6.94.98 9.26.06 1.39-.46 2.56-1.41 3.06-1.9.99-7.14 3-10.89 3.76l-1.43-1.44.92-2.36-1.62-2.23 1.91-2.07-1.21-1.66.47-2.17 2.73-.58-.16-2.17c-1.8.26-2.55-.06-2.83-.91-.3-.92-1.03-4.54-1.16-5.51-.1-.75.31-1.13.8-1.22.48-.08.4-.11.4-.11z" fill="#f8c9b0"/><path d="m57 27.55c-.08 0-.16-.06-.17-.14-.02-.09.05-.19.14-.2l7.86-1.42c.09-.02.19.05.2.14.02.09-.05.19-.14.2l-7.86 1.42z" fill="#231f20"/><path d="m61.4 26.7a.17.17 0 0 1 -.17-.14c-.03-.12-.68-2.96-.84-4.2-.15-1.13-.23-2.01-.23-2.02-.01-.1.06-.18.16-.19.09-.01.18.06.19.16 0 .01.07.88.22 2 .16 1.22.83 4.14.84 4.16a.18.18 0 0 1 -.13.21c-.02.02-.03.02-.04.02zm-3.37.68a.18.18 0 0 1 -.17-.14l-1.3-6.13a.18.18 0 0 1 .13-.21c.09-.02.19.04.21.13l1.3 6.13a.18.18 0 0 1 -.13.21c-.02 0-.03.01-.04.01zm-39.82-2.28h-.03c-.09-.02-.16-.11-.14-.2.3-1.61.45-3.14.45-3.15.01-.1.1-.17.19-.16.1.01.17.09.16.19 0 .02-.16 1.56-.46 3.18a.18.18 0 0 1 -.17.14zm35.79.22c-.09 0-.16-.07-.17-.16-.12-1.15-.58-3.11-.59-3.13a.18.18 0 0 1 .13-.21c.09-.02.19.04.21.13.02.08.47 2 .6 3.17.01.1-.06.18-.15.19-.02.01-.02.01-.03.01zm-9.26 9.3-.28-.6c-.38-.8-.86-1.18-1.32-1.55-.39-.31-.75-.6-1.01-1.1-.32-.63-.32-2.03-.32-3.65 0-2.06.01-4.39-.68-5.49-.17-.27-.81-1.14-1.92-.78-.85.28-1.85 1.16-2.98 2.63-.07.09-.1.13-.12.15l-.12.13-.11-.13c-.2-.23-2.06-2.11-3.47-2.66-.8-.31-1.46.01-2.03.99-.66 1.13-.67 3.21-.67 5.04-.01 1.53-.01 2.85-.37 3.49-.28.49-.66.76-1.06 1.06-.41.3-.84.61-1.22 1.2l-.23.35-.06-.42c-.06-.39-.08-.79-.06-1.15-.55-.42-1.16-.94-1.15-1.16v-.02c.07-.43.43-.6.9-.7-.35-.18-.75-.47-.78-.9-.01-.1.03-.2.1-.28.19-.19.62-.26.99-.28-1.24-.83-3.19-2.34-3.87-4.99l.3-.08c.73 2.87 3.06 4.37 4.17 5.09l.49.32-.58-.03c-.44-.02-1.12.02-1.28.18v.03c.04.45.8.76 1.09.84l.71.2-.73.11c-.7.1-1.11.18-1.19.5.08.13.52.54 1.09.96l.07.05-.01.08c-.02.25-.01.51.01.77.35-.43.72-.7 1.06-.95.39-.28.72-.53.97-.96.32-.57.33-1.91.33-3.33.01-1.87.01-3.98.72-5.19.65-1.12 1.46-1.49 2.41-1.12 1.37.53 3 2.13 3.47 2.61 1.16-1.52 2.21-2.44 3.13-2.74 1.05-.34 1.87.25 2.28.92.73 1.18.73 3.56.73 5.66 0 1.51 0 2.94.28 3.51.22.44.55.7.92 1 .36.29.77.61 1.12 1.15l.01-.53.07-.05c.28-.2.75-.61.82-.87.04-.17-.41-.4-.74-.49l-.36-.1.33-.19c.53-.3 1.1-.76 1.1-.98 0-.02 0-.04-.03-.06-.14-.13-.65-.16-.96-.13l-.57.05.47-.33c.15-.1.3-.21.45-.31 1.13-.76 2.3-1.55 2.63-3.13l.31.06c-.36 1.7-1.58 2.53-2.76 3.32-.01.01-.02.02-.03.02.25.02.53.08.68.22.08.08.13.18.13.29 0 .38-.59.82-.98 1.07.32.13.73.38.64.75-.1.4-.67.85-.88 1zm-24.94 13.23c-.08 0-.15-.05-.17-.12l-.84-2.49c-.03-.09.01-.18.09-.22l1.54-.73-1.16-3.23c-.03-.08 0-.16.06-.21l2.17-1.6-1.91-1.37a.19.19 0 0 1 -.08-.15c0-.06.03-.12.08-.15l2.44-1.52c.08-.05.2-.03.25.06.05.08.03.2-.06.25l-2.21 1.38 1.89 1.36c.05.03.07.09.08.15 0 .06-.03.11-.07.15l-2.26 1.67 1.17 3.26c.03.09-.01.18-.09.22l-1.54.73.79 2.34c.03.09-.02.2-.11.23-.02-.02-.04-.01-.06-.01zm32.55.94a.21.21 0 0 1 -.13-.05l-1.66-1.67c-.05-.05-.07-.13-.04-.19l.89-2.27-1.56-2.15c-.05-.07-.05-.17.01-.23l1.81-1.96-1.12-1.54c-.03-.04-.04-.09-.03-.14l.47-2.17c.02-.1.12-.16.21-.14.1.02.16.12.14.21l-.45 2.09 1.16 1.59c.05.07.04.17-.01.23l-1.81 1.96 1.53 2.11c.04.05.04.11.02.17l-.88 2.25 1.58 1.59c.07.07.07.19 0 .26-.04.03-.09.05-.13.05zm-24.64 18c-.08 0-.16-.06-.18-.14l-.48-2.01-2.31-.29a.191.191 0 0 1 -.16-.15l-.36-2.23-2.26-.33a.17.17 0 0 1 -.15-.14l-.43-2.18-2.08-.6a.173.173 0 0 1 -.12-.22c.03-.1.13-.15.22-.12l2.18.63c.07.02.11.07.13.14l.42 2.16 2.26.33c.08.01.14.07.15.15l.36 2.22 2.3.29c.07.01.14.06.15.14l.51 2.13c.02.1-.04.19-.13.22z" fill="#231f20"/><path d="m19.1 29.78h-.01c-.09-.01-2.21-.18-3.32-.38-1.17-.22-.9-1.9-.74-2.9.02-.1.03-.2.05-.29.11-.73.75-1.44 1.65-1.36.76.07 4.83.55 4.87.56.1.01.16.1.15.19-.01.1-.1.16-.19.15-.04 0-4.11-.49-4.86-.56-.69-.06-1.19.49-1.27 1.07-.01.09-.03.19-.05.29-.19 1.19-.31 2.36.46 2.5 1.09.2 3.26.38 3.28.38.1.01.17.09.16.19-.01.09-.09.16-.18.16zm33.89.26c-.09 0-.16-.06-.17-.15-.01-.1.05-.18.15-.2.02 0 2.17-.31 3.24-.58.84-.21.5-1.75.3-2.66-.02-.09-.04-.17-.05-.25-.12-.57-.65-1.09-1.33-.99-.75.11-4.78.84-4.82.85-.09.02-.19-.05-.2-.14-.02-.09.05-.19.14-.2.04-.01 4.07-.73 4.83-.85.89-.13 1.57.54 1.73 1.26.02.08.03.16.05.25.23 1.04.61 2.78-.56 3.08-1.09.27-3.19.57-3.28.58z" fill="#231f20"/></svg>