<svg height="72" viewBox="0 0 72 72" width="72" xmlns="http://www.w3.org/2000/svg"><path d="m36.001 26.002c-10.452 0-18.927 8.472-18.927 18.926 0 10.449 8.473 18.926 18.925 18.925" fill="#d7d5cc"/><path d="m36 63.853c10.453 0 18.93-8.476 18.93-18.925 0-10.451-8.475-18.926-18.928-18.926" fill="#fff"/><g fill="#ec1c24"><path d="m41.524 44.928c0-.729.591-1.317 1.319-1.317.726 0 1.318.589 1.318 1.317 0 .729-.593 1.318-1.318 1.318-.728 0-1.319-.589-1.319-1.318z"/><circle cx="43.532" cy="50.006" r="1.316"/><path d="m44.465 55.446c.379.624 1.188.822 1.808.445.626-.378.823-1.188.444-1.81-.375-.623-1.188-.821-1.809-.444-.625.378-.82 1.189-.443 1.809zm3.496 2.484c-.451.484-.444 1.206-.041 1.709.674-.55 1.301-1.148 1.893-1.785-.532-.485-1.358-.454-1.852.076zm-6.437-13.002c0 .729.591 1.318 1.319 1.318.726 0 1.318-.589 1.318-1.318s-.593-1.317-1.318-1.317c-.728-.001-1.319.588-1.319 1.317zm.74-5.428c.194-.703.922-1.111 1.623-.918.701.195 1.109.92.914 1.622-.194.699-.922 1.11-1.621.917-.7-.195-1.11-.924-.916-1.621zm2.201-5.088c.379-.626 1.188-.822 1.808-.445.626.378.823 1.188.444 1.809-.375.621-1.188.822-1.809.445-.625-.381-.82-1.189-.443-1.809zm3.496-2.484c-.451-.486-.444-1.208-.041-1.709.674.551 1.301 1.148 1.893 1.781-.532.488-1.358.457-1.852-.072z"/></g><g fill="#ec1c24"><circle cx="29.162" cy="44.928" r="1.318"/><circle cx="28.47" cy="50.006" r="1.317"/><path d="m27.54 55.446c-.379.624-1.189.822-1.812.445-.622-.378-.822-1.188-.442-1.81.376-.623 1.188-.821 1.809-.444.625.378.823 1.189.445 1.809zm-3.497 2.484c.454.484.443 1.206.043 1.709-.677-.55-1.301-1.148-1.895-1.785.533-.485 1.358-.454 1.852.076z"/><circle cx="29.162" cy="44.928" r="1.318"/><path d="m29.739 39.5c-.194-.703-.918-1.111-1.62-.918-.703.195-1.111.92-.917 1.622.194.699.92 1.11 1.621.917.702-.195 1.112-.924.916-1.621zm-2.199-5.088c-.379-.626-1.189-.822-1.812-.445-.622.378-.822 1.188-.442 1.809.376.621 1.188.822 1.809.445.625-.381.823-1.189.445-1.809zm-3.497-2.484c.454-.486.443-1.208.043-1.709-.677.551-1.301 1.148-1.895 1.781.533.488 1.358.457 1.852-.072z"/></g><path d="m23.814 68.133-.195-.039c-2.783-1.178-5.284-2.864-7.434-5.012-2.146-2.147-3.833-4.647-5.011-7.432-1.22-2.888-1.838-5.951-1.838-9.105v-16.713c0-.276.224-.5.5-.5s.5.224.5.5v16.713c0 3.02.592 5.952 1.759 8.716 1.128 2.665 2.742 5.059 4.797 7.114 2.058 2.056 4.452 3.67 7.116 4.797.254.108.373.401.266.655-.08.192-.265.306-.46.306zm-16.272-33.643c.633.631 1.467.936 2.295.922.016-.829-.289-1.663-.921-2.295-.633-.633-1.467-.938-2.295-.922-.016.828.289 1.661.921 2.295zm0 6.946c.633.633 1.467.937 2.295.923.016-.829-.289-1.662-.921-2.296-.633-.631-1.467-.936-2.295-.921-.016.827.289 1.661.921 2.294zm4.589-3.473c-.631.633-1.466.936-2.295.922-.015-.828.291-1.662.922-2.295.634-.633 1.467-.937 2.296-.922.015.828-.29 1.661-.923 2.295zm-4.589 10.42c.633.633 1.467.937 2.295.922.016-.83-.289-1.662-.921-2.295-.633-.633-1.467-.937-2.295-.922-.016.828.289 1.662.921 2.295zm4.589-3.475c-.631.635-1.466.938-2.295.924-.015-.83.291-1.662.922-2.295.634-.633 1.467-.938 2.296-.922.015.827-.29 1.661-.923 2.293zm-2.683 11.456c.802.396 1.69.415 2.469.136-.252-.789-.808-1.481-1.609-1.877-.803-.396-1.69-.416-2.471-.137.252.791.809 1.482 1.611 1.878zm3.23-4.763c-.396.802-1.088 1.358-1.877 1.61-.28-.78-.259-1.667.137-2.469.396-.803 1.086-1.359 1.876-1.611.28.779.26 1.668-.136 2.47zm1.138 11.71c.886.117 1.733-.148 2.382-.664-.493-.667-1.242-1.143-2.127-1.26-.888-.117-1.734.148-2.383.664.491.666 1.24 1.142 2.128 1.26zm1.529-5.549c-.117.887-.594 1.637-1.261 2.129-.516-.65-.781-1.496-.664-2.383s.593-1.637 1.26-2.129c.516.65.782 1.496.665 2.383zm4.839 10.724c.877-.174 1.594-.697 2.042-1.394-.68-.474-1.542-.685-2.419-.511-.878.174-1.594.697-2.043 1.395.678.473 1.541.684 2.42.51zm-.335-5.745c.176.877-.037 1.739-.509 2.419-.697-.448-1.221-1.165-1.395-2.042-.173-.878.038-1.739.511-2.421.695.449 1.218 1.166 1.393 2.044zm28.337 5.392c-.194 0-.379-.114-.46-.306-.107-.254.011-.547.266-.655 2.665-1.127 5.059-2.741 7.116-4.797 2.055-2.056 3.669-4.449 4.797-7.115 1.168-2.763 1.76-5.695 1.76-8.715v-16.713c0-.276.223-.5.5-.5.275 0 .5.224.5.5v16.713c0 3.154-.619 6.218-1.839 9.104-1.179 2.785-2.864 5.285-5.011 7.433-2.149 2.147-4.65 3.834-7.434 5.012zm16.273-33.643c-.633.631-1.467.936-2.295.922-.016-.829.289-1.663.921-2.295.633-.633 1.467-.938 2.295-.922.015.828-.29 1.661-.921 2.295zm0 6.946c-.633.633-1.467.937-2.295.923-.016-.829.289-1.662.921-2.296.633-.631 1.467-.936 2.295-.921.015.827-.29 1.661-.921 2.294zm-4.59-3.473c.631.633 1.466.936 2.295.922.015-.828-.291-1.662-.922-2.295-.635-.633-1.467-.937-2.297-.922-.013.828.291 1.661.924 2.295zm4.59 10.42c-.633.633-1.467.937-2.295.922-.016-.83.289-1.662.921-2.295.633-.633 1.467-.937 2.295-.922.015.828-.29 1.662-.921 2.295zm-4.59-3.475c.631.635 1.466.938 2.295.924.015-.83-.291-1.662-.922-2.295-.635-.633-1.467-.938-2.297-.922-.013.827.291 1.661.924 2.293zm2.684 11.456c-.803.396-1.69.415-2.469.136.252-.789.808-1.481 1.609-1.877.803-.396 1.689-.416 2.471-.137-.254.791-.81 1.482-1.611 1.878zm-3.231-4.763c.396.802 1.088 1.358 1.877 1.61.28-.78.26-1.667-.137-2.469-.396-.803-1.087-1.359-1.877-1.611-.279.779-.259 1.668.137 2.47zm-1.138 11.71c-.886.117-1.732-.148-2.381-.664.492-.667 1.242-1.143 2.127-1.26.888-.117 1.734.148 2.383.664-.493.666-1.241 1.142-2.129 1.26zm-1.529-5.549c.117.887.595 1.637 1.261 2.129.516-.65.781-1.496.664-2.383s-.594-1.637-1.26-2.129c-.516.65-.782 1.496-.665 2.383zm-4.839 10.724c-.877-.174-1.594-.697-2.042-1.394.681-.474 1.542-.685 2.419-.511.879.174 1.595.697 2.043 1.395-.678.473-1.541.684-2.42.51zm.335-5.745c-.176.877.036 1.739.509 2.419.697-.448 1.222-1.165 1.396-2.042.173-.878-.038-1.739-.511-2.421-.695.449-1.219 1.166-1.394 2.044z" fill="#ffc10e"/><ellipse cx="36.002" cy="22.102" fill="#ee4023" rx="16.941" ry="10.911"/><path d="m18.203 26.789h35.598v10.066h-35.598z"/><path d="m18.203 26.789c0-4.051-1.068-7.104-3.193-10.312 3.682.859 7.459 3.252 7.459 3.252 1.12-3.146.479-7.875-1.213-10.861 5.116 1.963 9.968 7.316 9.968 7.316l4.777-10.999 4.778 10.999s4.853-5.354 9.968-7.316c-1.692 2.986-2.331 7.716-1.211 10.861 0 0 3.776-2.393 7.458-3.252-2.125 3.209-3.193 6.262-3.193 10.312z" fill="#ffc10e"/><path d="m41.453 23.537 3.252 3.252h-6.504zm-10.904 0-3.251 3.252h6.502zm20.158 0 1.727 3.252h-3.45zm-29.413 0-1.722 3.252h3.446z" fill="#16243b"/><path d="m54.768 35.89c0-.538-.434-.968-.967-.968h-35.598c-.534 0-.967.43-.967.968 0 .532.433.966.967.966h35.598c.533-.001.967-.434.967-.966z" fill="#16243b"/><path d="m54.768 27.754c0-.532-.434-.965-.967-.965h-35.598c-.534 0-.967.433-.967.965 0 .534.433.969.967.969h35.598c.533 0 .967-.435.967-.969z" fill="#fff"/><path d="m32.618 31.82 3.382 2.006.001-.004v-2.002z" fill="#0073ab"/><path d="m36.001 31.82v2.002l3.384-2.002zm-.001-1.998-3.382 1.998h3.383v-1.998z" fill="#00adee"/><path d="m36.001 29.822v1.998h3.384z" fill="#fff"/><path d="m48.768 31.82-1.842 2.002-3.381-2.002z" fill="#00adee"/><path d="m46.926 29.822 1.842 1.998h-5.223zm9.51 1.998-2.635 2.002-1.166-2.002z" fill="#0073ab"/><path d="m53.801 29.822 2.635 1.998h-3.801zm-30.565 1.998 1.841 2.002 3.381-2.002z" fill="#00adee"/><path d="m25.077 29.822-1.841 1.998h5.222zm-9.509 1.998 2.635 2.002 1.166-2.002z" fill="#0073ab"/><path d="m18.203 29.822-2.635 1.998h3.801z" fill="#00adee"/><g fill="#ee4023"><circle cx="15.01" cy="16.477" r="1.712"/><path d="m19.543 8.867c0-.947.77-1.713 1.713-1.713.945 0 1.712.766 1.712 1.713 0 .941-.767 1.711-1.712 1.711-.943 0-1.713-.769-1.713-1.711z"/><circle cx="56.993" cy="16.477" r="1.712"/><path d="m49.034 8.867c0-.947.771-1.713 1.713-1.713.945 0 1.712.766 1.712 1.713 0 .941-.767 1.711-1.712 1.711-.942 0-1.713-.769-1.713-1.711zm-14.745-3.682c0-.948.77-1.715 1.712-1.715.948 0 1.713.767 1.713 1.715 0 .944-.766 1.711-1.713 1.711-.942 0-1.712-.767-1.712-1.711zm8.39 26.635c0-.674-.55-1.219-1.226-1.219-.674 0-1.223.545-1.223 1.219 0 .677.549 1.223 1.223 1.223.676 0 1.226-.546 1.226-1.223zm9.255 0c0-.674-.549-1.219-1.227-1.219-.674 0-1.223.545-1.223 1.219 0 .677.549 1.223 1.223 1.223.678 0 1.227-.546 1.227-1.223zm-20.161 0c0-.674-.549-1.219-1.224-1.219-.673 0-1.222.545-1.222 1.219 0 .677.548 1.223 1.222 1.223.675 0 1.224-.546 1.224-1.223zm-9.254 0c0-.674-.549-1.219-1.226-1.219-.673 0-1.223.545-1.223 1.219 0 .677.55 1.223 1.223 1.223.676 0 1.226-.546 1.226-1.223z"/></g></svg>