<svg xmlns="http://www.w3.org/2000/svg" viewBox="0 0 72 72"><defs><style>.a{fill:#f47939}.b{fill:#9b4b51}.c{fill:#fff}.d{fill:#fdb627}.e{fill:#414042}</style></defs><title>stadium foods</title><path class="a" d="M12.76 48.16l-.05-.52h-.5a3.88 3.88 0 0 1-3.53-5.55 3.83 3.83 0 0 1-.14-4.08 3.63 3.63 0 0 1-.13-.72 3.84 3.84 0 0 1 .87-2.75v-.23a3.89 3.89 0 0 1 1-2.85v-.07A3.9 3.9 0 0 1 12 27.83a3.79 3.79 0 0 1 .73-2.78c-8.49 8.69-6.38 22.8-6 24.84l.07.42c2.35 1.71 5.27 1 7.09.27-.13-.8-.23-1.81-.3-2.69z"/><path class="b" d="M27.62 20.37A1.91 1.91 0 0 0 27 20a1.91 1.91 0 0 0-1.85.37 1 1 0 0 1-.88.21 1.9 1.9 0 0 0-2 .75 1 1 0 0 1-1.05.4 2 2 0 0 0-.47-.06A1.89 1.89 0 0 0 18.94 23v.16a1 1 0 0 1-.83.74 1.9 1.9 0 0 0-1.44 1 1 1 0 0 1-.86.55 1.91 1.91 0 0 0-1.84 1.84 1.87 1.87 0 0 0 .13.72 1 1 0 0 1-.6 1.3 1.91 1.91 0 0 0-1.27 1.93 2 2 0 0 0 .07.36 1 1 0 0 1-.32 1 1.88 1.88 0 0 0-.68 1.59 1.83 1.83 0 0 0 .08.4 1 1 0 0 1-.29 1 1.82 1.82 0 0 0-.47 2.15 1 1 0 0 1-.13 1 1.85 1.85 0 0 0 .17 2.52 1 1 0 0 1 .1 1.32 1.89 1.89 0 0 0 1.66 3 1.9 1.9 0 0 0 .58-.06c-.37-4.67-.06-11.21 3.32-16.7A19.87 19.87 0 0 1 28 20.27z"/><path class="a" d="M44 25.18a3.89 3.89 0 0 1 .66.67c.66-.19 1.34-.38 2-.53a26.69 26.69 0 0 0-2.66-.14zM46.35 25.48h-.17q.74.08 1.43.18a2.43 2.43 0 0 0-1.26-.18z"/><path class="c" d="M47.53 26.2c-.45-.07-.92-.13-1.41-.18l-3-.32 3.12-.7a2.55 2.55 0 0 1 1.39.19h.14z"/><path class="d" d="M33.57 27a3.88 3.88 0 0 1 2.1-.86c.35-.12.71-.23 1.07-.34a3.87 3.87 0 0 1 2.79-.8 3.88 3.88 0 0 1 3.39-.45l.27.12a26 26 0 0 1 3.57.13 14.76 14.76 0 0 0-3.51-2.3l-.25-.08-.66-.28L42 22l-.64-.22-.61-.17-.87-.21-.68-.13-.55-.08-.78-.09H34.9l-.9.01h-.31l-1 .12h-.33q-.66.1-1.35.24c-22 4.4-15.1 29.6-15.1 29.6l4.59-1.32C20.6 42.6 22.74 32 33.57 27z"/><path class="a" d="M48.45 25.84l-.85-.13a1.85 1.85 0 0 0 .85.13zM28 54.1h-.53a3.91 3.91 0 0 1-3.9-3.61A3.85 3.85 0 0 1 24 48.6a3.83 3.83 0 0 1-.14-4.08 3.62 3.62 0 0 1-.13-.72 3.84 3.84 0 0 1 .87-2.74v-.23a3.9 3.9 0 0 1 1-2.85v-.14a3.89 3.89 0 0 1 1.77-3.55 3.6 3.6 0 0 1 .15-1.61C20 40.79 21.45 53.12 22 56.24v.3h.06c2.34 1.74 5.28 1 7.11.3-.14-.6-.33-1.5-.5-2.62l-.62.22z"/><path class="b" d="M42.92 26.82a1.91 1.91 0 0 0-2.49 0 1 1 0 0 1-.88.21 1.9 1.9 0 0 0-2 .75 1 1 0 0 1-1.05.4 2 2 0 0 0-.5-.04 1.89 1.89 0 0 0-1.8 1.29v.15a1 1 0 0 1-.83.75 1.91 1.91 0 0 0-1.44 1 1 1 0 0 1-.85.55 1.91 1.91 0 0 0-1.84 1.84 1.87 1.87 0 0 0 .13.72 1 1 0 0 1-.6 1.3 1.9 1.9 0 0 0-1.27 1.92 1.82 1.82 0 0 0 .06.36 1 1 0 0 1-.32 1 1.88 1.88 0 0 0-.68 1.6 1.9 1.9 0 0 0 .08.4 1 1 0 0 1-.29 1 1.82 1.82 0 0 0-.47 2.16 1 1 0 0 1-.13 1 1.85 1.85 0 0 0 .17 2.52 1 1 0 0 1 .1 1.32 1.87 1.87 0 0 0-.39 1.28 1.91 1.91 0 0 0 2.05 1.75 1.88 1.88 0 0 0 .74-.23c-.42-4.59-.19-11.1 3.17-16.59a19.81 19.81 0 0 1 11.74-8.62z"/><path class="d" d="M69 46.69v-2.16l-.06-.36-.06-.31-.08-.4-.07-.33-.1-.45-.08-.33-.14-.54-.41-.3q-.12-.42-.26-.87l-.06-.19c-.08-.23-.15-.47-.24-.71l-.13-.35-.22-.57-.09-.4-.23-.54-.19-.41-.26-.54-.21-.42-.31-.51-.24-.42-.32-.58-.24-.37-.36-.51-.29-.4-.4-.51-.3-.37-.47-.52-.33-.32c-.19-.2-.4-.38-.61-.57L62 31.2q-.44-.38-.92-.74l-.25-.17c-.24-.17-.49-.34-.75-.5l-.4-.23c-.22-.13-.45-.26-.68-.38l-.47-.18-.69-.31-.52-.2-.73-.24-.59-.19-.77-.19-.61-.12-.83-.12-.65-.07-.89-.06H50c-.49 0-1 .08-1.5.14l-.5.07c-.57.08-1.14.17-1.74.29-22 4.4-15 29.2-15 29.2L69 46.75v-.06z"/><path class="e" d="M60.54 27.24A17.42 17.42 0 0 0 48.42 24a16.83 16.83 0 0 0-3.18-3.22c-3.72-2.83-8.46-3.84-14.09-3a20.38 20.38 0 0 0-2.65-.24 4.55 4.55 0 0 0-4.49.12 4.83 4.83 0 0 0-2.64.68C-.9 23.6 4.09 49.34 4.14 49.56a1 1 0 0 0 .48.65h.08a5.12 5.12 0 0 0 3 .91 10.79 10.79 0 0 0 5.46-1.88L19 47.6a37.47 37.47 0 0 0 .43 8.4 1 1 0 0 0 .41.62 5.29 5.29 0 0 0 3.05.9 11.46 11.46 0 0 0 5.54-1.8l39.38-11a1 1 0 0 0 .73-1c-.02-.52-.71-10.93-8-16.48zM26.76 53a2.83 2.83 0 0 1-2.06-2.5A2.75 2.75 0 0 1 25 49l.26-.53-.36-.47a2.75 2.75 0 0 1-.11-3l.21-.34-.12-.42a2.62 2.62 0 0 1-.1-.53 2.78 2.78 0 0 1 .65-2l.29-.34-.07-.44v-.19a2.83 2.83 0 0 1 .71-2.07l.31-.35-.08-.56a2.81 2.81 0 0 1 1.32-2.59l.55-.35-.1-.65a2.59 2.59 0 0 1 0-.46A2.83 2.83 0 0 1 30.67 31h.41l.24-.34a2.84 2.84 0 0 1 1.5-1.09l.45-.14.18-.43A2.81 2.81 0 0 1 36 27.23h.71l.33-.34a2.72 2.72 0 0 1 .4-.32l.24-.06 1.15-.22q-.66.29-1.27.62l.22-.05C25.88 33.26 26.19 47.65 26.76 53zm-15.3-6.47A2.83 2.83 0 0 1 9.4 44a2.78 2.78 0 0 1 .28-1.43l.25-.57-.33-.44a2.75 2.75 0 0 1-.11-3l.22-.37-.12-.42a2.54 2.54 0 0 1-.1-.53 2.78 2.78 0 0 1 .65-2l.29-.34-.07-.44v-.19a2.83 2.83 0 0 1 .64-2.06l.3-.34-.07-.57a2.81 2.81 0 0 1 1.32-2.59l.55-.35-.1-.63a2.7 2.7 0 0 1 0-.46 2.82 2.82 0 0 1 2.34-2.7l.41-.07.25-.35a2.84 2.84 0 0 1 1.5-1.09l.5-.14.18-.43a2.81 2.81 0 0 1 2.6-1.72h.7l.33-.34a2.75 2.75 0 0 1 .39-.32l.25-.06 1.15-.22-.3.17h.1c-12.85 6.09-12.53 21-11.94 26.49zM6 48.68a35.73 35.73 0 0 1 .25-12.48 21.06 21.06 0 0 1 4.91-10.06 4.71 4.71 0 0 0-.16 1.07v.18a4.79 4.79 0 0 0-1.75 3.83 4.83 4.83 0 0 0-.93 3.1 4.75 4.75 0 0 0-.84 3.08 4.29 4.29 0 0 0 .07.53 4.74 4.74 0 0 0 .09 4.28 4.75 4.75 0 0 0-.26 1.93 4.83 4.83 0 0 0 3.27 4.18c-1.28.63-3.18 1.22-4.65.36zm7.51-1.63a34.57 34.57 0 0 1 .36-11.48c1.78-8.23 6.79-13.39 14.87-15.34l.63-.14c.65-.14 1.3-.25 1.94-.35h.08a23.5 23.5 0 0 1 3.31-.25 14.93 14.93 0 0 1 9.3 2.88 14 14 0 0 1 1.87 1.75A20.86 20.86 0 0 0 43.8 24a4.79 4.79 0 0 0-.59-.26 4.85 4.85 0 0 0-3.9.38 4.75 4.75 0 0 0-2.65.68C23.8 27.8 20 37.64 19.15 45.48zm7.79 8.1a35.7 35.7 0 0 1 .25-12.49 21.09 21.09 0 0 1 4.91-10.06 4.73 4.73 0 0 0-.16 1.07v.17a4.8 4.8 0 0 0-1.75 3.83 4.83 4.83 0 0 0-.94 3.1 4.77 4.77 0 0 0-.84 3.09 4.66 4.66 0 0 0 .07.53 4.74 4.74 0 0 0 .16 4.29 4.73 4.73 0 0 0-.26 1.93 4.83 4.83 0 0 0 3.19 4.16c-1.33.56-3.18 1.1-4.61.38zm7.51-1.64a34.53 34.53 0 0 1 .34-11.42c1.62-7.57 6-12.55 12.91-14.84a24.06 24.06 0 0 1 2.6-.71c.67-.14 1.31-.26 1.94-.35h.08a23.51 23.51 0 0 1 3.32-.27 14.93 14.93 0 0 1 9.29 2.9C64.78 33 66.16 40.51 66.47 43z"/></svg>