<svg enable-background="new 0 0 72 72" viewBox="0 0 72 72" xmlns="http://www.w3.org/2000/svg"><path d="m62.6 17.1c1.7-.2 3.3 1 3.6 2.7l1.9 13.6c.2 1.7-1 3.3-2.7 3.6-1.7.2-3.3-1-3.6-2.7l-1.9-13.6c-.3-1.8 1-3.4 2.7-3.6z" fill="#57c9e8"/><path d="m64.9 38.1c-2.1 0-3.9-1.6-4.1-3.6l-1.9-13.6c-.3-2.3 1.3-4.4 3.6-4.7s4.4 1.3 4.7 3.6l1.9 13.6c.1 1.1-.1 2.2-.8 3.1s-1.7 1.5-2.8 1.6zm-1.9-20.1h-.3c-1.2.2-2 1.3-1.9 2.5l1.9 13.6c.2 1.2 1.3 2 2.5 1.9.6-.1 1.1-.4 1.5-.8.4-.5.5-1 .4-1.6l-1.9-13.6c-.1-1.1-1.1-2-2.2-2z" fill="#231f20"/><circle cx="64.9" cy="33.9" fill="#39879c" r="1.2"/><path d="m40.2 34.8c-1.2-2-.6-4.6 1.4-5.9l19.1-12c2-1.2 4.6-.6 5.9 1.4.6 1 .8 2.3.5 3.4-.3 1-.9 1.9-1.9 2.5l-19.2 11.9c-2 1.3-4.6.6-5.8-1.3z" fill="#57c9e8"/><path d="m43.8 37.8c-1.8 0-3.5-.9-4.5-2.5-1.5-2.5-.8-5.7 1.7-7.2l19.1-12c.8-.5 1.8-.8 2.8-.8 1.8 0 3.5.9 4.5 2.5.8 1.2 1 2.7.6 4.1-.3 1.3-1.2 2.4-2.3 3.1l-19.1 12c-.9.5-1.8.8-2.8.8zm19.1-20.6c-.6 0-1.2.2-1.7.5l-19.1 12c-1.5.9-2 3-1 4.5.6 1 1.6 1.5 2.8 1.5.6 0 1.2-.2 1.7-.5l19.1-12c.7-.4 1.2-1.1 1.4-1.9.2-.9.1-1.8-.4-2.6-.6-.9-1.6-1.5-2.8-1.5z" fill="#231f20"/><path d="m40.2 34.8c-1.2-2-.6-4.6 1.4-5.9l19.1-12c2-1.2 4.6-.6 5.9 1.4z" fill="#39879c"/><circle cx="62.9" cy="20.5" fill="#2b7082" r="3.4"/><path d="m43.8 37.8c-1.8 0-3.5-.9-4.5-2.5-1.5-2.5-.8-5.7 1.7-7.2l19.1-12c.8-.5 1.8-.8 2.8-.8 1.8 0 3.5.9 4.5 2.5.8 1.2 1 2.7.6 4.1-.3 1.3-1.2 2.4-2.3 3.1l-19.1 12c-.9.5-1.8.8-2.8.8zm19.1-20.6c-.6 0-1.2.2-1.7.5l-19.1 12c-1.5.9-2 3-1 4.5.6 1 1.6 1.5 2.8 1.5.6 0 1.2-.2 1.7-.5l19.1-12c.7-.4 1.2-1.1 1.4-1.9.2-.9.1-1.8-.4-2.6-.6-.9-1.6-1.5-2.8-1.5z" fill="#231f20"/><circle cx="62.9" cy="20.5" fill="#fff" r="1.8"/><path d="m60.9 44.9 1.5-1.5c-1.2-1.2-1.2-3.2.1-4.3 1.2-1.2 3.2-1.2 4.3.1 1.2 1.2 1.2 3.2-.1 4.3l1.5 1.5c2.1-2 2.1-5.3.1-7.3s-5.3-2.1-7.3-.1c-2 1.9-2.1 5.2-.1 7.3zm-23.7-26.9h6v4.7h-6z" fill="#231f20"/><path d="m36.4 27.1c1 2.1 0 4.7-2.1 5.6l-17.2 8c-2.1 1-4.7 0-5.6-2.1-.5-1.1-.5-2.3 0-3.4.4-1 1.1-1.8 2.2-2.2l17.2-8c2-.9 4.5 0 5.5 2.1z" fill="#57c9e8"/><path d="m15.3 42.1c-2.1 0-3.9-1.2-4.8-3.1-.6-1.3-.6-2.9-.1-4.2.5-1.2 1.5-2.2 2.7-2.8l17.2-8c.7-.3 1.4-.5 2.2-.5 2.1 0 3.9 1.2 4.8 3.1 1.2 2.6 0 5.8-2.6 6.9l-17.2 8c-.7.5-1.5.6-2.2.6zm17.2-16.5c-.5 0-.9.1-1.3.3l-17.2 8c-.8.3-1.3.9-1.7 1.7s-.3 1.8 0 2.6c.5 1.2 1.7 1.9 3 1.9.5 0 .9-.1 1.3-.3l17.2-8c1.6-.7 2.4-2.7 1.6-4.3-.4-1.1-1.6-1.9-2.9-1.9z" fill="#231f20"/><path d="m36.4 27.1c1 2.1 0 4.7-2.1 5.6l-17.2 8c-2.1 1-4.7 0-5.6-2.1z" fill="#39879c"/><path d="m15.3 42.1c-2.1 0-3.9-1.2-4.8-3.1-.6-1.3-.6-2.9-.1-4.2.5-1.2 1.5-2.2 2.7-2.8l17.2-8c.7-.3 1.4-.5 2.2-.5 2.1 0 3.9 1.2 4.8 3.1 1.2 2.6 0 5.8-2.6 6.9l-17.2 8c-.7.5-1.5.6-2.2.6zm17.2-16.5c-.5 0-.9.1-1.3.3l-17.2 8c-.8.3-1.3.9-1.7 1.7s-.3 1.8 0 2.6c.5 1.2 1.7 1.9 3 1.9.5 0 .9-.1 1.3-.3l17.2-8c1.6-.7 2.4-2.7 1.6-4.3-.4-1.1-1.6-1.9-2.9-1.9z" fill="#231f20"/><circle cx="15.3" cy="36.9" fill="#bbbdbf" r="3.4"/><circle cx="15.3" cy="36.9" fill="#fff" r="1.8"/><path d="m15.9 40.8c-1.7.4-3.4-.7-3.8-2.5l-2.5-13c-.4-1.7.7-3.4 2.5-3.8s3.4.7 3.8 2.5l2.5 13c.3 1.8-.8 3.5-2.5 3.8z" fill="#57c9e8"/><path d="m15.2 41.9c-2 0-3.7-1.4-4.1-3.3l-2.5-13c-.5-2.2 1-4.5 3.2-4.9.3-.1.6-.1.9-.1 2 0 3.7 1.4 4.1 3.3l2.5 13c.5 2.2-1 4.5-3.2 4.9-.3.1-.6.1-.9.1zm-2.5-19.3h-.5c-1.2.2-1.9 1.4-1.7 2.6l2.5 13c.2 1.1 1.4 1.9 2.6 1.7s1.9-1.4 1.7-2.6l-2.5-13c-.1-1-1-1.7-2.1-1.7z" fill="#231f20"/><circle cx="12.7" cy="24.7" fill="#808184" r="1.2"/><circle cx="15.2" cy="37" fill="#39879c" r="1.2"/><path d="m51.7 22.5h-23.2l3.9 27h15.5z" fill="#f05a28"/><path d="m47.9 50.5h-15.5c-.5 0-.9-.4-1-.9l-3.9-27c0-.3 0-.6.2-.8s.5-.3.8-.3h23.2c.3 0 .6.1.8.3s.3.5.2.8l-3.9 27c0 .5-.4.9-.9.9zm-14.7-2h13.8l3.6-25h-20.9z" fill="#231f20"/><path d="m40.2 22.5v27h7.7l3.8-27zm11.5 5.9h-23.2l11.4 21.1h.6z" fill="#9d3912"/><path d="m40.1 28.4v21.1h.4l11.2-21.1zm-10.5 2.3h21.1v2.4h-21.1z" fill="#7c2800"/><path d="m40.1 30.7h10.6v2.4h-10.6z" fill="#6e2100"/><path d="m47.9 50.5h-15.5c-.5 0-.9-.4-1-.9l-3.9-27c0-.3 0-.6.2-.8s.5-.3.8-.3h23.2c.3 0 .6.1.8.3s.3.5.2.8l-3.9 27c0 .5-.4.9-.9.9zm-14.7-2h13.8l3.6-25h-20.9zm-18.4-35.3-1.3 1.7c1.4 1 1.6 3 .6 4.3-1 1.4-3 1.6-4.3.6s-1.6-3-.6-4.3l-1.7-1.3c-1.7 2.3-1.3 5.6 1 7.3s5.6 1.3 7.3-1c1.8-2.3 1.3-5.5-1-7.3z" fill="#231f20"/><path d="m29.1 6.5 11.1-3 11.1 3-1.3 12.6h-19.3z" fill="#7d868c"/><path d="m50 20.1h-19.3c-.5 0-.9-.4-1-.9l-1.6-12.6c-.1-.5.2-1 .7-1.1l11.1-3h.5l11 3c.5.1.8.6.7 1.1l-1.1 12.6c-.1.5-.5.9-1 .9zm-18.4-2h17.5l1.1-10.9-10-2.7-10 2.7z" fill="#231f20"/><path d="m29 6.4.5 3h-2v3.9h2.4l.4 5.7h9.9v-15.6z" fill="#5c6670"/><path d="m29.6 7.4h21v1.9h-21zm.5 6.2h20v1.9h-20z" fill="#434c53"/><path d="m50 20.1h-19.3c-.5 0-.9-.4-1-.9l-1.6-12.6c-.1-.5.2-1 .7-1.1l11.1-3h.5l11 3c.5.1.8.6.7 1.1l-1.1 12.6c-.1.5-.5.9-1 .9zm-18.4-2h17.5l1.1-10.9-10-2.7-10 2.7z" fill="#231f20"/><path d="m27.2 9.3h26v4.2h-26z" fill="#57c9e8"/><path d="m53.2 14.6h-26c-.6 0-1-.4-1-1v-4.3c0-.6.4-1 1-1h26c.6 0 1 .4 1 1v4.2c0 .6-.4 1.1-1 1.1zm-25-2h24v-2.2h-24z" fill="#231f20"/><path d="m27.7 9.8h12.5v3.4h-12.5z" fill="#39879c"/><path d="m53.2 14.6h-26c-.6 0-1-.4-1-1v-4.3c0-.6.4-1 1-1h26c.6 0 1 .4 1 1v4.2c0 .6-.4 1.1-1 1.1zm-25-2h24v-2.2h-24z" fill="#231f20"/><path d="m33.5 30.3h13.5c4.3 0 7.8-3.5 7.8-7.8h-29.2c0 4.3 3.5 7.8 7.9 7.8z" fill="#f05a28"/><path d="m46.9 31.3h-13.4c-4.9 0-8.8-4-8.8-8.8 0-.6.4-1 1-1h29.2c.6 0 1 .4 1 1-.1 4.9-4.1 8.8-9 8.8zm-20.2-7.8c.5 3.3 3.3 5.8 6.8 5.8h13.5c3.4 0 6.3-2.5 6.8-5.8z" fill="#231f20"/><path d="m25.7 22.8h28.9v2.4h-28.9z" fill="#b2421a"/><path d="m46.9 31.3h-13.4c-4.9 0-8.8-4-8.8-8.8 0-.6.4-1 1-1h29.2c.6 0 1 .4 1 1-.1 4.9-4.1 8.8-9 8.8zm-20.2-7.8c.5 3.3 3.3 5.8 6.8 5.8h13.5c3.4 0 6.3-2.5 6.8-5.8z" fill="#231f20"/><path d="m40.1 22.6v7.4" fill="#f05a28"/><path d="m40.1 31c-.6 0-1-.4-1-1v-7.5c0-.6.4-1 1-1s1 .4 1 1v7.5c0 .6-.5 1-1 1z" fill="#231f20"/><g fill="#9d3912"><circle cx="36.7" cy="25.2" r=".8"/><circle cx="33.6" cy="25.2" r=".8"/><circle cx="30.5" cy="25.2" r=".8"/></g><g fill="#9d3912"><circle cx="49.8" cy="25.2" r=".8"/><circle cx="46.7" cy="25.2" r=".8"/><circle cx="43.6" cy="25.2" r=".8"/></g><circle cx="11.4" cy="16.1" fill="#fff100" r="9.1"/><path d="m11.4 26.2c-4.9 0-9-3.5-9.9-8.3-1-5.5 2.7-10.7 8.1-11.7.6-.2 1.2-.2 1.8-.2 4.9 0 9 3.5 9.9 8.3 1 5.5-2.7 10.7-8.1 11.7-.6.1-1.2.2-1.8.2zm0-18.2c-.5 0-1 0-1.4.1-4.4.8-7.3 5-6.5 9.4.7 3.9 4 6.6 7.9 6.6.5 0 1 0 1.4-.1 2.1-.4 4-1.6 5.2-3.3 1.2-1.8 1.7-3.9 1.3-6-.7-3.9-4-6.7-7.9-6.7z" fill="#231f20"/><path d="m14.8 10.7c-2.9 4.2-2.5 9.7.7 13.4-.8.4-1.6.7-2.6.9-4.9.9-9.6-2.4-10.5-7.3s2.4-9.7 7.4-10.6c2.5-.5 5 .2 6.9 1.6-.7.6-1.4 1.3-1.9 2z" fill="#cbbd00"/><path d="m11.4 26.2c-4.9 0-9-3.5-9.9-8.3-1-5.5 2.7-10.7 8.1-11.7.6-.2 1.2-.2 1.8-.2 4.9 0 9 3.5 9.9 8.3 1 5.5-2.7 10.7-8.1 11.7-.6.1-1.2.2-1.8.2zm0-18.2c-.5 0-1 0-1.4.1-4.4.8-7.3 5-6.5 9.4.7 3.9 4 6.6 7.9 6.6.5 0 1 0 1.4-.1 2.1-.4 4-1.6 5.2-3.3 1.2-1.8 1.7-3.9 1.3-6-.7-3.9-4-6.7-7.9-6.7z" fill="#231f20"/><circle cx="10.3" cy="17.2" fill="#958c00" r="5.7"/><circle cx="10.2" cy="15.3" fill="#fff" r="4.7"/><path d="m7.8 19.6c.7-.3 1.4-.8 2-1.4 2-2.2 2-5.5 0-7.7.9.1 1.8.5 2.6 1.2 1.9 1.7 2.1 4.7.3 6.7-1.2 1.3-3.2 1.7-4.9 1.2z" fill="#bbbdbf"/><path d="m7.4 19-.8-.6c.1-.1 1.3-1.6 3.7-2 2.4-.5 4.2.8 4.2.8l-.5.7s-1.5-1-3.4-.6c-2.1.4-3.2 1.6-3.2 1.7zm1.2-4.4c-1.6 0-2.7-.6-2.8-.6l.5-.9s1.5.8 3.5.4 2.9-1.9 2.9-1.9l.9.5c0 .1-1.2 1.9-3.6 2.4-.5 0-1 .1-1.4.1z" fill="#be1e2d"/><path d="m10.2 21c-2.7 0-5.1-1.9-5.6-4.6-.3-1.5 0-3 .8-4.3.8-1.2 2.1-2.1 3.6-2.4.4-.1.8-.1 1.1-.1 2.7 0 5.1 1.9 5.6 4.6.3 1.5 0 3-.8 4.3s-2.1 2.1-3.6 2.4c-.4.1-.8.1-1.1.1zm0-9.4c-.2 0-.5 0-.7.1-1 .2-1.8.8-2.4 1.6s-.7 1.8-.5 2.8c.4 2 2.4 3.3 4.4 2.9 1-.2 1.8-.8 2.4-1.6s.7-1.8.5-2.8c-.4-1.8-2-3-3.7-3z" fill="#231f20"/><path d="m13.9 21.7s-3.1-6.9.9-11c0 0 6.3 4.7-.9 11z" fill="#fff100"/><path d="m14.9 25.3c-.4 0-.8-.3-.9-.7-2.1-6.1-2.4-10.8-.7-13.8 1.3-2.3 3.2-2.8 3.3-2.8.5-.1 1.1.2 1.2.8.1.5-.2 1.1-.7 1.2-.1 0-1.2.4-2.1 1.9-.9 1.7-1.5 5.3.8 12.1.2.5-.1 1.1-.6 1.3z" fill="#231f20"/><path d="m18.4 63.2-.8 1.5" fill="#f05a28"/><path d="m17.6 65.7c-.2 0-.3 0-.5-.1-.5-.3-.6-.9-.4-1.4l.8-1.4c.3-.5.9-.6 1.4-.4.5.3.6.9.4 1.4l-.8 1.4c-.2.3-.5.5-.9.5z" fill="#231f20"/><path d="m16 61.8-.8 1.5" fill="#f05a28"/><path d="m15.2 64.3c-.2 0-.3 0-.5-.1-.5-.3-.6-.9-.4-1.4l.8-1.4c.3-.5.9-.6 1.4-.4.5.3.6.9.4 1.4l-.9 1.4c-.2.3-.5.5-.8.5z" fill="#231f20"/><path d="m25.8 67.4-.8 1.5" fill="#f05a28"/><path d="m25 69.9c-.2 0-.3 0-.5-.1-.5-.3-.6-.9-.4-1.4l.8-1.4c.3-.5.9-.6 1.4-.4.5.3.6.9.4 1.4l-.8 1.4c-.2.3-.6.5-.9.5z" fill="#231f20"/><path d="m23.3 66-.8 1.5" fill="#f05a28"/><path d="m22.5 68.5c-.2 0-.3 0-.5-.1-.5-.3-.6-.9-.4-1.4l.8-1.4c.3-.5.9-.6 1.4-.4.5.3.6.9.4 1.4l-.8 1.4c-.2.3-.5.5-.9.5z" fill="#231f20"/><path d="m20.9 64.6-.8 1.5" fill="#f05a28"/><path d="m20.1 67.1c-.2 0-.3 0-.5-.1-.5-.3-.6-.9-.4-1.4l.8-1.4c.3-.5.9-.6 1.4-.4.5.3.6.9.4 1.4l-.8 1.4c-.2.3-.6.5-.9.5z" fill="#231f20"/><path d="m35.9 44.7-.6-.3c-1.8-1.1-4.2-.4-5.2 1.4l-8.6 14.9c-1.1 1.8-.4 4.2 1.4 5.2l.6.3c1.8 1.1 4.2.4 5.2-1.4l8.6-14.9c1.1-1.8.5-4.2-1.4-5.2z" fill="#5c6670"/><path d="m25.4 67.8c-.8 0-1.7-.2-2.4-.6l-.6-.3c-1.1-.6-1.9-1.7-2.3-2.9-.3-1.2-.2-2.6.5-3.7l8.6-14.9c.9-1.5 2.5-2.4 4.2-2.4.8 0 1.7.2 2.4.6l.6.3c1.1.6 1.9 1.7 2.3 2.9.3 1.2.2 2.6-.5 3.7l-8.6 14.9c-.8 1.4-2.4 2.4-4.2 2.4zm8.1-22.9c-1 0-2 .5-2.5 1.4l-8.6 14.9c-.4.7-.5 1.4-.3 2.2.2.7.7 1.3 1.3 1.7l.6.3c.4.2.9.4 1.4.4 1 0 2-.5 2.5-1.4l8.6-14.9c.4-.7.5-1.4.3-2.2-.2-.7-.7-1.3-1.3-1.7l-.6-.3c-.5-.3-1-.4-1.4-.4z" fill="#231f20"/><path d="m35.7 44.6-.3-.2c-1.8-1.1-4.2-.4-5.2 1.4l-8.6 14.9c-1.1 1.8-.4 4.2 1.4 5.2l.3.2z" fill="#434c53"/><path d="m25.4 67.8c-.8 0-1.7-.2-2.4-.6l-.6-.3c-1.1-.6-1.9-1.7-2.3-2.9-.3-1.2-.2-2.6.5-3.7l8.6-14.9c.9-1.5 2.5-2.4 4.2-2.4.8 0 1.7.2 2.4.6l.6.3c1.1.6 1.9 1.7 2.3 2.9.3 1.2.2 2.6-.5 3.7l-8.6 14.9c-.8 1.4-2.4 2.4-4.2 2.4zm8.1-22.9c-1 0-2 .5-2.5 1.4l-8.6 14.9c-.4.7-.5 1.4-.3 2.2.2.7.7 1.3 1.3 1.7l.6.3c.4.2.9.4 1.4.4 1 0 2-.5 2.5-1.4l8.6-14.9c.4-.7.5-1.4.3-2.2-.2-.7-.7-1.3-1.3-1.7l-.6-.3c-.5-.3-1-.4-1.4-.4z" fill="#231f20"/><circle cx="33.4" cy="48.4" fill="#7d868c" r="5.2"/><path d="m33.4 54.6c-1.1 0-2.1-.3-3.1-.8-1.4-.8-2.5-2.1-2.9-3.7s-.2-3.3.6-4.7c1.1-1.9 3.2-3.1 5.4-3.1 1.1 0 2.1.3 3.1.8 1.4.8 2.5 2.1 2.9 3.7s.2 3.3-.6 4.7c-1.1 1.9-3.2 3.1-5.4 3.1zm0-10.4c-1.5 0-2.9.8-3.6 2.1-1.1 2-.4 4.6 1.6 5.7.6.4 1.3.6 2.1.6 1.5 0 2.9-.8 3.6-2.1.6-1 .7-2.1.4-3.2s-1-2-2-2.5c-.7-.4-1.4-.6-2.1-.6z" fill="#231f20"/><circle cx="33.4" cy="48.4" fill="#5c6670" r="2.7"/><circle cx="25.3" cy="62.4" fill="#fff" r="1.2"/><path d="m17.149 57.061 12.067 6.9-2.482 4.34-12.067-6.9z" fill="#f05a28"/><path d="m26.8 69.3c-.2 0-.3 0-.5-.1l-12-6.9c-.5-.3-.6-.9-.4-1.4l2.5-4.3c.1-.2.3-.4.6-.5s.5 0 .8.1l12 6.9c.5.3.6.9.4 1.4l-2.5 4.3c-.1.2-.3.4-.6.5zm-10.7-8.3 10.3 5.9 1.5-2.6-10.3-5.9z" fill="#231f20"/><path d="m17.149 57.061 12.067 6.9-2.482 4.34-12.067-6.9z" fill="#f05a28"/><path d="m26.8 69.3c-.2 0-.3 0-.5-.1l-12-6.9c-.5-.3-.6-.9-.4-1.4l2.5-4.3c.1-.2.3-.4.6-.5s.5 0 .8.1l12 6.9c.5.3.6.9.4 1.4l-2.5 4.3c-.1.2-.3.4-.6.5zm-10.7-8.3 10.3 5.9 1.5-2.6-10.3-5.9z" fill="#231f20"/><path d="m28.2 66.2-12-6.9 1.2-2.4 12.1 6.9z" fill="#b2421a"/><path d="m26.8 69.3c-.2 0-.3 0-.5-.1l-12-6.9c-.5-.3-.6-.9-.4-1.4l2.5-4.3c.1-.2.3-.4.6-.5s.5 0 .8.1l12 6.9c.5.3.6.9.4 1.4l-2.5 4.3c-.1.2-.3.4-.6.5zm-10.7-8.3 10.3 5.9 1.5-2.6-10.3-5.9z" fill="#231f20"/><path d="m63.3 61.6 1.6.6" fill="#f05a28"/><path d="m64.9 63.2c-.1 0-.3 0-.4-.1l-1.5-.7c-.5-.2-.7-.8-.5-1.3s.8-.7 1.3-.5l1.5.7c.5.2.7.8.5 1.3-.2.4-.6.6-.9.6z" fill="#231f20"/><path d="m62.2 64.2 1.5.6" fill="#f05a28"/><path d="m63.7 65.8c-.1 0-.3 0-.4-.1l-1.5-.7c-.5-.2-.7-.8-.5-1.3s.8-.7 1.3-.5l1.5.7c.5.2.7.8.5 1.3-.1.4-.5.6-.9.6z" fill="#231f20"/><path d="m66.7 53.8 1.5.6" fill="#f05a28"/><path d="m68.2 55.4c-.1 0-.3 0-.4-.1l-1.5-.7c-.5-.2-.7-.8-.5-1.3s.8-.7 1.3-.5l1.5.7c.5.2.7.8.5 1.3-.1.4-.5.6-.9.6z" fill="#231f20"/><path d="m65.6 56.4 1.5.6" fill="#f05a28"/><path d="m67.1 58c-.1 0-.3 0-.4-.1l-1.5-.7c-.5-.2-.7-.8-.5-1.3s.8-.7 1.3-.5l1.5.7c.5.2.7.8.5 1.3-.1.4-.5.6-.9.6z" fill="#231f20"/><path d="m64.5 59 1.5.6" fill="#f05a28"/><path d="m66 60.6c-.1 0-.3 0-.4-.1l-1.5-.7c-.5-.2-.7-.8-.5-1.3s.8-.7 1.3-.5l1.5.7c.5.2.7.8.5 1.3-.2.4-.5.6-.9.6z" fill="#231f20"/><path d="m43 46.2-.3.6c-.8 1.9 0 4.2 2 5.1l15.7 6.9c1.9.8 4.2 0 5.1-2l.3-.6c.8-1.9 0-4.2-2-5.1l-15.7-6.9c-2-.8-4.2 0-5.1 2z" fill="#5c6670"/><path d="m62 60.1c-.7 0-1.3-.1-1.9-.4l-15.8-6.9c-2.4-1.1-3.6-3.9-2.5-6.4l.3-.6c.8-1.8 2.5-2.9 4.4-2.9.7 0 1.3.1 1.9.4l15.8 6.9c1.2.5 2.1 1.5 2.6 2.7s.4 2.5-.1 3.7l-.3.6c-.7 1.7-2.5 2.9-4.4 2.9zm-15.5-15.2c-1.1 0-2.2.7-2.6 1.7l-.3.6c-.6 1.4 0 3.1 1.5 3.7l15.8 6.9c.4.2.7.2 1.1.2 1.1 0 2.2-.7 2.6-1.7l.3-.6c.3-.7.3-1.5 0-2.2s-.8-1.3-1.5-1.6l-15.8-6.9c-.3 0-.7-.1-1.1-.1z" fill="#231f20"/><path d="m42.9 46.4-.2.4c-.8 1.9 0 4.2 2 5.1l15.7 6.9c1.9.8 4.2 0 5.1-2l.2-.4z" fill="#434c53"/><path d="m62 60.1c-.7 0-1.3-.1-1.9-.4l-15.8-6.9c-2.4-1.1-3.6-3.9-2.5-6.4l.3-.6c.8-1.8 2.5-2.9 4.4-2.9.7 0 1.3.1 1.9.4l15.8 6.9c1.2.5 2.1 1.5 2.6 2.7s.4 2.5-.1 3.7l-.3.6c-.7 1.7-2.5 2.9-4.4 2.9zm-15.5-15.2c-1.1 0-2.2.7-2.6 1.7l-.3.6c-.6 1.4 0 3.1 1.5 3.7l15.8 6.9c.4.2.7.2 1.1.2 1.1 0 2.2-.7 2.6-1.7l.3-.6c.3-.7.3-1.5 0-2.2s-.8-1.3-1.5-1.6l-15.8-6.9c-.3 0-.7-.1-1.1-.1z" fill="#231f20"/><circle cx="47" cy="48.3" fill="#7d868c" r="5.2"/><path d="m47 54.5c-.9 0-1.7-.2-2.5-.5-3.1-1.4-4.6-5-3.2-8.1 1-2.3 3.2-3.7 5.7-3.7.9 0 1.7.2 2.5.5 3.1 1.4 4.6 5 3.2 8.1-1.1 2.2-3.3 3.7-5.7 3.7zm0-10.4c-1.7 0-3.2 1-3.8 2.5-.9 2.1 0 4.6 2.2 5.5.5.2 1.1.3 1.7.3 1.7 0 3.2-1 3.8-2.5.9-2.1 0-4.6-2.2-5.5-.6-.2-1.2-.3-1.7-.3z" fill="#231f20"/><circle cx="47" cy="48.3" fill="#5c6670" r="2.7"/><circle cx="61.8" cy="54.8" fill="#fff" r="1.2"/><path d="m57.363 63.425 5.556-12.742 4.583 1.998-5.556 12.742z" fill="#f05a28"/><path d="m61.9 66.4c-.1 0-.3 0-.4-.1l-4.6-2c-.5-.2-.7-.8-.5-1.3l5.6-12.7c.1-.2.3-.4.6-.5.2-.1.5-.1.8 0l4.6 2c.5.2.7.8.5 1.3l-5.5 12.7c-.1.2-.3.4-.6.5-.2.1-.4.1-.5.1zm-3.2-3.5 2.7 1.2 4.7-10.9-2.7-1.2z" fill="#231f20"/><path d="m65.2 51.4-5.5 12.7-2.5-1 5.5-12.7z" fill="#b2421a"/><path d="m61.9 66.4c-.1 0-.3 0-.4-.1l-4.6-2c-.5-.2-.7-.8-.5-1.3l5.6-12.7c.1-.2.3-.4.6-.5.2-.1.5-.1.8 0l4.6 2c.5.2.7.8.5 1.3l-5.5 12.7c-.1.2-.3.4-.6.5-.2.1-.4.1-.5.1zm-3.2-3.5 2.7 1.2 4.7-10.9-2.7-1.2z" fill="#231f20"/></svg>