<svg viewBox="0 0 72 72" xmlns="http://www.w3.org/2000/svg"><path d="m26.86 66a9.4 9.4 0 0 1 -2.07-18.56c.88-.21 18.9-4.72 23.16-23.38a9.4 9.4 0 0 1 18.33 4.18c-7 30.51-36.15 37.27-37.39 37.54a9.43 9.43 0 0 1 -2.03.22zm-9.28-23.77c.86-.23 21.18-5.23 25.98-26.23a10.41 10.41 0 0 1 8.44-8 9.53 9.53 0 0 0 -13.6 6.42c-4.29 18.96-22.59 23.58-23.52 23.79a9.56 9.56 0 0 0 -5.4 15.24 10.5 10.5 0 0 1 8.1-11.22z" fill="#f47939"/><path d="m16.71 58.82a10.42 10.42 0 0 1 7.85-12.37c.74-.18 18.28-4.54 22.44-22.63a10.34 10.34 0 0 1 10.1-8.09 10.44 10.44 0 0 1 6.13 2 9.47 9.47 0 0 0 -18.7-1.53c-4.93 21.61-25.74 26.8-26.72 27a9.47 9.47 0 0 0 0 18.48 10.24 10.24 0 0 1 -1.1-2.86zm39.87-42.07h.62-.1z" fill="#cc5d3f"/><path d="m17.68 58.61a9.49 9.49 0 0 0 .32 1.19 9.48 9.48 0 0 1 -.35-1.2v-.16z" fill="#cc5d3f"/><path d="m61.35 16.7a10.48 10.48 0 0 0 -11.18-10.7 10.47 10.47 0 0 0 -14.65 7.26c-4.2 18.41-22.06 22.88-22.81 23.06a10.54 10.54 0 0 0 -5.8 17 10.41 10.41 0 0 0 8.8 7.68 10.35 10.35 0 0 0 10.52 3.9c1.26-.28 31-7.2 38.15-38.29a10.35 10.35 0 0 0 -3.03-9.91zm-48.18 21.54c.83-.24 19.83-4.95 24.3-24.56a8.58 8.58 0 0 1 8.35-6.68h.45q-.47.23-.92.52c-.16.1-.31.22-.46.32l-.44.31-.45.38c-.16.13-.31.27-.46.41l-.3.32c-.16.17-.31.34-.46.51l-.25.31q-.22.29-.42.59l-.2.32c-.13.21-.25.43-.36.66l-.13.35c-.11.24-.21.49-.31.74s-.11.17-.11.26a10.65 10.65 0 0 0 -.31 1.09q-.22 1-.49 1.92c-.12.42-.25.82-.39 1.22-.07.2-.12.41-.19.61-.16.45-.33.89-.5 1.32-.05.14-.1.28-.16.42-.17.42-.35.82-.54 1.22-.07.14-.12.29-.19.43-.2.43-.42.85-.64 1.26l-.15.3c-.22.41-.45.81-.69 1.2l-.16.29c-.23.37-.46.73-.7 1.09l-.2.31c-.25.37-.51.72-.76 1.07l-.2.25c-.27.36-.55.7-.83 1l-.16.21c-.28.33-.56.65-.85 1l-.18.2c-.29.31-.57.61-.87.91l-.18.19c-.31.31-.62.6-.93.9l-.14.13c-.32.29-.64.58-1 .85l-.12.11c-.33.28-.65.54-1 .8l-.11.09-1 .76-.08.06-1 .73-1 .67h-.05a37.72 37.72 0 0 1 -10.43 4.62 10.43 10.43 0 0 0 -1.34.41l-.46.26a10.39 10.39 0 0 0 -1.21.58 10.36 10.36 0 0 0 -1.12.76l-.26.21a10.48 10.48 0 0 0 -.94.86 10.57 10.57 0 0 0 -.84 1l-.19.27a10.58 10.58 0 0 0 -.65 1.06v.08a10.56 10.56 0 0 0 -.61 1.28l-.11.31a10.45 10.45 0 0 0 -.32 1.19v.09-.18a8.59 8.59 0 0 1 6.42-10.17zm-4.43 14.16a8.48 8.48 0 0 1 6.42-10.1c.91-.21 22.4-5.52 27.47-27.75a8.52 8.52 0 0 1 .37-1.17l.08-.22a8.46 8.46 0 0 1 .52-1.05l.1-.11a8.43 8.43 0 0 1 .63-.88l.1-.13a8.45 8.45 0 0 1 .79-.8l.23-.2a8.44 8.44 0 0 1 .8-.6l.13-.09a8.43 8.43 0 0 1 1.09-.57l.22-.08a8.43 8.43 0 0 1 1-.34l.31-.11a8.53 8.53 0 0 1 1-.2 8.35 8.35 0 0 1 .87 0 8.54 8.54 0 0 1 1.91.22 8.41 8.41 0 0 1 6.49 7l-.17-.08c-.27-.15-.56-.27-.84-.39l-.41-.17a10.31 10.31 0 0 0 -1.31-.4 10.41 10.41 0 0 0 -12.46 7.82c-4.08 18-21.66 22.4-22.39 22.57a10.42 10.42 0 0 0 -8 11.73v.13c0 .17.05.34.09.51s.15.61.25.91c0 .1.07.2.11.3s.11.32.17.47a8.43 8.43 0 0 1 -5.57-6.22zm53.69-26.28c-6.82 29.88-35.43 36.52-36.63 36.79a8.34 8.34 0 0 1 -9.3-4.43 8.29 8.29 0 0 1 -.71-2c0-.12 0-.25-.06-.37v-.15a8.41 8.41 0 0 1 6.44-9.47c.79-.19 19.5-4.84 23.9-24.13.06-.25.13-.5.21-.74l.08-.21c.06-.17.12-.34.19-.5l.11-.23c.07-.15.14-.31.22-.45l.12-.23c.08-.15.17-.29.26-.43l.14-.19.28-.38.14-.17.35-.39.14-.14.41-.38.13-.12.46-.36.12-.09.57-.35h.06q.31-.18.64-.33a8.36 8.36 0 0 1 1.42-.51q.34-.08.68-.14h.23l.51-.06h.72a8.15 8.15 0 0 1 1.8.21 8.41 8.41 0 0 1 6.37 9.95z" fill="#414042"/></svg>