<svg enable-background="new 0 0 72 72" viewBox="0 0 72 72" xmlns="http://www.w3.org/2000/svg"><ellipse cx="36.4" cy="61.3" fill="#bbbdbf" rx="32" ry="5.6"/><circle cx="32.8" cy="20.9" fill="#f9e0a4" r="11.6"/><path d="m32.8 35c-7.8 0-14.1-6.3-14.1-14.1s6.3-14.1 14.1-14.1 14.1 6.3 14.1 14.1-6.4 14.1-14.1 14.1zm0-23.2c-5 0-9.1 4.1-9.1 9.1s4.1 9.1 9.1 9.1 9.1-4.1 9.1-9.1-4.1-9.1-9.1-9.1z"/><circle cx="34.4" cy="18.1" fill="#b18c62" r="1.6"/><circle cx="23.5" cy="30.8" fill="#f9e0a4" r="11.6"/><path d="m23.5 44.9c-7.8 0-14.1-6.3-14.1-14.1s6.3-14.1 14.1-14.1 14.1 6.3 14.1 14.1-6.3 14.1-14.1 14.1zm0-23.2c-5 0-9.1 4.1-9.1 9.1s4.1 9.1 9.1 9.1 9.1-4.1 9.1-9.1-4.1-9.1-9.1-9.1z"/><circle cx="47.2" cy="24" fill="#f9e0a4" r="11.6"/><path d="m47.2 38.1c-7.8 0-14.1-6.3-14.1-14.1s6.3-14.1 14.1-14.1 14.1 6.4 14.1 14.1-6.4 14.1-14.1 14.1zm0-23.2c-5 0-9.1 4.1-9.1 9.1s4.1 9.1 9.1 9.1 9.1-4.1 9.1-9.1-4.1-9.1-9.1-9.1z"/><g fill="#b18c62"><circle cx="53.1" cy="21.3" r="1.6"/><circle cx="42.4" cy="21.6" r="1.6"/><circle cx="23.3" cy="29.8" r="1.6"/></g><circle cx="48.9" cy="35.1" fill="#f9e0a4" r="11.6"/><path d="m48.9 49.2c-7.8 0-14.1-6.3-14.1-14.1s6.3-14.1 14.1-14.1 14.1 6.3 14.1 14.1c-.1 7.8-6.4 14.1-14.1 14.1zm0-23.2c-5 0-9.1 4.1-9.1 9.1s4.1 9.1 9.1 9.1 9.1-4.1 9.1-9.1c-.1-5-4.1-9.1-9.1-9.1z"/><circle cx="52.3" cy="30.2" fill="#b18c62" r="1.6"/><path d="m58.4 23.9c-2.7-2.3-6.1-3.5-9.6-3.5-4.4 0-8.5 2-11.4 5.4-1.1 1.3-.9 3.3.4 4.4.6.5 1.3.7 2 .7.9 0 1.8-.4 2.4-1.1 1.4-1.6 3.2-2.7 5.3-3 .4 0 .8-.1 1 .4.1.5.5.9 1 .9.2 0 .4-.1.5-.1v.8c0 .6.5 1 1 1 .6 0 1-.5 1-1v-.4c0-.1 0-.6.5-.7.6 0 1.1.6 1.6 1 1.3 1.1 3.3 1 4.4-.3 1.4-1.4 1.2-3.3-.1-4.5z" fill="#f9ae41"/><circle cx="35.2" cy="37.4" fill="#f9e0a4" r="11.6"/><path d="m35.2 51.5c-7.8 0-14.1-6.3-14.1-14.1s6.3-14.1 14.1-14.1 14.1 6.3 14.1 14.1-6.3 14.1-14.1 14.1zm0-23.1c-5 0-9.1 4.1-9.1 9.1s4.1 9.1 9.1 9.1 9.1-4.1 9.1-9.1c0-5.1-4.1-9.1-9.1-9.1z"/><g fill="#b18c62"><circle cx="33.7" cy="31.6" r="1.6"/><circle cx="46.5" cy="18.1" r="1.6"/><circle cx="30.4" cy="15.4" r="1.6"/><circle cx="17.9" cy="29.3" r="1.6"/><circle cx="23" cy="24.9" r="1.6"/></g><path d="m43.9 11.3c-2.8-3.2-6.8-5.1-11.1-5.1-6.9 0-12.8 4.8-14.4 11.4-.4 1.7.5 3.5 2.1 3.9.3.1.6.1.9.1 1.4 0 2.7-1 3.1-2.5.7-3.1 3-5.5 5.9-6.4.7-.2 1.4.4 1.4 1.1v.8c0 .6.5 1 1 1 .6 0 1-.5 1-1v-.6c0-.8.8-1.4 1.6-1.1 1.4.5 2.7 1.4 3.7 2.6 1.2 1.5 3.5 1.5 4.8 0 1.2-1.2 1-3 0-4.2zm-1 13.6c-2.3-1.4-5-2.2-7.7-2.2-2.3 0-4.6.6-6.7 1.6-1.5.8-2.1 2.7-1.4 4.2.8 1.5 2.7 2.2 4.2 1.4.9-.5 2.3-.8 2.6-.8s.3.6.3.6c0 .6.5 1 1 1 .6 0 1-.5 1-1 0 0 0-.6.2-.6s2.1.5 3.1 1.2c.5.3 1.1.5 1.6.5 1.1 0 2.1-.5 2.7-1.5 1-1.6.6-3.5-.9-4.4z" fill="#f9ae41"/><circle cx="19.4" cy="29.2" fill="#faaf40" r="1"/><circle cx="32.9" cy="17.4" fill="#faaf40" r="1"/><path d="m34.3 21.6c-2.8-3.3-6.9-5.2-11.2-5.2-6.2 0-11.8 3.9-13.9 9.8-.5 1.4 0 3.1 1.4 3.8.5.3 1 .4 1.6.4 1.3 0 2.5-.8 3-2.1s1.2-2.4 2.2-3.3c.5-.4 1-.5 1.1.1v1.1c0 .6.5 1 1 1s1-.5 1-1v-2.2c0-.6.4-1.1 1-1.2 1.9-.4 4.1-.1 6.1 1.1.8.5 1.5 1.1 2.1 1.9 1.2 1.4 3.3 1.5 4.7.2 1.1-1.2 1-3.1-.1-4.4zm25.3-5.5c-2.7-4.2-7.3-6.8-12.4-6.8-4.3 0-8.4 1.9-11.2 5.1-1 1.2-1.1 2.9-.1 4.1 1.3 1.5 3.6 1.5 4.8 0l.9-.9c.4-.3 1.2-.5 1.2 0v1.3c0 .6.5 1 1 1 .6 0 1-.5 1-1v-1c.2.3.5.4.8.4.6 0 1-.5 1-1v-1c.1-.2.2-.5.6-.6.3 0 .7 0 1 .1.5.1.8.5.8 1v1.7c0 .6.5 1 1 1 .6 0 1-.5 1-1v-.8c0-.4.2-.8.6-.5 1 .7 1.9 1.5 2.5 2.6.6 1 1.6 1.5 2.7 1.5.6 0 1.2-.2 1.8-.6 1.7-1.1 1.9-3.2 1-4.6z" fill="#f9ae41"/><path d="m61.7 34.9h-54.6l7.3 25.1h44.1l7.4-25.1z" fill="#be1e2d"/><path d="m47.7 52.6c-15 0-28-7.3-33.7-17.7h-6.9l7.3 25.1h44.1l2.8-9.5c-4.2 1.4-8.8 2.1-13.6 2.1z" fill="#821429"/><text fill="#faaf40" font-family="'VAGRounded-Black'" font-size="7.301" letter-spacing="1" transform="translate(19.607 50.073)">NACHOS</text><path d="m58.5 62.5h-44.1c-1.1 0-2.1-.7-2.4-1.8l-7.3-25.1c-.2-.8-.1-1.6.4-2.2s1.2-1 2-1h58.8c.8 0 1.5.4 2 1s.6 1.4.4 2.2l-7.4 25.1c-.3 1.1-1.3 1.8-2.4 1.8zm-42.2-5h40.3l5.9-20.1h-52.1z"/></svg>