<svg enable-background="new 0 0 72 72" viewBox="0 0 72 72" xmlns="http://www.w3.org/2000/svg"><ellipse cx="36.4" cy="64.6" fill="#bbbdbf" rx="26.2" ry="3.9"/><path d="m15.3 18.3 6.8 45.1h27.8l6.8-45.1z" fill="#faaf40"/><circle cx="49.3" cy="22.1" fill="#fff" r="1.6"/><path d="m15.9 22.2 6.3 41.3h27.7l2.3-15.3c-16.5-1-30.5-11.5-36.3-26z" fill="#c38a31"/><g fill="#fff"><circle cx="32.9" cy="54.4" r="1.6"/><circle cx="27.6" cy="50.8" r="1.6"/><circle cx="45.7" cy="27.4" r="1.6"/><path d="m36.5 38.7-9.5-5.3 9.5-5.4 9.6 5.4z"/></g><path d="m36.5 39.9-11.6-6.5 11.6-6.5 11.6 6.5zm-7.5-6.5 7.5 4.2 7.5-4.2-7.5-4.2zm-11.5-1h9.5v2h-9.5zm27.8 0h9.5v2h-9.5z" fill="#be1e2d"/><circle cx="42.7" cy="18.9" fill="#fff" r="1.6"/><path d="m63.8 3.7h-55.6c-1.4 0-2.5 1.1-2.5 2.5s1.1 2.5 2.5 2.5h3.1l8.3 55.1c.2 1.2 1.3 2.1 2.5 2.1h27.8c1.2 0 2.2-.9 2.4-2l8.4-55.2h3.1c1.4 0 2.5-1.1 2.5-2.5s-1.1-2.5-2.5-2.5zm-15.1 50.9h-25.4l-5.8-38.3h36.9zm-24.4 6.3-.6-4.3h24.7l-.6 4.3zm30.4-46.6h-37.4l-.8-5.6h39.2z" fill="#231f20"/></svg>