<svg height="72" viewBox="0 0 72 72" width="72" xmlns="http://www.w3.org/2000/svg" xmlns:xlink="http://www.w3.org/1999/xlink"><clipPath id="a"><path d="m34.627 63.163c9.9 0 11.997 2.398 15.262 2.398h3.947c.66 0 1.195-.535 1.195-1.196 0-8.343-2.348-31.425-4.031-38.856-2.441-10.765-8.299-13.765-16.373-13.765s-13.932 3-16.372 13.765c-1.685 7.432-4.032 30.514-4.032 38.856 0 .661.535 1.196 1.195 1.196h3.947c3.265.001 5.362-2.398 15.262-2.398z"/></clipPath><path d="m59.234 49.901h-1.06c-2.1 0-3.802 1.702-3.802 3.803 0 0-3.15 8.418-3.15 10.862 0 3.894 9.865-2.262 9.865-6.834.001-.09-1.853-7.831-1.853-7.831z" fill="#d0d2d3" stroke="#001629" stroke-linecap="round" stroke-linejoin="round" stroke-width="3"/><g fill="#001629" stroke="#001629" stroke-linecap="round" stroke-linejoin="round" stroke-width="3"><path d="m49.692 50.548c0 2.324 1.884 4.208 4.209 4.208 2.324 0 4.208-1.884 4.208-4.208 0-2.73-4.939-18.263-7.166-23.253m4.688 12.695s2.6 7.665 2.696 8.146l-6.837 2.696-.674-10.747m-.581-15.385s5.939 14.326 6.479 16.216l-6.508 2.429m-30.701 7.203c0 2.324-1.884 4.208-4.208 4.208s-4.209-1.884-4.209-4.208c0-2.73 4.939-18.263 7.167-23.253m-4.689 12.695s-2.6 7.665-2.695 8.146c-.097.481 6.837 2.696 6.837 2.696l.674-10.747m.58-15.385s-5.812 14.326-6.352 16.216l6.381 2.429"/><path d="m34.627 63.163c9.9 0 11.997 2.398 15.262 2.398h3.947c.66 0 1.195-.535 1.195-1.196 0-8.343-2.348-31.425-4.031-38.856-2.441-10.765-8.299-13.765-16.373-13.765s-13.932 3-16.372 13.765c-1.685 7.432-4.032 30.514-4.032 38.856 0 .661.535 1.196 1.195 1.196h3.947c3.265.001 5.362-2.398 15.262-2.398z"/></g><path d="m46.508 22.062v-6.376c0-1.961-.908-4.431-4.169-6.787-3.473-2.508-7.061-2.38-7.71-2.38-.653 0-4.239-.128-7.713 2.38-3.26 2.356-4.17 4.826-4.17 6.787v6.376" fill="#fff" stroke="#001629" stroke-width="3"/><path d="m49.692 50.548c0 2.324 1.884 4.208 4.209 4.208 2.324 0 4.208-1.884 4.208-4.208 0-2.73-4.939-18.263-7.166-23.253" fill="#fff" stroke="#001629" stroke-width=".8"/><path d="m55.631 39.99s2.6 7.665 2.696 8.146l-6.837 2.696-.674-10.747" fill="#006bc0" stroke="#001629" stroke-width=".8"/><path d="m50.235 24.7s5.939 14.326 6.479 16.216l-6.508 2.429" fill="#f5f5f6" stroke="#001629" stroke-width=".8"/><path d="m54.822 41.26-2.519-8.82" fill="none" stroke="#007dc5" stroke-miterlimit="10" stroke-width=".18"/><path d="m19.505 50.548c0 2.324-1.884 4.208-4.208 4.208s-4.209-1.884-4.209-4.208c0-2.73 4.939-18.263 7.167-23.253" fill="#fff" stroke="#001629" stroke-width=".8"/><path d="m13.566 39.99s-2.6 7.665-2.695 8.146c-.097.481 6.837 2.696 6.837 2.696l.674-10.747" fill="#006bc0" stroke="#001629" stroke-width=".8"/><path d="m18.962 24.7s-5.812 14.326-6.352 16.216l6.381 2.429" fill="#f5f5f6" stroke="#001629" stroke-width=".8"/><path d="m34.627 63.163c9.9 0 11.997 2.398 15.262 2.398h3.947c.66 0 1.195-.535 1.195-1.196 0-8.343-2.348-31.425-4.031-38.856-2.441-10.765-8.299-13.765-16.373-13.765s-13.932 3-16.372 13.765c-1.685 7.432-4.032 30.514-4.032 38.856 0 .661.535 1.196 1.195 1.196h3.947c3.265.001 5.362-2.398 15.262-2.398z" fill="#f5f5f6"/><g clip-path="url(#a)" fill="none" stroke="#007dc5" stroke-miterlimit="10" stroke-width=".18"><path d="m34.627 11.744c-8.074 0-13.932 3-16.372 13.765-1.685 7.432-4.032 30.514-4.032 38.856v3.715m20.404-56.336c-7.124 0-12.293 3-14.445 13.765-1.487 7.432-3.559 30.514-3.559 38.856v3.715m18.004-56.336c-6.175 0-10.653 3-12.52 13.765-1.289 7.432-3.084 30.514-3.084 38.856v3.715m15.604-56.336c-5.225 0-9.015 3-10.594 13.765-1.09 7.432-2.609 30.514-2.609 38.856v3.715m13.203-56.336c-4.274 0-7.376 3-8.668 13.765-.892 7.432-2.135 30.514-2.135 38.856v3.715m10.803-56.336c-3.324 0-5.736 3-6.741 13.765-.694 7.432-1.66 30.514-1.66 38.856v3.715m8.401-56.336c-2.375 0-4.098 3-4.814 13.765-.496 7.432-1.187 30.514-1.187 38.856v3.715m6.001-56.336c-1.425 0-2.459 3-2.889 13.765-.298 7.432-.712 30.514-.712 38.856v3.715m3.601-56.336c-.475 0-.819 3-.963 13.765-.1 7.432-.237 30.514-.237 38.856v3.715m1.2-56.336c.475 0 .819 3 .964 13.765.099 7.432.236 30.514.236 38.856v3.715m-1.2-56.336c1.425 0 2.459 3 2.89 13.765.297 7.432.711 30.514.711 38.856v3.715m-3.601-56.336c2.375 0 4.098 3 4.816 13.765.494 7.432 1.185 30.514 1.185 38.856v3.715m-6.001-56.336c3.324 0 5.736 3 6.742 13.765.693 7.432 1.66 30.514 1.66 38.856v3.715m-8.402-56.336c4.274 0 7.375 3 8.668 13.765.892 7.432 2.134 30.514 2.134 38.856v3.715m-10.802-56.336c5.225 0 9.015 3 10.595 13.765 1.089 7.432 2.608 30.514 2.608 38.856v3.715m-13.203-56.336c6.175 0 10.653 3 12.521 13.765 1.287 7.432 3.083 30.514 3.083 38.856v3.715m-15.604-56.336c7.124 0 12.293 3 14.447 13.765 1.485 7.432 3.557 30.514 3.557 38.856v3.715m-18.004-56.336c8.074 0 13.932 3 16.373 13.765 1.684 7.432 4.031 30.514 4.031 38.856v3.715"/></g><ellipse cx="34.627" cy="66.549" fill="#001629" rx="23.25" ry=".82"/><path d="m21.533 65.093c-1.08-1.08-1.621-1.35-7.223-1.35v1.215l.54.54h5.603zm26.188 0c1.08-1.08 1.621-1.35 7.223-1.35v1.215l-.54.54h-5.603z" fill="#006bc0"/><path d="m34.627 63.163c9.9 0 11.997 2.398 15.262 2.398h3.947c.66 0 1.195-.535 1.195-1.196 0-8.343-2.348-31.425-4.031-38.856-2.441-10.765-8.299-13.765-16.373-13.765s-13.932 3-16.372 13.765c-1.685 7.432-4.032 30.514-4.032 38.856 0 .661.535 1.196 1.195 1.196h3.947c3.265.001 5.362-2.398 15.262-2.398z" fill="none" stroke="#001629" stroke-width=".8"/><path d="m34.627 13.349c8.195 0 11.881 3.919 11.881 8.583 0 4.662-11.881 9.988-11.881 9.988s-11.881-5.326-11.881-9.988c0-4.664 3.686-8.583 11.881-8.583z" fill="#fff"/><path d="m34.627 13.349c8.195 0 11.881 3.919 11.881 8.583 0 4.662-11.881 9.988-11.881 9.988s-11.881-5.326-11.881-9.988c0-4.664 3.686-8.583 11.881-8.583z" fill="none" stroke="#001629" stroke-width=".8"/><path d="m46.508 22.062v-6.376c0-1.961-.908-4.431-4.169-6.787-3.473-2.508-7.061-2.38-7.71-2.38-.653 0-4.239-.128-7.713 2.38-3.26 2.356-4.17 4.826-4.17 6.787v6.376" fill="#fff"/><path d="m45.023 17.917h1.484v-2.231c0-1.961-.908-4.431-4.169-6.787-3.473-2.508-7.061-2.38-7.71-2.38-.653 0-4.239-.128-7.713 2.38-3.26 2.356-4.17 4.826-4.17 6.787v2.231z" fill="#006bc0"/><path d="m36.225 12.06c-.731.73-1.916.73-2.646 0s-.73-1.915 0-2.646 1.915-.73 2.646 0" fill="none" stroke="#f5f5f6" stroke-width="1.44"/><path d="m36.225 12.06c-.731.73-1.916.73-2.646 0s-.73-1.915 0-2.646 1.915-.73 2.646 0" fill="none" stroke="#ed1c24" stroke-width=".99"/><path d="m46.508 22.062v-6.376c0-1.961-.908-4.431-4.169-6.787-3.473-2.508-7.061-2.38-7.71-2.38-.653 0-4.239-.128-7.713 2.38-3.26 2.356-4.17 4.826-4.17 6.787v6.376" fill="none" stroke="#001629" stroke-width=".8"/><path d="m36.727 27.197-3.043.479s1.705 1.22 3.043-.479z" fill="#dce7e8"/><path d="m48.041 62.246s-4.851.622-13.414.622l-13.414-.622" fill="none" stroke="#001629" stroke-linecap="round" stroke-linejoin="round" stroke-width=".8"/><path d="m31.846 55.739c.637 0 1.152.065 1.152.702v.9c0 .636-.516.702-1.152.702" fill="none" stroke="#bdc2c5" stroke-miterlimit="10" stroke-width=".495"/><path d="m54.748 55.971s-7.276.934-20.121.934c-12.846 0-20.121-.934-20.121-.934" fill="none" stroke="#001629" stroke-width="1.8"/><path d="m46.57 17.917h-23.83" fill="none" stroke="#001629" stroke-width=".8"/><path d="m34.896 31.92c-2.893 1.42-3.626 3.397-3.626 5.558v18.87" fill="none" stroke="#001629" stroke-width=".45"/><path d="m25.875 55.075v2.88m17.504-2.88v2.88" fill="none" stroke="#f5f5f6" stroke-width=".8"/><path d="m45.148 18.527c0-3.585-3.467-4.016-10.49-4.016-7.028 0-10.496.431-10.496 4.016" fill="#dce7e8" stroke="#002d5c" stroke-width="1.35"/><path d="m28.763 19.982c-.285 1.541-1.075 2.785-1.767 2.78-.692-.006-1.021-1.257-.738-2.798.284-1.541 1.074-2.786 1.766-2.78.691.004 1.021 1.257.739 2.798z" fill="#001629"/><path d="m27.357 19.232c-.102.381-.266.688-.367.688s-.103-.308-.001-.688c.101-.381.266-.688.368-.688s.102.308 0 .688z" fill="#8099a7"/><path d="m40.492 19.982c.284 1.541 1.074 2.785 1.766 2.78.691-.006 1.021-1.257.737-2.798-.283-1.541-1.074-2.786-1.765-2.78-.691.004-1.022 1.257-.738 2.798z" fill="#001629"/><path d="m40.709 19.232c.012.381.105.688.207.688s.174-.308.162-.688c-.013-.381-.105-.688-.207-.688s-.175.308-.162.688z" fill="#8099a7"/><g stroke="#001629"><g fill="none"><path d="m37.722 24.02c-1.71 1.71-4.48 1.71-6.19 0" stroke-linecap="round" stroke-linejoin="round" stroke-width=".45"/><g stroke-width=".225"><path d="m34.309 6.519v7.776m.636-7.776v.089"/><path d="m34.945 6.979v7.041" stroke-dasharray=".1853 .3706"/><path d="m34.945 14.205v.09"/></g><circle cx="33.597" cy="36.46" r=".81" stroke-miterlimit="10" stroke-width=".225"/><circle cx="33.597" cy="44.408" r=".81" stroke-miterlimit="10" stroke-width=".225"/><circle cx="33.597" cy="52.357" r=".81" stroke-miterlimit="10" stroke-width=".225"/></g><path d="m52.278 65.65c-1.651-.367-2.691-2.002-2.325-3.652l4.641-6.248c.367-1.65-.48-3.606 1.17-3.24l-.834 2.85c1.65.366 2.691 2.002 2.324 3.652" fill="#736357" stroke-width=".8"/><circle cx="53.159" cy="59.797" fill="#fff" r="3.78" stroke-width=".8"/></g><path d="m50.57 61.517.049-.206.04-.199-.206-.041-.197-.047m.961-.023.006-.21-.003-.201-.212.002-.203-.006m.933-.227s-.072-.402-.091-.405c.012.014-.401.088-.401.088m.865-.421c.016-.002-.169-.381-.184-.378.011.011-.354.186-.364.175m.757-.599c.018-.004-.27-.332-.27-.332s-.293.258-.31.25m.612-.746-.171-.139-.17-.127-.12.161-.122.149m.425-.858-.195-.1-.19-.088-.086.184-.089.173m4.159.745-.049.206-.04.199.207.041.196.047m-.961.022-.006.21.003.201.212-.002.204.006m-.934.228s.072.402.091.404c-.012-.014.401-.088.401-.088m-.865.422c-.015.002.169.381.184.378-.011-.011.354-.185.364-.175m-.757.598c-.018.004.27.332.27.332s.294-.258.31-.25m-.611.747.171.139.17.127.12-.161.122-.149m-.426.858.195.1.19.088.086-.184.089-.173" style="stroke:#f48b72;stroke-width:.261;stroke-linecap:round;stroke-linejoin:round;stroke-miterlimit:10;fill:none"/><path d="m59.234 49.901h-1.06c-2.1 0-3.802 1.702-3.802 3.803 0 0-3.15 8.418-3.15 10.862 0 3.894 9.865-2.262 9.865-6.834.001-.09-1.853-7.831-1.853-7.831z" fill="#998675"/><path d="m59.598 51.485h-1.652c-.812 0-1.472.659-1.472 1.472s.659 1.471 1.472 1.471l1.799-1.799" fill="#fff" stroke="#001629" stroke-width=".8"/><g fill="none"><path d="m59.234 49.901h-1.06c-2.1 0-3.802 1.702-3.802 3.803 0 0-3.15 8.418-3.15 10.862 0 3.894 9.865-2.262 9.865-6.834.001-.09-1.853-7.831-1.853-7.831z" stroke="#001629" stroke-width=".8"/><path d="m59.08 49.901c-2.1 0-3.803 1.702-3.803 3.803 0 0-3.149 9.317-3.149 11.762" stroke="#001629" stroke-dasharray=".18 .36" stroke-width=".225"/><path d="m60.65 50.896.48 2.221" stroke="#fff" stroke-width=".8"/><path d="m60.037 53.879-2.768 2.768c-1.216 1.215-2.038 1.434-2.973 1.434" stroke="#001629" stroke-dasharray=".18 .36" stroke-width=".225"/><path d="m60.037 54.521-2.768 2.768c-1.216 1.215-1.822 1.511-3.117 1.511" stroke="#001629" stroke-width=".225"/><path d="m55.591 59.087-.82 5.524m2.762-6.89 1.694 3.515" stroke="#001629" stroke-dasharray=".18 .36" stroke-width=".225"/><path d="m57.047 57.527 1.637 4.653m-3.741-3.38-.863 6.473" stroke="#001629" stroke-width=".225"/></g><path d="m36.075 5.394c0 .421-.341.762-.763.762h-1.371c-.422 0-.763-.341-.763-.762s.341-.763.763-.763h1.371c.422 0 .763.342.763.763zm18.36 46.872-2.142 3.156 1.521.057.559-1.775z" fill="#001629"/><path d="m13.059 56.768 1.008.104v.104s-.973.799-.973 1.146h-.521l.349-1.331z" fill="#fff"/><path d="m14.453 41.26 2.521-8.82" fill="none" stroke="#007dc5" stroke-miterlimit="10" stroke-width=".18"/><path d="m31.846 58.044h-.307c-.637 0-1.152-.066-1.152-.702v-.9c0-.637.516-.702 1.152-.702h.307" fill="none" stroke="#bdc2c5" stroke-miterlimit="10" stroke-width=".495"/><path d="m43.228 44.838.847-.859h1.44l.267-.266v-1.936l-.255-.266h-.483l-.254.266v.956h-1.562v-1.488l1.017-1.017h2.081l1.017 1.017v3.267l-.859.859h-1.439l-.267.266v1.573h2.554v1.367h-4.103v-3.739zm5.66.654 1.355-3.848h-2.505v-1.416h4.162v1.077l-1.464 4.199v3.073h-1.549v-3.085z" fill="#ed1c24"/></svg>