<svg id="svg" version="1.1" xmlns="http://www.w3.org/2000/svg" xmlns:xlink="http://www.w3.org/1999/xlink" width="400" height="400" viewBox="0, 0, 400,400"><g id="svgg"><path id="path0" d="M184.880 28.880 C 184.184 29.576,184.184 102.424,184.880 103.120 C 185.568 103.808,212.432 103.808,213.120 103.120 C 213.816 102.424,213.816 29.576,213.120 28.880 C 212.432 28.192,185.568 28.192,184.880 28.880 M205.226 34.414 C 206.314 34.996,206.455 94.288,205.371 95.371 C 204.318 96.425,190.986 96.295,190.414 95.226 C 189.653 93.804,189.860 35.397,190.629 34.629 C 191.380 33.877,203.880 33.693,205.226 34.414 M70.893 68.867 C 70.622 69.138,70.400 69.573,70.400 69.833 C 70.400 70.094,70.027 70.404,69.570 70.524 C 69.114 70.643,68.647 71.097,68.533 71.533 C 68.419 71.969,67.969 72.419,67.533 72.533 C 67.097 72.647,66.647 73.097,66.533 73.533 C 66.419 73.969,65.969 74.419,65.533 74.533 C 65.097 74.647,64.647 75.097,64.533 75.533 C 64.419 75.969,63.969 76.419,63.533 76.533 C 63.097 76.647,62.653 77.076,62.546 77.486 C 62.438 77.896,61.957 78.404,61.475 78.616 C 60.129 79.207,60.129 86.793,61.475 87.384 C 61.957 87.596,62.438 88.104,62.546 88.514 C 62.653 88.924,63.097 89.353,63.533 89.467 C 63.969 89.581,64.419 90.031,64.533 90.467 C 64.647 90.903,65.097 91.353,65.533 91.467 C 65.969 91.581,66.419 92.031,66.533 92.467 C 66.647 92.903,67.097 93.353,67.533 93.467 C 67.969 93.581,68.419 94.031,68.533 94.467 C 68.647 94.903,69.097 95.353,69.533 95.467 C 69.969 95.581,70.419 96.031,70.533 96.467 C 70.647 96.903,71.097 97.353,71.533 97.467 C 71.969 97.581,72.419 98.031,72.533 98.467 C 72.647 98.903,73.097 99.353,73.533 99.467 C 73.969 99.581,74.419 100.031,74.533 100.467 C 74.647 100.903,75.097 101.353,75.533 101.467 C 75.969 101.581,76.419 102.031,76.533 102.467 C 76.647 102.903,77.097 103.353,77.533 103.467 C 77.969 103.581,78.419 104.031,78.533 104.467 C 78.647 104.903,79.097 105.353,79.533 105.467 C 79.969 105.581,80.419 106.031,80.533 106.467 C 80.647 106.903,81.097 107.353,81.533 107.467 C 81.969 107.581,82.419 108.031,82.533 108.467 C 82.647 108.903,83.097 109.353,83.533 109.467 C 83.969 109.581,84.419 110.031,84.533 110.467 C 84.647 110.903,85.097 111.353,85.533 111.467 C 85.969 111.581,86.419 112.031,86.533 112.467 C 86.647 112.903,87.097 113.353,87.533 113.467 C 87.969 113.581,88.419 114.031,88.533 114.467 C 88.647 114.903,89.097 115.353,89.533 115.467 C 89.969 115.581,90.419 116.031,90.533 116.467 C 90.647 116.903,91.097 117.353,91.533 117.467 C 91.969 117.581,92.419 118.031,92.533 118.467 C 92.647 118.903,93.097 119.353,93.533 119.467 C 93.969 119.581,94.419 120.031,94.533 120.467 C 94.647 120.903,95.097 121.353,95.533 121.467 C 95.969 121.581,96.419 122.031,96.533 122.467 C 96.647 122.903,97.097 123.353,97.533 123.467 C 97.969 123.581,98.419 124.031,98.533 124.467 C 98.647 124.903,99.097 125.353,99.533 125.467 C 99.969 125.581,100.419 126.031,100.533 126.467 C 100.647 126.903,101.097 127.353,101.533 127.467 C 101.969 127.581,102.419 128.031,102.533 128.467 C 102.647 128.903,103.097 129.353,103.533 129.467 C 103.969 129.581,104.419 130.031,104.533 130.467 C 104.647 130.903,105.076 131.347,105.486 131.454 C 105.896 131.562,106.404 132.043,106.616 132.525 C 107.199 133.853,112.801 133.853,113.384 132.525 C 113.596 132.043,114.104 131.562,114.514 131.454 C 114.924 131.347,115.355 130.895,115.471 130.451 C 115.633 129.831,116.071 129.614,117.341 129.521 C 118.596 129.429,119.093 129.187,119.384 128.525 C 119.596 128.043,120.104 127.562,120.514 127.454 C 120.924 127.347,121.353 126.903,121.467 126.467 C 121.581 126.031,122.031 125.581,122.467 125.467 C 122.903 125.353,123.347 124.924,123.454 124.514 C 123.562 124.104,124.043 123.596,124.525 123.384 C 125.871 122.793,125.871 115.207,124.525 114.616 C 124.043 114.404,123.562 113.896,123.454 113.486 C 123.347 113.076,122.903 112.647,122.467 112.533 C 122.031 112.419,121.581 111.969,121.467 111.533 C 121.353 111.097,120.903 110.647,120.467 110.533 C 120.031 110.419,119.581 109.969,119.467 109.533 C 119.353 109.097,118.903 108.647,118.467 108.533 C 118.031 108.419,117.581 107.969,117.467 107.533 C 117.353 107.097,116.903 106.647,116.467 106.533 C 116.031 106.419,115.581 105.969,115.467 105.533 C 115.353 105.097,114.903 104.647,114.467 104.533 C 114.031 104.419,113.581 103.969,113.467 103.533 C 113.353 103.097,112.903 102.647,112.467 102.533 C 112.031 102.419,111.581 101.969,111.467 101.533 C 111.353 101.097,110.903 100.647,110.467 100.533 C 110.031 100.419,109.581 99.969,109.467 99.533 C 109.353 99.097,108.903 98.647,108.467 98.533 C 108.031 98.419,107.581 97.969,107.467 97.533 C 107.353 97.097,106.903 96.647,106.467 96.533 C 106.031 96.419,105.581 95.969,105.467 95.533 C 105.353 95.097,104.903 94.647,104.467 94.533 C 104.031 94.419,103.581 93.969,103.467 93.533 C 103.353 93.097,102.903 92.647,102.467 92.533 C 102.031 92.419,101.581 91.969,101.467 91.533 C 101.353 91.097,100.903 90.647,100.467 90.533 C 100.031 90.419,99.581 89.969,99.467 89.533 C 99.353 89.097,98.903 88.647,98.467 88.533 C 98.031 88.419,97.581 87.969,97.467 87.533 C 97.353 87.097,96.903 86.647,96.467 86.533 C 96.031 86.419,95.581 85.969,95.467 85.533 C 95.353 85.097,94.903 84.647,94.467 84.533 C 94.031 84.419,93.581 83.969,93.467 83.533 C 93.353 83.097,92.903 82.647,92.467 82.533 C 92.031 82.419,91.581 81.969,91.467 81.533 C 91.353 81.097,90.903 80.647,90.467 80.533 C 90.031 80.419,89.581 79.969,89.467 79.533 C 89.353 79.097,88.903 78.647,88.467 78.533 C 88.031 78.419,87.581 77.969,87.467 77.533 C 87.353 77.097,86.903 76.647,86.467 76.533 C 86.031 76.419,85.581 75.969,85.467 75.533 C 85.353 75.097,84.903 74.647,84.467 74.533 C 84.031 74.419,83.581 73.969,83.467 73.533 C 83.353 73.097,82.903 72.647,82.467 72.533 C 82.031 72.419,81.581 71.969,81.467 71.533 C 81.353 71.097,80.924 70.653,80.514 70.546 C 80.104 70.438,79.596 69.957,79.384 69.475 C 78.923 68.424,71.844 67.916,70.893 68.867 M314.893 68.867 C 314.622 69.138,314.400 69.573,314.400 69.833 C 314.400 70.094,314.027 70.404,313.570 70.524 C 313.114 70.643,312.647 71.097,312.533 71.533 C 312.419 71.969,311.969 72.419,311.533 72.533 C 311.097 72.647,310.647 73.097,310.533 73.533 C 310.419 73.969,309.969 74.419,309.533 74.533 C 309.097 74.647,308.647 75.097,308.533 75.533 C 308.419 75.969,307.969 76.419,307.533 76.533 C 307.097 76.647,306.647 77.097,306.533 77.533 C 306.419 77.969,305.969 78.419,305.533 78.533 C 305.097 78.647,304.647 79.097,304.533 79.533 C 304.419 79.969,303.969 80.419,303.533 80.533 C 303.097 80.647,302.647 81.097,302.533 81.533 C 302.419 81.969,301.969 82.419,301.533 82.533 C 301.097 82.647,300.647 83.097,300.533 83.533 C 300.419 83.969,299.969 84.419,299.533 84.533 C 299.097 84.647,298.647 85.097,298.533 85.533 C 298.419 85.969,297.969 86.419,297.533 86.533 C 297.097 86.647,296.647 87.097,296.533 87.533 C 296.419 87.969,295.969 88.419,295.533 88.533 C 295.097 88.647,294.647 89.097,294.533 89.533 C 294.419 89.969,293.969 90.419,293.533 90.533 C 293.097 90.647,292.647 91.097,292.533 91.533 C 292.419 91.969,291.969 92.419,291.533 92.533 C 291.097 92.647,290.647 93.097,290.533 93.533 C 290.419 93.969,289.969 94.419,289.533 94.533 C 289.097 94.647,288.647 95.097,288.533 95.533 C 288.419 95.969,287.969 96.419,287.533 96.533 C 287.097 96.647,286.647 97.097,286.533 97.533 C 286.419 97.969,285.969 98.419,285.533 98.533 C 285.097 98.647,284.647 99.097,284.533 99.533 C 284.419 99.969,283.969 100.419,283.533 100.533 C 283.097 100.647,282.647 101.097,282.533 101.533 C 282.419 101.969,281.969 102.419,281.533 102.533 C 281.097 102.647,280.647 103.097,280.533 103.533 C 280.419 103.969,279.969 104.419,279.533 104.533 C 279.097 104.647,278.647 105.097,278.533 105.533 C 278.419 105.969,277.969 106.419,277.533 106.533 C 277.097 106.647,276.647 107.097,276.533 107.533 C 276.419 107.969,275.969 108.419,275.533 108.533 C 275.097 108.647,274.647 109.097,274.533 109.533 C 274.419 109.969,273.969 110.419,273.533 110.533 C 273.097 110.647,272.647 111.097,272.533 111.533 C 272.419 111.969,271.969 112.419,271.533 112.533 C 271.097 112.647,270.653 113.076,270.546 113.486 C 270.438 113.896,269.957 114.404,269.475 114.616 C 268.659 114.974,268.600 115.269,268.600 119.000 C 268.600 122.731,268.659 123.026,269.475 123.384 C 269.957 123.596,270.438 124.104,270.546 124.514 C 270.653 124.924,271.105 125.355,271.549 125.471 C 272.169 125.633,272.386 126.071,272.479 127.341 C 272.571 128.596,272.813 129.093,273.475 129.384 C 273.957 129.596,274.438 130.104,274.546 130.514 C 274.653 130.924,275.076 131.347,275.486 131.454 C 275.896 131.562,276.404 132.043,276.616 132.525 C 276.962 133.313,277.298 133.400,280.000 133.400 C 282.702 133.400,283.038 133.313,283.384 132.525 C 283.596 132.043,284.104 131.562,284.514 131.454 C 284.924 131.347,285.353 130.903,285.467 130.467 C 285.581 130.031,286.031 129.581,286.467 129.467 C 286.903 129.353,287.353 128.903,287.467 128.467 C 287.581 128.031,288.031 127.581,288.467 127.467 C 288.903 127.353,289.353 126.903,289.467 126.467 C 289.581 126.031,290.031 125.581,290.467 125.467 C 290.903 125.353,291.353 124.903,291.467 124.467 C 291.581 124.031,292.031 123.581,292.467 123.467 C 292.903 123.353,293.353 122.903,293.467 122.467 C 293.581 122.031,294.031 121.581,294.467 121.467 C 294.903 121.353,295.353 120.903,295.467 120.467 C 295.581 120.031,296.031 119.581,296.467 119.467 C 296.903 119.353,297.353 118.903,297.467 118.467 C 297.581 118.031,298.031 117.581,298.467 117.467 C 298.903 117.353,299.353 116.903,299.467 116.467 C 299.581 116.031,300.031 115.581,300.467 115.467 C 300.903 115.353,301.353 114.903,301.467 114.467 C 301.581 114.031,302.031 113.581,302.467 113.467 C 302.903 113.353,303.353 112.903,303.467 112.467 C 303.581 112.031,304.031 111.581,304.467 111.467 C 304.903 111.353,305.353 110.903,305.467 110.467 C 305.581 110.031,306.031 109.581,306.467 109.467 C 306.903 109.353,307.353 108.903,307.467 108.467 C 307.581 108.031,308.031 107.581,308.467 107.467 C 308.903 107.353,309.353 106.903,309.467 106.467 C 309.581 106.031,310.031 105.581,310.467 105.467 C 310.903 105.353,311.353 104.903,311.467 104.467 C 311.581 104.031,312.031 103.581,312.467 103.467 C 312.903 103.353,313.353 102.903,313.467 102.467 C 313.581 102.031,314.031 101.581,314.467 101.467 C 314.903 101.353,315.353 100.903,315.467 100.467 C 315.581 100.031,316.031 99.581,316.467 99.467 C 316.903 99.353,317.353 98.903,317.467 98.467 C 317.581 98.031,318.031 97.581,318.467 97.467 C 318.903 97.353,319.353 96.903,319.467 96.467 C 319.581 96.031,320.031 95.581,320.467 95.467 C 320.903 95.353,321.353 94.903,321.467 94.467 C 321.581 94.031,322.031 93.581,322.467 93.467 C 322.903 93.353,323.353 92.903,323.467 92.467 C 323.581 92.031,324.031 91.581,324.467 91.467 C 324.903 91.353,325.353 90.903,325.467 90.467 C 325.581 90.031,326.031 89.581,326.467 89.467 C 326.903 89.353,327.353 88.903,327.467 88.467 C 327.581 88.031,328.031 87.581,328.467 87.467 C 328.903 87.353,329.353 86.903,329.467 86.467 C 329.581 86.031,330.031 85.581,330.467 85.467 C 330.903 85.353,331.347 84.924,331.454 84.514 C 331.562 84.104,332.043 83.596,332.525 83.384 C 333.817 82.817,333.817 79.183,332.525 78.616 C 332.043 78.404,331.562 77.896,331.454 77.486 C 331.347 77.076,330.903 76.647,330.467 76.533 C 330.031 76.419,329.581 75.969,329.467 75.533 C 329.353 75.097,328.903 74.647,328.467 74.533 C 328.031 74.419,327.581 73.969,327.467 73.533 C 327.353 73.097,326.903 72.647,326.467 72.533 C 326.031 72.419,325.581 71.969,325.467 71.533 C 325.353 71.097,324.924 70.653,324.514 70.546 C 324.104 70.438,323.596 69.957,323.384 69.475 C 322.923 68.424,315.844 67.916,314.893 68.867 M97.421 94.579 C 109.619 106.778,119.600 116.837,119.600 116.932 C 119.600 117.468,110.568 126.000,110.000 126.000 C 109.056 126.000,66.000 82.885,66.000 81.940 C 66.000 81.244,74.225 72.468,74.921 72.421 C 75.097 72.410,85.222 82.381,97.421 94.579 M322.141 77.444 C 324.043 79.338,325.600 80.931,325.600 80.985 C 325.600 81.144,279.097 127.600,278.938 127.600 C 278.799 127.600,276.949 125.926,273.559 122.731 C 270.768 120.102,269.564 121.599,294.581 96.581 C 308.562 82.601,317.452 74.000,317.922 74.000 C 318.341 74.000,320.232 75.543,322.141 77.444 M182.885 110.875 C 182.618 111.142,182.400 111.587,182.400 111.865 C 182.400 112.227,181.352 112.403,178.700 112.485 C 175.320 112.590,174.966 112.677,174.611 113.486 C 174.257 114.293,173.900 114.382,170.611 114.486 C 167.328 114.590,166.965 114.680,166.613 115.481 C 166.322 116.144,165.826 116.392,164.613 116.481 C 163.400 116.571,162.904 116.819,162.613 117.481 C 162.322 118.144,161.826 118.392,160.613 118.481 C 159.400 118.571,158.904 118.819,158.613 119.481 C 158.322 120.144,157.826 120.392,156.613 120.481 C 155.400 120.571,154.904 120.819,154.613 121.481 C 154.322 122.144,153.826 122.392,152.613 122.481 C 151.400 122.571,150.904 122.819,150.613 123.481 C 150.322 124.144,149.826 124.392,148.613 124.481 C 147.404 124.570,146.904 124.819,146.616 125.475 C 146.404 125.957,145.896 126.438,145.486 126.546 C 145.076 126.653,144.647 127.097,144.533 127.533 C 144.419 127.969,143.969 128.419,143.533 128.533 C 143.097 128.647,142.647 129.097,142.533 129.533 C 142.419 129.969,141.969 130.419,141.533 130.533 C 141.097 130.647,140.647 131.097,140.533 131.533 C 140.419 131.969,139.969 132.419,139.533 132.533 C 139.097 132.647,138.643 133.114,138.524 133.570 C 138.354 134.220,137.988 134.400,136.833 134.400 C 134.975 134.400,134.400 134.975,134.400 136.833 C 134.400 137.988,134.220 138.354,133.570 138.524 C 133.114 138.643,132.647 139.097,132.533 139.533 C 132.419 139.969,131.969 140.419,131.533 140.533 C 131.097 140.647,130.647 141.097,130.533 141.533 C 130.419 141.969,129.969 142.419,129.533 142.533 C 129.097 142.647,128.647 143.097,128.533 143.533 C 128.419 143.969,127.969 144.419,127.533 144.533 C 127.097 144.647,126.653 145.076,126.546 145.486 C 126.438 145.896,125.957 146.404,125.475 146.616 C 124.819 146.904,124.570 147.404,124.481 148.613 C 124.392 149.826,124.144 150.322,123.481 150.613 C 122.819 150.904,122.571 151.400,122.481 152.613 C 122.392 153.826,122.144 154.322,121.481 154.613 C 120.819 154.904,120.571 155.400,120.481 156.613 C 120.392 157.826,120.144 158.322,119.481 158.613 C 118.819 158.904,118.571 159.400,118.481 160.613 C 118.392 161.826,118.144 162.322,117.481 162.613 C 116.819 162.904,116.571 163.400,116.481 164.613 C 116.392 165.826,116.144 166.322,115.481 166.613 C 114.680 166.965,114.590 167.328,114.486 170.611 C 114.382 173.900,114.293 174.257,113.486 174.611 C 112.679 174.965,112.590 175.322,112.486 178.611 C 112.382 181.900,112.293 182.257,111.486 182.611 L 110.600 183.000 110.600 199.000 L 110.600 215.000 111.488 215.390 C 112.321 215.755,112.383 216.064,112.488 220.390 C 112.593 224.709,112.656 225.025,113.484 225.388 C 114.246 225.722,114.383 226.136,114.484 228.388 C 114.584 230.632,114.723 231.054,115.475 231.384 C 115.957 231.596,116.438 232.104,116.546 232.514 C 116.653 232.924,117.105 233.355,117.549 233.471 C 118.169 233.633,118.386 234.071,118.479 235.341 C 118.571 236.600,118.812 237.093,119.481 237.387 C 120.144 237.678,120.392 238.174,120.481 239.387 C 120.570 240.596,120.819 241.096,121.475 241.384 C 121.957 241.596,122.438 242.104,122.546 242.514 C 122.653 242.924,123.105 243.355,123.549 243.471 C 124.169 243.633,124.386 244.071,124.479 245.341 C 124.571 246.596,124.813 247.093,125.475 247.384 C 125.957 247.596,126.438 248.104,126.546 248.514 C 126.653 248.924,127.097 249.353,127.533 249.467 C 127.969 249.581,128.419 250.031,128.533 250.467 C 128.647 250.903,129.105 251.355,129.549 251.471 C 130.169 251.633,130.386 252.071,130.479 253.341 C 130.571 254.596,130.813 255.093,131.475 255.384 C 131.957 255.596,132.438 256.104,132.546 256.514 C 132.653 256.924,133.105 257.355,133.549 257.471 C 134.169 257.633,134.386 258.071,134.479 259.341 C 134.571 260.596,134.813 261.093,135.475 261.384 C 135.957 261.596,136.438 262.104,136.546 262.514 C 136.653 262.924,137.097 263.353,137.533 263.467 C 137.969 263.581,138.419 264.031,138.533 264.467 C 138.647 264.903,139.097 265.353,139.533 265.467 C 139.969 265.581,140.419 266.031,140.533 266.467 C 140.647 266.903,141.076 267.347,141.486 267.454 C 141.896 267.562,142.404 268.043,142.616 268.525 C 142.907 269.187,143.404 269.429,144.659 269.521 C 145.929 269.614,146.367 269.831,146.529 270.451 C 146.645 270.895,147.076 271.347,147.486 271.454 C 147.896 271.562,148.404 272.043,148.616 272.525 C 148.907 273.187,149.404 273.429,150.659 273.521 C 151.929 273.614,152.367 273.831,152.529 274.451 C 152.645 274.895,153.076 275.347,153.486 275.454 C 153.896 275.562,154.404 276.043,154.616 276.525 C 154.946 277.277,155.368 277.416,157.612 277.516 C 159.864 277.617,160.278 277.754,160.612 278.516 C 160.965 279.320,161.325 279.410,164.611 279.514 C 167.900 279.618,168.257 279.707,168.611 280.514 C 168.947 281.279,169.358 281.416,171.612 281.516 C 173.864 281.617,174.278 281.754,174.612 282.516 C 174.975 283.344,175.291 283.407,179.610 283.512 C 183.936 283.617,184.245 283.679,184.610 284.512 C 184.904 285.182,185.396 285.429,186.613 285.519 C 187.826 285.608,188.322 285.856,188.613 286.519 L 189.000 287.400 205.000 287.400 L 221.000 287.400 221.387 286.519 C 221.678 285.856,222.174 285.608,223.387 285.519 C 224.601 285.429,225.096 285.182,225.388 284.516 C 225.722 283.754,226.136 283.617,228.388 283.516 C 230.640 283.416,231.054 283.278,231.388 282.516 C 231.722 281.754,232.136 281.617,234.388 281.516 C 236.637 281.416,237.054 281.278,237.387 280.519 C 237.678 279.856,238.174 279.608,239.387 279.519 C 240.600 279.429,241.096 279.181,241.387 278.519 C 241.678 277.856,242.174 277.608,243.387 277.519 C 244.600 277.429,245.096 277.181,245.387 276.519 C 245.678 275.856,246.174 275.608,247.387 275.519 C 248.596 275.430,249.096 275.181,249.384 274.525 C 249.596 274.043,250.104 273.562,250.514 273.454 C 250.924 273.347,251.355 272.895,251.471 272.451 C 251.633 271.831,252.071 271.614,253.341 271.521 C 254.596 271.429,255.093 271.187,255.384 270.525 C 255.596 270.043,256.104 269.562,256.514 269.454 C 256.924 269.347,257.353 268.903,257.467 268.467 C 257.581 268.031,258.031 267.581,258.467 267.467 C 258.903 267.353,259.353 266.903,259.467 266.467 C 259.581 266.031,260.031 265.581,260.467 265.467 C 260.903 265.353,261.355 264.895,261.471 264.451 C 261.633 263.831,262.071 263.614,263.341 263.521 C 264.568 263.431,265.095 263.183,265.366 262.566 C 265.568 262.108,266.108 261.568,266.566 261.366 C 267.183 261.095,267.431 260.568,267.521 259.341 C 267.614 258.071,267.831 257.633,268.451 257.471 C 268.895 257.355,269.353 256.903,269.467 256.467 C 269.581 256.031,270.031 255.581,270.467 255.467 C 270.903 255.353,271.353 254.903,271.467 254.467 C 271.581 254.031,272.031 253.581,272.467 253.467 C 272.903 253.353,273.353 252.903,273.467 252.467 C 273.581 252.031,274.031 251.581,274.467 251.467 C 274.903 251.353,275.347 250.924,275.454 250.514 C 275.562 250.104,276.043 249.596,276.525 249.384 C 277.181 249.096,277.430 248.596,277.519 247.387 C 277.608 246.174,277.856 245.678,278.519 245.387 C 279.181 245.096,279.429 244.600,279.519 243.387 C 279.608 242.174,279.856 241.678,280.519 241.387 C 281.181 241.096,281.429 240.600,281.519 239.387 C 281.608 238.174,281.856 237.678,282.519 237.387 C 283.181 237.096,283.429 236.600,283.519 235.387 C 283.608 234.174,283.856 233.678,284.519 233.387 C 285.181 233.096,285.429 232.600,285.519 231.387 C 285.608 230.174,285.856 229.678,286.519 229.387 C 287.278 229.054,287.416 228.637,287.516 226.388 C 287.617 224.136,287.754 223.722,288.516 223.388 L 289.400 223.000 289.400 208.000 L 289.400 193.000 288.509 192.609 C 287.647 192.231,287.615 192.009,287.509 185.609 C 287.404 179.216,287.371 178.987,286.512 178.610 C 285.679 178.245,285.617 177.936,285.512 173.610 C 285.407 169.295,285.344 168.975,284.519 168.613 C 283.856 168.322,283.608 167.826,283.519 166.613 C 283.429 165.400,283.181 164.904,282.519 164.613 C 281.856 164.322,281.608 163.826,281.519 162.613 C 281.430 161.404,281.181 160.904,280.525 160.616 C 280.043 160.404,279.562 159.896,279.454 159.486 C 279.347 159.076,278.895 158.645,278.451 158.529 C 277.831 158.367,277.614 157.929,277.521 156.659 C 277.429 155.404,277.187 154.907,276.525 154.616 C 276.043 154.404,275.562 153.896,275.454 153.486 C 275.347 153.076,274.903 152.647,274.467 152.533 C 274.031 152.419,273.581 151.969,273.467 151.533 C 273.353 151.097,272.895 150.645,272.451 150.529 C 271.831 150.367,271.614 149.929,271.521 148.659 C 271.429 147.404,271.187 146.907,270.525 146.616 C 270.043 146.404,269.562 145.896,269.454 145.486 C 269.347 145.076,268.903 144.647,268.467 144.533 C 268.031 144.419,267.581 143.969,267.467 143.533 C 267.353 143.097,266.903 142.647,266.467 142.533 C 266.031 142.419,265.581 141.969,265.467 141.533 C 265.353 141.097,264.903 140.647,264.467 140.533 C 264.031 140.419,263.581 139.969,263.467 139.533 C 263.353 139.097,262.903 138.647,262.467 138.533 C 262.031 138.419,261.581 137.969,261.467 137.533 C 261.353 137.097,260.924 136.653,260.514 136.546 C 260.104 136.438,259.596 135.957,259.384 135.475 C 259.093 134.813,258.596 134.571,257.341 134.479 C 256.071 134.386,255.633 134.169,255.471 133.549 C 255.355 133.105,254.903 132.647,254.467 132.533 C 254.031 132.419,253.581 131.969,253.467 131.533 C 253.353 131.097,252.903 130.647,252.467 130.533 C 252.031 130.419,251.581 129.969,251.467 129.533 C 251.353 129.097,250.903 128.647,250.467 128.533 C 250.031 128.419,249.581 127.969,249.467 127.533 C 249.353 127.097,248.924 126.653,248.514 126.546 C 248.104 126.438,247.596 125.957,247.384 125.475 C 247.096 124.819,246.596 124.570,245.387 124.481 C 244.174 124.392,243.678 124.144,243.387 123.481 C 243.096 122.819,242.600 122.571,241.387 122.481 C 240.174 122.392,239.678 122.144,239.387 121.481 C 239.096 120.819,238.600 120.571,237.387 120.481 C 236.174 120.392,235.678 120.144,235.387 119.481 C 235.096 118.819,234.600 118.571,233.387 118.481 C 232.174 118.392,231.678 118.144,231.387 117.481 C 231.096 116.819,230.600 116.571,229.387 116.481 C 228.174 116.392,227.678 116.144,227.387 115.481 C 227.035 114.680,226.672 114.590,223.389 114.486 C 220.100 114.382,219.743 114.293,219.389 113.486 C 219.035 112.679,218.678 112.590,215.389 112.486 C 212.100 112.382,211.743 112.293,211.389 111.486 L 211.000 110.600 197.185 110.495 C 186.774 110.416,183.251 110.509,182.885 110.875 M210.000 119.000 C 210.843 119.898,211.253 120.000,214.000 120.000 C 216.747 120.000,217.157 120.102,218.000 121.000 C 218.766 121.816,219.319 122.000,221.000 122.000 C 222.681 122.000,223.234 122.184,224.000 123.000 C 224.765 123.814,225.320 124.000,226.985 124.000 C 228.910 124.000,229.146 124.118,231.000 126.000 C 232.366 127.387,233.290 128.000,234.015 128.000 C 234.613 128.000,235.463 128.428,236.000 129.000 C 236.537 129.572,237.387 130.000,237.985 130.000 C 238.710 130.000,239.634 130.613,241.000 132.000 C 242.333 133.353,243.297 134.000,243.981 134.000 C 245.454 134.000,260.000 148.539,260.000 150.011 C 260.000 150.705,260.639 151.659,262.000 153.000 C 263.387 154.366,264.000 155.290,264.000 156.015 C 264.000 156.613,264.428 157.463,265.000 158.000 C 265.572 158.537,266.000 159.387,266.000 159.985 C 266.000 160.710,266.613 161.634,268.000 163.000 C 269.882 164.854,270.000 165.090,270.000 167.015 C 270.000 168.680,270.186 169.235,271.000 170.000 C 271.816 170.766,272.000 171.319,272.000 173.000 C 272.000 174.681,272.184 175.234,273.000 176.000 C 273.898 176.843,274.000 177.253,274.000 180.000 C 274.000 182.747,274.102 183.157,275.000 184.000 L 276.000 184.939 276.000 197.000 L 276.000 209.061 275.000 210.000 C 274.102 210.843,274.000 211.253,274.000 214.000 C 274.000 216.747,273.898 217.157,273.000 218.000 C 272.184 218.766,272.000 219.319,272.000 221.000 C 272.000 222.681,271.816 223.234,271.000 224.000 C 270.184 224.766,270.000 225.319,270.000 227.000 C 270.000 228.681,269.816 229.234,269.000 230.000 C 268.428 230.537,268.000 231.387,268.000 231.985 C 268.000 232.710,267.387 233.634,266.000 235.000 C 264.613 236.366,264.000 237.290,264.000 238.015 C 264.000 238.613,263.572 239.463,263.000 240.000 C 262.437 240.529,262.000 241.388,262.000 241.967 C 262.000 243.472,243.478 262.000,241.973 262.000 C 241.388 262.000,240.532 262.434,240.000 263.000 C 239.463 263.572,238.613 264.000,238.015 264.000 C 237.290 264.000,236.366 264.613,235.000 266.000 C 233.634 267.387,232.710 268.000,231.985 268.000 C 231.387 268.000,230.537 268.428,230.000 269.000 C 229.234 269.816,228.681 270.000,227.000 270.000 C 225.319 270.000,224.766 270.184,224.000 271.000 C 223.234 271.816,222.681 272.000,221.000 272.000 C 219.319 272.000,218.766 272.184,218.000 273.000 C 217.157 273.898,216.747 274.000,214.000 274.000 C 211.253 274.000,210.843 274.102,210.000 275.000 L 209.061 276.000 197.000 276.000 L 184.939 276.000 184.000 275.000 C 183.157 274.102,182.747 274.000,180.000 274.000 C 177.253 274.000,176.843 273.898,176.000 273.000 C 175.234 272.184,174.681 272.000,173.000 272.000 C 171.319 272.000,170.766 271.816,170.000 271.000 C 169.235 270.186,168.680 270.000,167.015 270.000 C 165.090 270.000,164.854 269.882,163.000 268.000 C 161.634 266.613,160.710 266.000,159.985 266.000 C 159.387 266.000,158.537 265.572,158.000 265.000 C 157.463 264.428,156.613 264.000,156.015 264.000 C 155.290 264.000,154.366 263.387,153.000 262.000 C 151.667 260.647,150.703 260.000,150.019 260.000 C 148.546 260.000,134.000 245.461,134.000 243.989 C 134.000 243.295,133.361 242.341,132.000 241.000 C 130.613 239.634,130.000 238.710,130.000 237.985 C 130.000 237.387,129.572 236.537,129.000 236.000 C 128.428 235.463,128.000 234.613,128.000 234.015 C 128.000 233.290,127.387 232.366,126.000 231.000 C 124.118 229.146,124.000 228.910,124.000 226.985 C 124.000 225.320,123.814 224.765,123.000 224.000 C 122.184 223.234,122.000 222.681,122.000 221.000 C 122.000 219.319,121.816 218.766,121.000 218.000 C 120.061 217.118,120.000 216.814,120.000 213.000 C 120.000 209.186,119.939 208.882,119.000 208.000 L 118.000 207.061 118.000 196.000 L 118.000 184.939 119.000 184.000 C 119.898 183.157,120.000 182.747,120.000 180.000 C 120.000 177.253,120.102 176.843,121.000 176.000 C 121.816 175.234,122.000 174.681,122.000 173.000 C 122.000 171.319,122.184 170.766,123.000 170.000 C 123.579 169.456,124.000 168.614,124.000 168.000 C 124.000 167.386,124.421 166.544,125.000 166.000 C 125.579 165.456,126.000 164.614,126.000 164.000 C 126.000 163.386,126.421 162.544,127.000 162.000 C 127.579 161.456,128.000 160.614,128.000 160.000 C 128.000 159.386,128.421 158.544,129.000 158.000 C 129.572 157.463,130.000 156.613,130.000 156.015 C 130.000 155.290,130.613 154.366,132.000 153.000 C 133.353 151.667,134.000 150.703,134.000 150.019 C 134.000 148.546,148.539 134.000,150.011 134.000 C 150.705 134.000,151.659 133.361,153.000 132.000 C 154.366 130.613,155.290 130.000,156.015 130.000 C 156.613 130.000,157.463 129.572,158.000 129.000 C 158.544 128.421,159.386 128.000,160.000 128.000 C 160.614 128.000,161.456 127.579,162.000 127.000 C 162.544 126.421,163.386 126.000,164.000 126.000 C 164.614 126.000,165.456 125.579,166.000 125.000 C 166.544 124.421,167.386 124.000,168.000 124.000 C 168.614 124.000,169.456 123.579,170.000 123.000 C 170.766 122.184,171.319 122.000,173.000 122.000 C 174.681 122.000,175.234 121.816,176.000 121.000 C 176.882 120.061,177.186 120.000,181.000 120.000 C 184.814 120.000,185.118 119.939,186.000 119.000 L 186.939 118.000 198.000 118.000 L 209.061 118.000 210.000 119.000 M185.689 128.984 C 185.132 129.624,184.387 130.000,183.675 130.000 C 182.967 130.000,182.219 130.374,181.675 131.000 C 181.131 131.626,180.382 132.000,179.675 132.000 C 178.967 132.000,178.219 132.374,177.675 133.000 C 177.131 133.626,176.382 134.000,175.675 134.000 C 174.967 134.000,174.219 134.374,173.675 135.000 C 173.122 135.636,172.384 136.000,171.649 136.000 C 170.856 136.000,170.286 136.315,169.837 137.000 C 169.357 137.732,168.828 138.000,167.863 138.000 C 166.955 138.000,166.274 138.311,165.675 139.000 C 165.197 139.550,164.399 140.003,163.903 140.006 C 163.384 140.010,162.073 140.860,160.821 142.006 C 159.622 143.103,158.503 144.000,158.335 144.000 C 156.140 144.000,144.000 156.184,144.000 158.386 C 144.000 158.583,143.101 159.612,142.002 160.672 C 140.470 162.151,140.004 162.883,140.002 163.814 C 140.000 164.767,139.569 165.410,138.000 166.800 C 136.501 168.128,136.000 168.851,136.000 169.689 C 136.000 170.381,135.620 171.135,135.000 171.675 C 134.374 172.219,134.000 172.967,134.000 173.675 C 134.000 174.382,133.626 175.131,133.000 175.675 C 132.167 176.399,132.000 176.901,132.000 178.675 C 132.000 180.449,131.833 180.951,131.000 181.675 C 130.093 182.464,130.000 182.834,130.000 185.675 C 130.000 188.515,129.907 188.886,129.000 189.675 L 128.000 190.544 128.000 201.000 L 128.000 211.456 129.000 212.325 C 129.907 213.114,130.000 213.485,130.000 216.325 C 130.000 219.166,130.093 219.536,131.000 220.325 C 131.626 220.869,132.000 221.618,132.000 222.325 C 132.000 223.033,132.374 223.781,133.000 224.325 C 133.644 224.885,134.000 225.615,134.000 226.375 C 134.000 227.128,134.310 227.772,134.860 228.157 C 135.366 228.511,135.821 229.382,135.965 230.274 C 136.190 231.653,136.346 231.810,137.710 232.032 C 139.692 232.354,139.767 232.463,140.000 235.328 L 140.200 237.790 141.662 238.026 C 142.900 238.225,144.179 239.320,149.966 245.131 C 155.001 250.186,157.059 252.000,157.760 252.000 C 158.437 252.000,159.855 253.157,162.656 255.992 C 165.738 259.112,166.841 259.986,167.703 259.992 C 168.373 259.997,169.146 260.392,169.675 261.000 C 170.399 261.833,170.901 262.000,172.675 262.000 C 174.449 262.000,174.951 262.167,175.675 263.000 C 176.496 263.945,176.770 264.000,180.641 264.000 C 184.428 264.000,184.829 264.076,185.927 265.000 C 187.292 266.148,190.747 266.428,191.553 265.456 C 191.904 265.033,192.018 138.864,191.673 133.200 C 191.653 132.870,191.673 131.610,191.718 130.400 L 191.800 128.200 189.186 128.084 C 186.812 127.978,186.492 128.061,185.689 128.984 M212.000 137.214 C 209.910 139.391,207.907 141.179,207.549 141.186 C 206.082 141.217,205.984 142.020,206.093 153.049 C 206.217 165.508,206.215 165.503,209.706 162.316 C 210.740 161.372,212.105 160.307,212.738 159.950 C 214.181 159.136,215.163 156.480,215.480 152.532 C 215.672 150.142,215.840 149.631,216.485 149.462 C 216.911 149.350,217.353 148.903,217.467 148.467 C 217.581 148.031,218.031 147.581,218.467 147.467 C 218.903 147.353,219.353 146.903,219.467 146.467 C 219.581 146.031,220.031 145.581,220.467 145.467 C 220.903 145.353,221.353 144.903,221.467 144.467 C 221.581 144.031,222.031 143.581,222.467 143.467 C 222.903 143.353,223.352 142.905,223.465 142.472 C 223.641 141.800,224.096 141.661,226.536 141.527 C 231.427 141.259,234.216 138.606,230.279 137.966 C 229.427 137.828,228.512 137.367,228.197 136.917 C 227.795 136.344,226.976 136.037,225.334 135.844 C 224.066 135.695,222.695 135.267,222.279 134.891 C 221.600 134.276,217.913 133.249,216.400 133.253 C 216.070 133.254,214.090 135.036,212.000 137.214 M184.400 199.000 L 184.400 260.400 182.095 260.400 C 180.088 260.400,179.739 260.284,179.395 259.500 C 179.052 258.719,178.655 258.585,176.388 258.484 C 174.136 258.383,173.722 258.246,173.388 257.484 C 173.093 256.812,172.602 256.571,171.341 256.479 C 170.071 256.386,169.633 256.169,169.471 255.549 C 169.355 255.105,168.903 254.647,168.467 254.533 C 168.031 254.419,167.581 253.969,167.467 253.533 C 167.353 253.097,166.903 252.647,166.467 252.533 C 166.031 252.419,165.581 251.969,165.467 251.533 C 165.353 251.097,164.924 250.653,164.514 250.546 C 164.104 250.438,163.596 249.957,163.384 249.475 C 163.053 248.721,162.633 248.584,160.342 248.483 C 158.060 248.382,157.654 248.250,157.472 247.553 C 157.355 247.106,156.903 246.647,156.467 246.533 C 156.031 246.419,155.581 245.969,155.467 245.533 C 155.353 245.097,154.903 244.647,154.467 244.533 C 154.031 244.419,153.581 243.969,153.467 243.533 C 153.353 243.097,152.903 242.647,152.467 242.533 C 152.031 242.419,151.581 241.969,151.467 241.533 C 151.353 241.097,150.903 240.647,150.467 240.533 C 150.031 240.419,149.581 239.969,149.467 239.533 C 149.353 239.097,148.903 238.647,148.467 238.533 C 148.031 238.419,147.581 237.969,147.467 237.533 C 147.353 237.097,146.895 236.645,146.451 236.529 C 145.831 236.367,145.614 235.929,145.521 234.659 C 145.429 233.404,145.187 232.907,144.525 232.616 C 144.043 232.404,143.562 231.896,143.454 231.486 C 143.347 231.076,142.895 230.645,142.451 230.529 C 141.831 230.367,141.614 229.929,141.521 228.659 C 141.429 227.400,141.188 226.907,140.519 226.613 C 139.856 226.322,139.608 225.826,139.519 224.613 C 139.429 223.400,139.181 222.904,138.519 222.613 C 137.856 222.322,137.608 221.826,137.519 220.613 C 137.429 219.397,137.182 218.904,136.514 218.611 C 135.707 218.257,135.618 217.900,135.514 214.611 C 135.410 211.305,135.324 210.967,134.500 210.605 C 133.085 209.984,133.085 194.016,134.500 193.395 C 135.324 193.033,135.410 192.695,135.514 189.389 C 135.618 186.100,135.707 185.743,136.514 185.389 C 137.182 185.096,137.429 184.603,137.519 183.387 C 137.608 182.174,137.856 181.678,138.519 181.387 C 139.278 181.054,139.416 180.637,139.516 178.388 C 139.617 176.136,139.754 175.722,140.516 175.388 C 141.188 175.093,141.429 174.602,141.521 173.341 C 141.614 172.071,141.831 171.633,142.451 171.471 C 142.895 171.355,143.347 170.924,143.454 170.514 C 143.562 170.104,144.043 169.596,144.525 169.384 C 145.187 169.093,145.429 168.596,145.521 167.341 C 145.614 166.071,145.831 165.633,146.451 165.471 C 146.895 165.355,147.353 164.903,147.467 164.467 C 147.581 164.031,148.031 163.581,148.467 163.467 C 148.903 163.353,149.353 162.903,149.467 162.467 C 149.581 162.031,150.031 161.581,150.467 161.467 C 150.903 161.353,151.353 160.903,151.467 160.467 C 151.581 160.031,152.031 159.581,152.467 159.467 C 152.903 159.353,153.353 158.903,153.467 158.467 C 153.581 158.031,154.031 157.581,154.467 157.467 C 154.903 157.353,155.353 156.903,155.467 156.467 C 155.581 156.031,156.031 155.581,156.467 155.467 C 156.903 155.353,157.353 154.903,157.467 154.467 C 157.581 154.031,158.031 153.581,158.467 153.467 C 158.903 153.353,159.353 152.903,159.467 152.467 C 159.581 152.031,160.031 151.581,160.467 151.467 C 160.903 151.353,161.355 150.895,161.471 150.451 C 161.633 149.831,162.071 149.614,163.341 149.521 C 164.596 149.429,165.093 149.187,165.384 148.525 C 165.596 148.043,166.104 147.562,166.514 147.454 C 166.924 147.347,167.355 146.895,167.471 146.451 C 167.633 145.831,168.071 145.614,169.341 145.521 C 170.596 145.429,171.093 145.187,171.384 144.525 C 171.596 144.043,172.104 143.562,172.514 143.454 C 172.924 143.347,173.355 142.895,173.471 142.451 C 173.633 141.831,174.071 141.614,175.341 141.521 C 176.600 141.429,177.093 141.188,177.387 140.519 C 177.678 139.856,178.174 139.608,179.387 139.519 C 180.611 139.429,181.095 139.183,181.395 138.500 C 181.688 137.831,182.125 137.600,183.095 137.600 L 184.400 137.600 184.400 199.000 M224.293 166.447 L 205.987 184.843 206.093 195.316 C 206.191 204.949,206.257 205.800,206.904 205.925 C 207.955 206.127,210.698 203.773,210.997 202.413 C 211.209 201.447,211.595 201.133,213.242 200.586 C 216.033 199.659,217.600 196.414,217.600 191.563 C 217.600 190.007,217.739 189.657,218.430 189.476 C 218.886 189.357,219.353 188.903,219.467 188.467 C 219.581 188.031,220.031 187.581,220.467 187.467 C 220.903 187.353,221.353 186.903,221.467 186.467 C 221.581 186.031,222.031 185.581,222.467 185.467 C 222.903 185.353,223.353 184.903,223.467 184.467 C 223.581 184.031,224.031 183.581,224.467 183.467 C 224.903 183.353,225.353 182.903,225.467 182.467 C 225.581 182.031,226.031 181.581,226.467 181.467 C 226.903 181.353,227.353 180.903,227.467 180.467 C 227.581 180.031,228.031 179.581,228.467 179.467 C 228.903 179.353,229.353 178.903,229.467 178.467 C 229.581 178.031,230.031 177.581,230.467 177.467 C 230.903 177.353,231.353 176.903,231.467 176.467 C 231.581 176.031,232.031 175.581,232.467 175.467 C 232.903 175.353,233.353 174.903,233.467 174.467 C 233.581 174.031,234.031 173.581,234.467 173.467 C 234.903 173.353,235.353 172.903,235.467 172.467 C 235.581 172.031,236.031 171.581,236.467 171.467 C 236.903 171.353,237.353 170.903,237.467 170.467 C 237.581 170.031,238.031 169.581,238.467 169.467 C 238.903 169.353,239.353 168.903,239.467 168.467 C 239.581 168.031,240.031 167.581,240.467 167.467 C 240.903 167.353,241.353 166.903,241.467 166.467 C 241.581 166.031,242.031 165.581,242.467 165.467 C 242.903 165.353,243.353 164.903,243.467 164.467 C 243.581 164.031,244.031 163.581,244.467 163.467 C 244.903 163.353,245.353 162.903,245.467 162.467 C 245.581 162.031,246.031 161.581,246.467 161.467 C 246.903 161.353,247.356 160.890,247.474 160.440 C 247.674 159.673,248.308 159.440,251.200 159.070 C 252.911 158.851,252.088 156.812,249.175 154.057 C 246.827 151.836,246.249 151.044,246.043 149.766 C 245.801 148.266,245.724 148.197,244.195 148.125 L 242.600 148.050 224.293 166.447 M232.293 198.367 L 205.985 224.697 206.093 234.243 C 206.191 242.990,206.259 243.801,206.904 243.925 C 207.958 244.127,210.698 241.773,210.998 240.408 C 211.157 239.686,211.590 239.135,212.128 238.972 C 213.574 238.534,214.773 237.157,215.033 235.636 C 215.171 234.824,215.709 233.835,216.271 233.359 C 217.063 232.689,217.310 232.024,217.485 230.092 C 217.663 228.132,217.854 227.627,218.482 227.463 C 218.910 227.351,219.353 226.903,219.467 226.467 C 219.581 226.031,220.031 225.581,220.467 225.467 C 220.903 225.353,221.353 224.903,221.467 224.467 C 221.581 224.031,222.031 223.581,222.467 223.467 C 222.903 223.353,223.353 222.903,223.467 222.467 C 223.581 222.031,224.031 221.581,224.467 221.467 C 224.903 221.353,225.353 220.903,225.467 220.467 C 225.581 220.031,226.031 219.581,226.467 219.467 C 226.903 219.353,227.353 218.903,227.467 218.467 C 227.581 218.031,228.031 217.581,228.467 217.467 C 228.903 217.353,229.353 216.903,229.467 216.467 C 229.581 216.031,230.031 215.581,230.467 215.467 C 230.903 215.353,231.355 214.895,231.471 214.451 C 231.633 213.831,232.071 213.614,233.341 213.521 C 234.596 213.429,235.093 213.187,235.384 212.525 C 235.596 212.043,236.104 211.562,236.514 211.454 C 236.924 211.347,237.353 210.903,237.467 210.467 C 237.581 210.031,238.031 209.581,238.467 209.467 C 238.903 209.353,239.353 208.903,239.467 208.467 C 239.581 208.031,240.031 207.581,240.467 207.467 C 240.903 207.353,241.353 206.903,241.467 206.467 C 241.581 206.031,242.031 205.581,242.467 205.467 C 242.903 205.353,243.353 204.903,243.467 204.467 C 243.581 204.031,244.031 203.581,244.467 203.467 C 244.903 203.353,245.353 202.903,245.467 202.467 C 245.581 202.031,246.031 201.581,246.467 201.467 C 246.903 201.353,247.353 200.903,247.467 200.467 C 247.581 200.031,248.031 199.581,248.467 199.467 C 248.903 199.353,249.353 198.903,249.467 198.467 C 249.581 198.031,250.031 197.581,250.467 197.467 C 250.903 197.353,251.353 196.903,251.467 196.467 C 251.581 196.031,252.031 195.581,252.467 195.467 C 252.903 195.353,253.353 194.903,253.467 194.467 C 253.581 194.031,254.031 193.581,254.467 193.467 C 254.903 193.353,255.357 192.886,255.476 192.430 C 255.650 191.766,256.760 191.302,257.300 191.668 C 257.623 191.886,259.200 190.678,259.200 190.213 C 259.200 189.905,259.571 189.536,260.024 189.392 C 260.478 189.248,261.047 188.696,261.289 188.165 C 261.530 187.634,261.970 187.200,262.264 187.200 C 263.167 187.200,262.988 179.705,262.025 177.169 C 261.421 175.579,261.344 174.921,261.677 174.190 C 262.352 172.710,261.838 171.997,260.113 172.019 C 258.651 172.037,257.709 172.929,232.293 198.367 M28.880 186.880 C 28.192 187.568,28.192 214.432,28.880 215.120 C 29.576 215.816,104.424 215.816,105.120 215.120 C 105.808 214.432,105.808 187.568,105.120 186.880 C 104.424 186.184,29.576 186.184,28.880 186.880 M296.880 186.880 C 296.527 187.233,296.400 190.702,296.400 200.000 C 296.400 209.298,296.527 212.767,296.880 213.120 C 297.576 213.816,370.424 213.816,371.120 213.120 C 371.473 212.767,371.600 209.298,371.600 200.000 C 371.600 190.702,371.473 187.233,371.120 186.880 C 370.424 186.184,297.576 186.184,296.880 186.880 M97.226 192.414 C 98.291 192.984,98.418 204.325,97.371 205.371 C 96.287 206.455,34.996 206.314,34.414 205.226 C 33.702 203.896,33.881 193.376,34.629 192.629 C 35.398 191.860,95.803 191.653,97.226 192.414 M364.967 192.243 C 365.835 192.576,365.761 193.307,364.800 193.907 C 364.067 194.365,364.000 194.840,364.000 199.575 C 364.000 203.740,363.878 204.865,363.371 205.371 C 362.414 206.329,303.586 206.329,302.629 205.371 C 301.703 204.446,301.703 193.554,302.629 192.629 C 303.271 191.986,363.329 191.614,364.967 192.243 M236.300 236.441 C 210.777 262.033,210.000 262.857,210.000 264.326 C 210.000 266.882,212.340 267.748,214.291 265.915 C 215.302 264.965,218.199 264.046,220.276 264.018 C 221.173 264.005,222.099 263.526,223.400 262.400 C 224.417 261.520,225.415 260.800,225.617 260.800 C 225.820 260.800,226.831 259.990,227.865 259.000 C 228.988 257.923,230.116 257.200,230.672 257.200 C 231.182 257.200,231.579 257.065,231.553 256.900 C 231.423 256.081,231.674 255.674,232.430 255.476 C 232.886 255.357,233.353 254.903,233.467 254.467 C 233.581 254.031,234.031 253.581,234.467 253.467 C 234.903 253.353,235.353 252.903,235.467 252.467 C 235.581 252.031,236.031 251.581,236.467 251.467 C 236.903 251.353,237.353 250.903,237.467 250.467 C 237.581 250.031,238.031 249.581,238.467 249.467 C 238.903 249.353,239.353 248.903,239.467 248.467 C 239.581 248.031,240.031 247.581,240.467 247.467 C 240.903 247.353,241.353 246.903,241.467 246.467 C 241.581 246.031,242.031 245.581,242.467 245.467 C 242.903 245.353,243.353 244.903,243.467 244.467 C 243.581 244.031,244.031 243.581,244.467 243.467 C 244.903 243.353,245.353 242.903,245.467 242.467 C 245.581 242.031,246.031 241.581,246.467 241.467 C 246.903 241.353,247.353 240.903,247.467 240.467 C 247.581 240.031,248.031 239.581,248.467 239.467 C 248.903 239.353,249.353 238.903,249.467 238.467 C 249.581 238.031,250.031 237.581,250.467 237.467 C 250.903 237.353,251.353 236.903,251.467 236.467 C 251.581 236.031,252.031 235.581,252.467 235.467 C 252.903 235.353,253.353 234.903,253.467 234.467 C 253.581 234.031,254.031 233.581,254.467 233.467 C 254.903 233.353,255.353 232.903,255.467 232.467 C 255.581 232.031,256.031 231.581,256.467 231.467 C 256.903 231.353,257.353 230.903,257.467 230.467 C 257.581 230.031,258.016 229.584,258.435 229.475 C 258.854 229.366,259.320 228.944,259.472 228.538 C 259.623 228.132,260.074 227.565,260.474 227.277 C 260.873 226.990,261.200 226.523,261.200 226.239 C 261.200 225.956,261.560 225.398,262.000 225.000 C 262.440 224.602,262.800 224.048,262.800 223.769 C 262.800 223.490,263.250 222.727,263.800 222.073 C 264.708 220.994,264.800 220.546,264.800 217.204 C 264.800 214.502,264.975 213.226,265.460 212.406 C 266.409 210.799,265.951 209.992,264.113 210.035 C 262.657 210.069,261.606 211.068,236.300 236.441 M116.896 266.864 C 116.623 267.137,116.400 267.573,116.400 267.833 C 116.400 268.094,116.027 268.404,115.570 268.524 C 115.114 268.643,114.647 269.097,114.533 269.533 C 114.419 269.969,113.969 270.419,113.533 270.533 C 113.097 270.647,112.647 271.097,112.533 271.533 C 112.419 271.969,111.969 272.419,111.533 272.533 C 111.097 272.647,110.647 273.097,110.533 273.533 C 110.419 273.969,109.969 274.419,109.533 274.533 C 109.097 274.647,108.647 275.097,108.533 275.533 C 108.419 275.969,107.969 276.419,107.533 276.533 C 107.097 276.647,106.647 277.097,106.533 277.533 C 106.419 277.969,105.969 278.419,105.533 278.533 C 105.097 278.647,104.647 279.097,104.533 279.533 C 104.419 279.969,103.969 280.419,103.533 280.533 C 103.097 280.647,102.647 281.097,102.533 281.533 C 102.419 281.969,101.969 282.419,101.533 282.533 C 101.097 282.647,100.647 283.097,100.533 283.533 C 100.419 283.969,99.969 284.419,99.533 284.533 C 99.097 284.647,98.647 285.097,98.533 285.533 C 98.419 285.969,97.969 286.419,97.533 286.533 C 97.097 286.647,96.647 287.097,96.533 287.533 C 96.419 287.969,95.969 288.419,95.533 288.533 C 95.097 288.647,94.647 289.097,94.533 289.533 C 94.419 289.969,93.969 290.419,93.533 290.533 C 93.097 290.647,92.647 291.097,92.533 291.533 C 92.419 291.969,91.969 292.419,91.533 292.533 C 91.097 292.647,90.647 293.097,90.533 293.533 C 90.419 293.969,89.969 294.419,89.533 294.533 C 89.097 294.647,88.647 295.097,88.533 295.533 C 88.419 295.969,87.969 296.419,87.533 296.533 C 87.097 296.647,86.647 297.097,86.533 297.533 C 86.419 297.969,85.969 298.419,85.533 298.533 C 85.097 298.647,84.647 299.097,84.533 299.533 C 84.419 299.969,83.969 300.419,83.533 300.533 C 83.097 300.647,82.647 301.097,82.533 301.533 C 82.419 301.969,81.969 302.419,81.533 302.533 C 81.097 302.647,80.647 303.097,80.533 303.533 C 80.419 303.969,79.969 304.419,79.533 304.533 C 79.097 304.647,78.647 305.097,78.533 305.533 C 78.419 305.969,77.969 306.419,77.533 306.533 C 77.097 306.647,76.647 307.097,76.533 307.533 C 76.419 307.969,75.969 308.419,75.533 308.533 C 75.097 308.647,74.647 309.097,74.533 309.533 C 74.419 309.969,73.969 310.419,73.533 310.533 C 73.097 310.647,72.647 311.097,72.533 311.533 C 72.419 311.969,71.969 312.419,71.533 312.533 C 71.097 312.647,70.653 313.076,70.546 313.486 C 70.438 313.896,69.957 314.404,69.475 314.616 C 68.659 314.974,68.600 315.269,68.600 319.000 C 68.600 322.731,68.659 323.026,69.475 323.384 C 69.957 323.596,70.438 324.104,70.546 324.514 C 70.653 324.924,71.097 325.353,71.533 325.467 C 71.969 325.581,72.419 326.031,72.533 326.467 C 72.647 326.903,73.097 327.353,73.533 327.467 C 73.969 327.581,74.419 328.031,74.533 328.467 C 74.647 328.903,75.097 329.353,75.533 329.467 C 75.969 329.581,76.419 330.031,76.533 330.467 C 76.647 330.903,77.097 331.353,77.533 331.467 C 77.969 331.581,78.419 332.031,78.533 332.467 C 78.647 332.903,79.076 333.347,79.486 333.454 C 79.896 333.562,80.404 334.043,80.616 334.525 C 80.937 335.257,81.326 335.400,83.000 335.400 C 84.674 335.400,85.063 335.257,85.384 334.525 C 85.596 334.043,86.104 333.562,86.514 333.454 C 86.924 333.347,87.353 332.903,87.467 332.467 C 87.581 332.031,88.031 331.581,88.467 331.467 C 88.903 331.353,89.353 330.903,89.467 330.467 C 89.581 330.031,90.031 329.581,90.467 329.467 C 90.903 329.353,91.353 328.903,91.467 328.467 C 91.581 328.031,92.031 327.581,92.467 327.467 C 92.903 327.353,93.353 326.903,93.467 326.467 C 93.581 326.031,94.031 325.581,94.467 325.467 C 94.903 325.353,95.353 324.903,95.467 324.467 C 95.581 324.031,96.031 323.581,96.467 323.467 C 96.903 323.353,97.353 322.903,97.467 322.467 C 97.581 322.031,98.031 321.581,98.467 321.467 C 98.903 321.353,99.353 320.903,99.467 320.467 C 99.581 320.031,100.031 319.581,100.467 319.467 C 100.903 319.353,101.353 318.903,101.467 318.467 C 101.581 318.031,102.031 317.581,102.467 317.467 C 102.903 317.353,103.353 316.903,103.467 316.467 C 103.581 316.031,104.031 315.581,104.467 315.467 C 104.903 315.353,105.353 314.903,105.467 314.467 C 105.581 314.031,106.031 313.581,106.467 313.467 C 106.903 313.353,107.353 312.903,107.467 312.467 C 107.581 312.031,108.031 311.581,108.467 311.467 C 108.903 311.353,109.353 310.903,109.467 310.467 C 109.581 310.031,110.031 309.581,110.467 309.467 C 110.903 309.353,111.353 308.903,111.467 308.467 C 111.581 308.031,112.031 307.581,112.467 307.467 C 112.903 307.353,113.353 306.903,113.467 306.467 C 113.581 306.031,114.031 305.581,114.467 305.467 C 114.903 305.353,115.353 304.903,115.467 304.467 C 115.581 304.031,116.031 303.581,116.467 303.467 C 116.903 303.353,117.353 302.903,117.467 302.467 C 117.581 302.031,118.031 301.581,118.467 301.467 C 118.903 301.353,119.353 300.903,119.467 300.467 C 119.581 300.031,120.031 299.581,120.467 299.467 C 120.903 299.353,121.353 298.903,121.467 298.467 C 121.581 298.031,122.031 297.581,122.467 297.467 C 122.903 297.353,123.353 296.903,123.467 296.467 C 123.581 296.031,124.031 295.581,124.467 295.467 C 124.903 295.353,125.353 294.903,125.467 294.467 C 125.581 294.031,126.031 293.581,126.467 293.467 C 126.903 293.353,127.353 292.903,127.467 292.467 C 127.581 292.031,128.031 291.581,128.467 291.467 C 128.903 291.353,129.353 290.903,129.467 290.467 C 129.581 290.031,130.031 289.581,130.467 289.467 C 130.903 289.353,131.353 288.903,131.467 288.467 C 131.581 288.031,132.031 287.581,132.467 287.467 C 132.903 287.353,133.347 286.924,133.454 286.514 C 133.562 286.104,134.043 285.596,134.525 285.384 C 135.853 284.801,135.853 279.199,134.525 278.616 C 134.043 278.404,133.562 277.896,133.454 277.486 C 133.347 277.076,132.903 276.647,132.467 276.533 C 132.031 276.419,131.581 275.969,131.467 275.533 C 131.353 275.097,130.903 274.647,130.467 274.533 C 130.031 274.419,129.581 273.969,129.467 273.533 C 129.353 273.097,128.903 272.647,128.467 272.533 C 128.031 272.419,127.581 271.969,127.467 271.533 C 127.353 271.097,126.903 270.647,126.467 270.533 C 126.031 270.419,125.581 269.969,125.467 269.533 C 125.353 269.097,124.924 268.653,124.514 268.546 C 124.104 268.438,123.596 267.957,123.384 267.475 C 122.924 266.428,117.813 265.947,116.896 266.864 M122.692 275.691 C 124.765 277.754,126.000 279.300,126.000 279.832 C 126.000 281.011,83.028 324.000,81.849 324.000 C 81.054 324.000,74.400 317.827,74.400 317.088 C 74.400 316.634,118.505 272.459,118.992 272.426 C 119.207 272.412,120.872 273.881,122.692 275.691 M280.896 276.864 C 280.623 277.137,280.400 277.573,280.400 277.833 C 280.400 278.094,280.027 278.404,279.570 278.524 C 279.114 278.643,278.647 279.097,278.533 279.533 C 278.419 279.969,277.969 280.419,277.533 280.533 C 277.097 280.647,276.647 281.097,276.533 281.533 C 276.419 281.969,275.969 282.419,275.533 282.533 C 275.097 282.647,274.647 283.097,274.533 283.533 C 274.419 283.969,273.969 284.419,273.533 284.533 C 273.097 284.647,272.647 285.097,272.533 285.533 C 272.419 285.969,271.969 286.419,271.533 286.533 C 271.097 286.647,270.653 287.076,270.546 287.486 C 270.438 287.896,269.957 288.404,269.475 288.616 C 268.179 289.185,268.183 292.817,269.481 293.387 C 270.144 293.678,270.392 294.174,270.481 295.387 C 270.570 296.596,270.819 297.096,271.475 297.384 C 271.957 297.596,272.438 298.104,272.546 298.514 C 272.653 298.924,273.097 299.353,273.533 299.467 C 273.969 299.581,274.419 300.031,274.533 300.467 C 274.647 300.903,275.097 301.353,275.533 301.467 C 275.969 301.581,276.419 302.031,276.533 302.467 C 276.647 302.903,277.097 303.353,277.533 303.467 C 277.969 303.581,278.419 304.031,278.533 304.467 C 278.647 304.903,279.097 305.353,279.533 305.467 C 279.969 305.581,280.419 306.031,280.533 306.467 C 280.647 306.903,281.097 307.353,281.533 307.467 C 281.969 307.581,282.419 308.031,282.533 308.467 C 282.647 308.903,283.097 309.353,283.533 309.467 C 283.969 309.581,284.419 310.031,284.533 310.467 C 284.647 310.903,285.097 311.353,285.533 311.467 C 285.969 311.581,286.419 312.031,286.533 312.467 C 286.647 312.903,287.097 313.353,287.533 313.467 C 287.969 313.581,288.419 314.031,288.533 314.467 C 288.647 314.903,289.097 315.353,289.533 315.467 C 289.969 315.581,290.419 316.031,290.533 316.467 C 290.647 316.903,291.097 317.353,291.533 317.467 C 291.969 317.581,292.419 318.031,292.533 318.467 C 292.647 318.903,293.097 319.353,293.533 319.467 C 293.969 319.581,294.419 320.031,294.533 320.467 C 294.647 320.903,295.097 321.353,295.533 321.467 C 295.969 321.581,296.419 322.031,296.533 322.467 C 296.647 322.903,297.097 323.353,297.533 323.467 C 297.969 323.581,298.419 324.031,298.533 324.467 C 298.647 324.903,299.097 325.353,299.533 325.467 C 299.969 325.581,300.419 326.031,300.533 326.467 C 300.647 326.903,301.097 327.353,301.533 327.467 C 301.969 327.581,302.419 328.031,302.533 328.467 C 302.647 328.903,303.097 329.353,303.533 329.467 C 303.969 329.581,304.419 330.031,304.533 330.467 C 304.647 330.903,305.097 331.353,305.533 331.467 C 305.969 331.581,306.419 332.031,306.533 332.467 C 306.647 332.903,307.097 333.353,307.533 333.467 C 307.969 333.581,308.419 334.031,308.533 334.467 C 308.647 334.903,309.097 335.353,309.533 335.467 C 309.969 335.581,310.419 336.031,310.533 336.467 C 310.647 336.903,311.097 337.353,311.533 337.467 C 311.969 337.581,312.419 338.031,312.533 338.467 C 312.647 338.903,313.097 339.353,313.533 339.467 C 313.969 339.581,314.419 340.031,314.533 340.467 C 314.647 340.903,315.076 341.347,315.486 341.454 C 315.896 341.562,316.404 342.043,316.616 342.525 C 317.199 343.853,322.801 343.853,323.384 342.525 C 323.596 342.043,324.104 341.562,324.514 341.454 C 324.924 341.347,325.353 340.903,325.467 340.467 C 325.581 340.031,326.031 339.581,326.467 339.467 C 326.903 339.353,327.347 338.924,327.454 338.514 C 327.562 338.104,328.043 337.596,328.525 337.384 C 329.187 337.093,329.429 336.596,329.521 335.341 C 329.614 334.071,329.831 333.633,330.451 333.471 C 330.895 333.355,331.353 332.903,331.467 332.467 C 331.581 332.031,332.031 331.581,332.467 331.467 C 332.903 331.353,333.347 330.924,333.454 330.514 C 333.562 330.104,334.043 329.596,334.525 329.384 C 335.257 329.063,335.400 328.674,335.400 327.000 C 335.400 325.326,335.257 324.937,334.525 324.616 C 334.043 324.404,333.562 323.896,333.454 323.486 C 333.347 323.076,332.903 322.647,332.467 322.533 C 332.031 322.419,331.581 321.969,331.467 321.533 C 331.353 321.097,330.903 320.647,330.467 320.533 C 330.031 320.419,329.581 319.969,329.467 319.533 C 329.353 319.097,328.903 318.647,328.467 318.533 C 328.031 318.419,327.581 317.969,327.467 317.533 C 327.353 317.097,326.903 316.647,326.467 316.533 C 326.031 316.419,325.581 315.969,325.467 315.533 C 325.353 315.097,324.903 314.647,324.467 314.533 C 324.031 314.419,323.581 313.969,323.467 313.533 C 323.353 313.097,322.903 312.647,322.467 312.533 C 322.031 312.419,321.581 311.969,321.467 311.533 C 321.353 311.097,320.903 310.647,320.467 310.533 C 320.031 310.419,319.581 309.969,319.467 309.533 C 319.353 309.097,318.903 308.647,318.467 308.533 C 318.031 308.419,317.581 307.969,317.467 307.533 C 317.353 307.097,316.903 306.647,316.467 306.533 C 316.031 306.419,315.581 305.969,315.467 305.533 C 315.353 305.097,314.903 304.647,314.467 304.533 C 314.031 304.419,313.581 303.969,313.467 303.533 C 313.353 303.097,312.903 302.647,312.467 302.533 C 312.031 302.419,311.581 301.969,311.467 301.533 C 311.353 301.097,310.903 300.647,310.467 300.533 C 310.031 300.419,309.581 299.969,309.467 299.533 C 309.353 299.097,308.903 298.647,308.467 298.533 C 308.031 298.419,307.581 297.969,307.467 297.533 C 307.353 297.097,306.903 296.647,306.467 296.533 C 306.031 296.419,305.581 295.969,305.467 295.533 C 305.353 295.097,304.903 294.647,304.467 294.533 C 304.031 294.419,303.581 293.969,303.467 293.533 C 303.353 293.097,302.903 292.647,302.467 292.533 C 302.031 292.419,301.581 291.969,301.467 291.533 C 301.353 291.097,300.903 290.647,300.467 290.533 C 300.031 290.419,299.581 289.969,299.467 289.533 C 299.353 289.097,298.903 288.647,298.467 288.533 C 298.031 288.419,297.581 287.969,297.467 287.533 C 297.353 287.097,296.903 286.647,296.467 286.533 C 296.031 286.419,295.581 285.969,295.467 285.533 C 295.353 285.097,294.903 284.647,294.467 284.533 C 294.031 284.419,293.581 283.969,293.467 283.533 C 293.353 283.097,292.903 282.647,292.467 282.533 C 292.031 282.419,291.581 281.969,291.467 281.533 C 291.353 281.097,290.903 280.647,290.467 280.533 C 290.031 280.419,289.581 279.969,289.467 279.533 C 289.353 279.097,288.924 278.653,288.514 278.546 C 288.104 278.438,287.596 277.957,287.384 277.475 C 286.924 276.428,281.813 275.947,280.896 276.864 M304.499 303.499 C 319.368 318.366,326.000 325.259,326.000 325.845 C 326.000 326.877,319.017 334.000,318.005 334.000 C 317.049 334.000,274.000 290.887,274.000 289.930 C 274.000 288.823,280.958 282.000,282.088 282.000 C 282.756 282.000,288.707 287.709,304.499 303.499 M186.880 294.880 C 186.184 295.576,186.184 372.424,186.880 373.120 C 187.568 373.808,214.432 373.808,215.120 373.120 C 215.816 372.424,215.816 295.576,215.120 294.880 C 214.765 294.525,211.076 294.400,201.000 294.400 C 190.924 294.400,187.235 294.525,186.880 294.880 M206.967 300.243 C 207.835 300.576,207.761 301.307,206.800 301.907 C 206.011 302.400,206.000 302.840,206.000 332.575 C 206.000 368.069,206.832 364.000,199.575 364.000 C 194.840 364.000,194.365 364.067,193.907 364.800 C 193.307 365.761,192.576 365.835,192.243 364.967 C 191.614 363.328,191.986 301.271,192.629 300.629 C 193.273 299.984,205.439 299.656,206.967 300.243 " stroke="none" fill="#242424" fill-rule="evenodd"></path><path id="path1" d="M190.629 34.629 C 189.860 35.397,189.653 93.804,190.414 95.226 C 190.986 96.295,204.318 96.425,205.371 95.371 C 206.455 94.288,206.314 34.996,205.226 34.414 C 203.880 33.693,191.380 33.877,190.629 34.629 M70.300 76.820 C 67.935 79.228,66.000 81.532,66.000 81.940 C 66.000 82.885,109.056 126.000,110.000 126.000 C 110.568 126.000,119.600 117.468,119.600 116.932 C 119.600 116.596,75.237 72.400,74.921 72.421 C 74.744 72.433,72.665 74.413,70.300 76.820 M294.581 96.581 C 269.564 121.599,270.768 120.102,273.559 122.731 C 276.949 125.926,278.799 127.600,278.938 127.600 C 279.097 127.600,325.600 81.144,325.600 80.985 C 325.600 80.464,318.495 74.000,317.922 74.000 C 317.452 74.000,308.562 82.601,294.581 96.581 M186.000 119.000 C 185.118 119.939,184.814 120.000,181.000 120.000 C 177.186 120.000,176.882 120.061,176.000 121.000 C 175.234 121.816,174.681 122.000,173.000 122.000 C 171.319 122.000,170.766 122.184,170.000 123.000 C 169.456 123.579,168.614 124.000,168.000 124.000 C 167.386 124.000,166.544 124.421,166.000 125.000 C 165.456 125.579,164.614 126.000,164.000 126.000 C 163.386 126.000,162.544 126.421,162.000 127.000 C 161.456 127.579,160.614 128.000,160.000 128.000 C 159.386 128.000,158.544 128.421,158.000 129.000 C 157.463 129.572,156.613 130.000,156.015 130.000 C 155.290 130.000,154.366 130.613,153.000 132.000 C 151.659 133.361,150.705 134.000,150.011 134.000 C 148.539 134.000,134.000 148.546,134.000 150.019 C 134.000 150.703,133.353 151.667,132.000 153.000 C 130.613 154.366,130.000 155.290,130.000 156.015 C 130.000 156.613,129.572 157.463,129.000 158.000 C 128.421 158.544,128.000 159.386,128.000 160.000 C 128.000 160.614,127.579 161.456,127.000 162.000 C 126.421 162.544,126.000 163.386,126.000 164.000 C 126.000 164.614,125.579 165.456,125.000 166.000 C 124.421 166.544,124.000 167.386,124.000 168.000 C 124.000 168.614,123.579 169.456,123.000 170.000 C 122.184 170.766,122.000 171.319,122.000 173.000 C 122.000 174.681,121.816 175.234,121.000 176.000 C 120.102 176.843,120.000 177.253,120.000 180.000 C 120.000 182.747,119.898 183.157,119.000 184.000 L 118.000 184.939 118.000 196.000 L 118.000 207.061 119.000 208.000 C 119.939 208.882,120.000 209.186,120.000 213.000 C 120.000 216.814,120.061 217.118,121.000 218.000 C 121.816 218.766,122.000 219.319,122.000 221.000 C 122.000 222.681,122.184 223.234,123.000 224.000 C 123.814 224.765,124.000 225.320,124.000 226.985 C 124.000 228.910,124.118 229.146,126.000 231.000 C 127.387 232.366,128.000 233.290,128.000 234.015 C 128.000 234.613,128.428 235.463,129.000 236.000 C 129.572 236.537,130.000 237.387,130.000 237.985 C 130.000 238.710,130.613 239.634,132.000 241.000 C 133.361 242.341,134.000 243.295,134.000 243.989 C 134.000 245.461,148.546 260.000,150.019 260.000 C 150.703 260.000,151.667 260.647,153.000 262.000 C 154.366 263.387,155.290 264.000,156.015 264.000 C 156.613 264.000,157.463 264.428,158.000 265.000 C 158.537 265.572,159.387 266.000,159.985 266.000 C 160.710 266.000,161.634 266.613,163.000 268.000 C 164.854 269.882,165.090 270.000,167.015 270.000 C 168.680 270.000,169.235 270.186,170.000 271.000 C 170.766 271.816,171.319 272.000,173.000 272.000 C 174.681 272.000,175.234 272.184,176.000 273.000 C 176.843 273.898,177.253 274.000,180.000 274.000 C 182.747 274.000,183.157 274.102,184.000 275.000 L 184.939 276.000 197.000 276.000 L 209.061 276.000 210.000 275.000 C 210.843 274.102,211.253 274.000,214.000 274.000 C 216.747 274.000,217.157 273.898,218.000 273.000 C 218.766 272.184,219.319 272.000,221.000 272.000 C 222.681 272.000,223.234 271.816,224.000 271.000 C 224.766 270.184,225.319 270.000,227.000 270.000 C 228.681 270.000,229.234 269.816,230.000 269.000 C 230.537 268.428,231.387 268.000,231.985 268.000 C 232.710 268.000,233.634 267.387,235.000 266.000 C 236.366 264.613,237.290 264.000,238.015 264.000 C 238.613 264.000,239.463 263.572,240.000 263.000 C 240.532 262.434,241.388 262.000,241.973 262.000 C 243.478 262.000,262.000 243.472,262.000 241.967 C 262.000 241.388,262.437 240.529,263.000 240.000 C 263.572 239.463,264.000 238.613,264.000 238.015 C 264.000 237.290,264.613 236.366,266.000 235.000 C 267.387 233.634,268.000 232.710,268.000 231.985 C 268.000 231.387,268.428 230.537,269.000 230.000 C 269.816 229.234,270.000 228.681,270.000 227.000 C 270.000 225.319,270.184 224.766,271.000 224.000 C 271.816 223.234,272.000 222.681,272.000 221.000 C 272.000 219.319,272.184 218.766,273.000 218.000 C 273.898 217.157,274.000 216.747,274.000 214.000 C 274.000 211.253,274.102 210.843,275.000 210.000 L 276.000 209.061 276.000 197.000 L 276.000 184.939 275.000 184.000 C 274.102 183.157,274.000 182.747,274.000 180.000 C 274.000 177.253,273.898 176.843,273.000 176.000 C 272.184 175.234,272.000 174.681,272.000 173.000 C 272.000 171.319,271.816 170.766,271.000 170.000 C 270.186 169.235,270.000 168.680,270.000 167.015 C 270.000 165.090,269.882 164.854,268.000 163.000 C 266.613 161.634,266.000 160.710,266.000 159.985 C 266.000 159.387,265.572 158.537,265.000 158.000 C 264.428 157.463,264.000 156.613,264.000 156.015 C 264.000 155.290,263.387 154.366,262.000 153.000 C 260.639 151.659,260.000 150.705,260.000 150.011 C 260.000 148.539,245.454 134.000,243.981 134.000 C 243.297 134.000,242.333 133.353,241.000 132.000 C 239.634 130.613,238.710 130.000,237.985 130.000 C 237.387 130.000,236.537 129.572,236.000 129.000 C 235.463 128.428,234.613 128.000,234.015 128.000 C 233.290 128.000,232.366 127.387,231.000 126.000 C 229.146 124.118,228.910 124.000,226.985 124.000 C 225.320 124.000,224.765 123.814,224.000 123.000 C 223.234 122.184,222.681 122.000,221.000 122.000 C 219.319 122.000,218.766 121.816,218.000 121.000 C 217.157 120.102,216.747 120.000,214.000 120.000 C 211.253 120.000,210.843 119.898,210.000 119.000 L 209.061 118.000 198.000 118.000 L 186.939 118.000 186.000 119.000 M191.718 130.400 C 191.673 131.610,191.653 132.870,191.673 133.200 C 192.018 138.864,191.904 265.033,191.553 265.456 C 190.747 266.428,187.292 266.148,185.927 265.000 C 184.829 264.076,184.428 264.000,180.641 264.000 C 176.770 264.000,176.496 263.945,175.675 263.000 C 174.951 262.167,174.449 262.000,172.675 262.000 C 170.901 262.000,170.399 261.833,169.675 261.000 C 169.146 260.392,168.373 259.997,167.703 259.992 C 166.841 259.986,165.738 259.112,162.656 255.992 C 159.855 253.157,158.437 252.000,157.760 252.000 C 157.059 252.000,155.001 250.186,149.966 245.131 C 144.179 239.320,142.900 238.225,141.662 238.026 L 140.200 237.790 140.000 235.328 C 139.767 232.463,139.692 232.354,137.710 232.032 C 136.346 231.810,136.190 231.653,135.965 230.274 C 135.821 229.382,135.366 228.511,134.860 228.157 C 134.310 227.772,134.000 227.128,134.000 226.375 C 134.000 225.615,133.644 224.885,133.000 224.325 C 132.374 223.781,132.000 223.033,132.000 222.325 C 132.000 221.618,131.626 220.869,131.000 220.325 C 130.093 219.536,130.000 219.166,130.000 216.325 C 130.000 213.485,129.907 213.114,129.000 212.325 L 128.000 211.456 128.000 201.000 L 128.000 190.544 129.000 189.675 C 129.907 188.886,130.000 188.515,130.000 185.675 C 130.000 182.834,130.093 182.464,131.000 181.675 C 131.833 180.951,132.000 180.449,132.000 178.675 C 132.000 176.901,132.167 176.399,133.000 175.675 C 133.626 175.131,134.000 174.382,134.000 173.675 C 134.000 172.967,134.374 172.219,135.000 171.675 C 135.620 171.135,136.000 170.381,136.000 169.689 C 136.000 168.851,136.501 168.128,138.000 166.800 C 139.569 165.410,140.000 164.767,140.002 163.814 C 140.004 162.883,140.470 162.151,142.002 160.672 C 143.101 159.612,144.000 158.583,144.000 158.386 C 144.000 156.184,156.140 144.000,158.335 144.000 C 158.503 144.000,159.622 143.103,160.821 142.006 C 162.073 140.860,163.384 140.010,163.903 140.006 C 164.399 140.003,165.197 139.550,165.675 139.000 C 166.274 138.311,166.955 138.000,167.863 138.000 C 168.828 138.000,169.357 137.732,169.837 137.000 C 170.286 136.315,170.856 136.000,171.649 136.000 C 172.384 136.000,173.122 135.636,173.675 135.000 C 174.219 134.374,174.967 134.000,175.675 134.000 C 176.382 134.000,177.131 133.626,177.675 133.000 C 178.219 132.374,178.967 132.000,179.675 132.000 C 180.382 132.000,181.131 131.626,181.675 131.000 C 182.219 130.374,182.967 130.000,183.675 130.000 C 184.387 130.000,185.132 129.624,185.689 128.984 C 186.492 128.061,186.812 127.978,189.186 128.084 L 191.800 128.200 191.718 130.400 M219.263 133.730 C 220.507 133.993,221.865 134.516,222.279 134.891 C 222.695 135.267,224.066 135.695,225.334 135.844 C 226.976 136.037,227.795 136.344,228.197 136.917 C 228.512 137.367,229.427 137.828,230.279 137.966 C 233.480 138.487,231.824 140.978,227.931 141.500 C 226.840 141.646,226.420 141.874,226.561 142.243 C 226.673 142.535,226.565 142.898,226.321 143.049 C 226.052 143.215,225.989 143.141,226.162 142.862 C 226.590 142.169,225.751 142.306,225.006 143.052 C 224.647 143.410,224.446 143.944,224.560 144.239 C 224.673 144.533,224.565 144.898,224.321 145.049 C 224.052 145.215,223.989 145.141,224.162 144.862 C 224.590 144.169,223.751 144.306,223.006 145.052 C 222.647 145.410,222.446 145.944,222.560 146.239 C 222.673 146.533,222.565 146.898,222.321 147.049 C 222.052 147.215,221.989 147.141,222.162 146.862 C 222.590 146.169,221.751 146.306,221.006 147.052 C 220.647 147.410,220.446 147.944,220.560 148.239 C 220.673 148.533,220.565 148.898,220.321 149.049 C 220.052 149.215,219.989 149.141,220.162 148.862 C 220.590 148.169,219.751 148.306,219.006 149.052 C 218.647 149.410,218.446 149.944,218.560 150.239 C 218.673 150.533,218.565 150.898,218.321 151.049 C 218.052 151.215,217.989 151.141,218.162 150.862 C 218.590 150.169,217.751 150.306,217.006 151.052 C 216.647 151.410,216.446 151.944,216.560 152.239 C 216.673 152.533,216.565 152.898,216.321 153.049 C 216.052 153.215,215.989 153.141,216.162 152.862 C 216.319 152.608,216.281 152.400,216.079 152.400 C 215.876 152.400,215.515 153.373,215.276 154.563 C 214.629 157.785,213.795 159.478,212.532 160.136 C 211.909 160.460,210.597 161.470,209.615 162.380 C 206.233 165.514,206.217 165.471,206.093 153.049 C 205.984 142.020,206.082 141.217,207.549 141.186 C 207.907 141.179,209.910 139.391,212.000 137.214 C 216.102 132.940,215.927 133.024,219.263 133.730 M246.043 149.766 C 246.249 151.044,246.827 151.836,249.175 154.057 C 252.693 157.385,252.985 158.852,250.200 159.200 C 249.051 159.344,248.599 159.589,248.595 160.072 C 248.592 160.441,248.428 160.891,248.231 161.072 C 248.026 161.259,247.995 161.186,248.159 160.900 C 248.609 160.119,247.802 160.314,247.023 161.175 C 246.637 161.601,246.432 162.128,246.567 162.347 C 246.702 162.566,246.602 162.875,246.345 163.034 C 246.052 163.215,245.984 163.150,246.162 162.862 C 246.630 162.105,245.780 162.338,245.023 163.175 C 244.637 163.601,244.432 164.128,244.567 164.347 C 244.702 164.566,244.602 164.875,244.345 165.034 C 244.052 165.215,243.984 165.150,244.162 164.862 C 244.630 164.105,243.780 164.338,243.023 165.175 C 242.637 165.601,242.432 166.128,242.567 166.347 C 242.702 166.566,242.602 166.875,242.345 167.034 C 242.052 167.215,241.984 167.150,242.162 166.862 C 242.630 166.105,241.780 166.338,241.023 167.175 C 240.637 167.601,240.432 168.128,240.567 168.347 C 240.702 168.566,240.602 168.875,240.345 169.034 C 240.052 169.215,239.984 169.150,240.162 168.862 C 240.630 168.105,239.780 168.338,239.023 169.175 C 238.637 169.601,238.432 170.128,238.567 170.347 C 238.702 170.566,238.602 170.875,238.345 171.034 C 238.052 171.215,237.984 171.150,238.162 170.862 C 238.630 170.105,237.780 170.338,237.023 171.175 C 236.637 171.601,236.432 172.128,236.567 172.347 C 236.702 172.566,236.602 172.875,236.345 173.034 C 236.052 173.215,235.984 173.150,236.162 172.862 C 236.630 172.105,235.780 172.338,235.023 173.175 C 234.637 173.601,234.432 174.128,234.567 174.347 C 234.702 174.566,234.602 174.875,234.345 175.034 C 234.052 175.215,233.984 175.150,234.162 174.862 C 234.630 174.105,233.780 174.338,233.023 175.175 C 232.637 175.601,232.432 176.128,232.567 176.347 C 232.702 176.566,232.602 176.875,232.345 177.034 C 232.052 177.215,231.984 177.150,232.162 176.862 C 232.630 176.105,231.780 176.338,231.023 177.175 C 230.637 177.601,230.432 178.128,230.567 178.347 C 230.702 178.566,230.602 178.875,230.345 179.034 C 230.052 179.215,229.984 179.150,230.162 178.862 C 230.635 178.097,229.776 178.343,229.007 179.192 C 228.387 179.877,228.365 180.078,228.845 180.669 C 229.214 181.125,229.233 181.253,228.900 181.053 C 228.565 180.852,228.400 181.024,228.400 181.576 C 228.400 182.029,228.233 182.400,228.029 182.400 C 227.374 182.400,226.347 183.685,226.560 184.239 C 226.673 184.533,226.565 184.898,226.321 185.049 C 226.052 185.215,225.989 185.141,226.162 184.862 C 226.590 184.169,225.751 184.306,225.006 185.052 C 224.647 185.410,224.446 185.944,224.560 186.239 C 224.673 186.533,224.565 186.898,224.321 187.049 C 224.052 187.215,223.989 187.141,224.162 186.862 C 224.590 186.169,223.751 186.306,223.006 187.052 C 222.647 187.410,222.446 187.944,222.560 188.239 C 222.673 188.533,222.565 188.898,222.321 189.049 C 222.052 189.215,221.989 189.141,222.162 188.862 C 222.590 188.169,221.751 188.306,221.006 189.052 C 220.647 189.410,220.446 189.944,220.560 190.239 C 220.673 190.533,220.565 190.898,220.321 191.049 C 220.052 191.215,219.989 191.141,220.162 190.862 C 220.590 190.169,219.751 190.306,219.006 191.052 C 218.647 191.410,218.446 191.944,218.560 192.239 C 218.673 192.533,218.565 192.898,218.321 193.049 C 218.052 193.215,217.989 193.141,218.162 192.862 C 218.319 192.608,218.294 192.400,218.107 192.400 C 217.920 192.400,217.466 193.681,217.099 195.247 C 216.224 198.975,215.634 199.792,213.242 200.586 C 211.595 201.133,211.209 201.447,210.997 202.413 C 210.698 203.773,207.955 206.127,206.904 205.925 C 206.257 205.800,206.191 204.949,206.093 195.316 L 205.987 184.843 224.293 166.447 L 242.600 148.050 244.195 148.125 C 245.724 148.197,245.801 148.266,246.043 149.766 M261.865 172.626 C 261.997 172.970,261.913 173.673,261.677 174.190 C 261.344 174.921,261.421 175.579,262.025 177.169 C 262.988 179.705,263.167 187.200,262.264 187.200 C 261.970 187.200,261.530 187.634,261.289 188.165 C 261.047 188.696,260.478 189.248,260.024 189.392 C 259.571 189.536,259.200 189.905,259.200 190.213 C 259.200 190.678,257.623 191.886,257.300 191.668 C 256.861 191.371,256.358 191.714,256.540 192.187 C 256.664 192.510,256.565 192.898,256.321 193.049 C 256.052 193.215,255.989 193.141,256.162 192.862 C 256.630 192.105,255.780 192.338,255.023 193.175 C 254.637 193.601,254.432 194.128,254.567 194.347 C 254.702 194.566,254.602 194.875,254.345 195.034 C 254.052 195.215,253.984 195.150,254.162 194.862 C 254.630 194.105,253.780 194.338,253.023 195.175 C 252.637 195.601,252.432 196.128,252.567 196.347 C 252.702 196.566,252.602 196.875,252.345 197.034 C 252.052 197.215,251.984 197.150,252.162 196.862 C 252.630 196.105,251.780 196.338,251.023 197.175 C 250.637 197.601,250.432 198.128,250.567 198.347 C 250.702 198.566,250.602 198.875,250.345 199.034 C 250.052 199.215,249.984 199.150,250.162 198.862 C 250.630 198.105,249.780 198.338,249.023 199.175 C 248.637 199.601,248.432 200.128,248.567 200.347 C 248.702 200.566,248.602 200.875,248.345 201.034 C 248.052 201.215,247.984 201.150,248.162 200.862 C 248.630 200.105,247.780 200.338,247.023 201.175 C 246.637 201.601,246.432 202.128,246.567 202.347 C 246.702 202.566,246.602 202.875,246.345 203.034 C 246.052 203.215,245.984 203.150,246.162 202.862 C 246.630 202.105,245.780 202.338,245.023 203.175 C 244.637 203.601,244.432 204.128,244.567 204.347 C 244.702 204.566,244.602 204.875,244.345 205.034 C 244.052 205.215,243.984 205.150,244.162 204.862 C 244.630 204.105,243.780 204.338,243.023 205.175 C 242.637 205.601,242.432 206.128,242.567 206.347 C 242.702 206.566,242.602 206.875,242.345 207.034 C 242.052 207.215,241.984 207.150,242.162 206.862 C 242.630 206.105,241.780 206.338,241.023 207.175 C 240.637 207.601,240.432 208.128,240.567 208.347 C 240.702 208.566,240.602 208.875,240.345 209.034 C 240.052 209.215,239.984 209.150,240.162 208.862 C 240.630 208.105,239.780 208.338,239.023 209.175 C 238.637 209.601,238.432 210.128,238.567 210.347 C 238.702 210.566,238.602 210.875,238.345 211.034 C 238.052 211.215,237.984 211.150,238.162 210.862 C 238.630 210.105,237.780 210.338,237.023 211.175 C 236.637 211.601,236.432 212.128,236.567 212.347 C 236.702 212.566,236.602 212.875,236.345 213.034 C 236.052 213.215,235.984 213.150,236.162 212.862 C 236.630 212.105,235.780 212.338,235.023 213.175 C 234.637 213.601,234.432 214.128,234.567 214.347 C 234.702 214.566,234.602 214.875,234.345 215.034 C 234.052 215.215,233.984 215.150,234.162 214.862 C 234.590 214.169,233.751 214.306,233.006 215.052 C 232.647 215.410,232.446 215.944,232.560 216.239 C 232.673 216.533,232.565 216.898,232.321 217.049 C 232.052 217.215,231.989 217.141,232.162 216.862 C 232.590 216.169,231.751 216.306,231.006 217.052 C 230.647 217.410,230.446 217.944,230.560 218.239 C 230.673 218.533,230.565 218.898,230.321 219.049 C 230.052 219.215,229.989 219.141,230.162 218.862 C 230.590 218.169,229.751 218.306,229.006 219.052 C 228.647 219.410,228.446 219.944,228.560 220.239 C 228.673 220.533,228.565 220.898,228.321 221.049 C 228.052 221.215,227.989 221.141,228.162 220.862 C 228.590 220.169,227.751 220.306,227.006 221.052 C 226.647 221.410,226.446 221.944,226.560 222.239 C 226.673 222.533,226.565 222.898,226.321 223.049 C 226.052 223.215,225.989 223.141,226.162 222.862 C 226.590 222.169,225.751 222.306,225.006 223.052 C 224.647 223.410,224.446 223.944,224.560 224.239 C 224.673 224.533,224.565 224.898,224.321 225.049 C 224.052 225.215,223.989 225.141,224.162 224.862 C 224.590 224.169,223.751 224.306,223.006 225.052 C 222.647 225.410,222.446 225.944,222.560 226.239 C 222.673 226.533,222.565 226.898,222.321 227.049 C 222.052 227.215,221.989 227.141,222.162 226.862 C 222.590 226.169,221.751 226.306,221.006 227.052 C 220.647 227.410,220.446 227.944,220.560 228.239 C 220.673 228.533,220.565 228.898,220.321 229.049 C 220.052 229.215,219.989 229.141,220.162 228.862 C 220.590 228.169,219.751 228.306,219.006 229.052 C 218.647 229.410,218.446 229.944,218.560 230.239 C 218.673 230.533,218.565 230.898,218.321 231.049 C 218.052 231.215,217.989 231.141,218.162 230.862 C 218.319 230.608,218.252 230.400,218.014 230.400 C 217.775 230.400,217.473 230.933,217.343 231.585 C 217.213 232.236,216.702 233.034,216.209 233.358 C 215.643 233.728,215.219 234.519,215.063 235.496 C 214.804 237.114,213.616 238.522,212.128 238.972 C 211.590 239.135,211.157 239.686,210.998 240.408 C 210.698 241.773,207.958 244.127,206.904 243.925 C 206.259 243.801,206.191 242.990,206.093 234.243 L 205.985 224.697 232.293 198.367 C 257.709 172.929,258.651 172.037,260.113 172.019 C 261.128 172.006,261.704 172.206,261.865 172.626 M34.629 192.629 C 33.881 193.376,33.702 203.896,34.414 205.226 C 34.996 206.314,96.287 206.455,97.371 205.371 C 98.418 204.325,98.291 192.984,97.226 192.414 C 95.803 191.653,35.398 191.860,34.629 192.629 M302.629 192.629 C 301.703 193.554,301.703 204.446,302.629 205.371 C 303.586 206.329,362.414 206.329,363.371 205.371 C 363.878 204.865,364.000 203.740,364.000 199.575 C 364.000 194.840,364.067 194.365,364.800 193.907 C 365.761 193.307,365.835 192.576,364.967 192.243 C 363.329 191.614,303.271 191.986,302.629 192.629 M265.872 210.645 C 266.009 210.999,265.823 211.792,265.460 212.406 C 264.975 213.226,264.800 214.502,264.800 217.204 C 264.800 220.546,264.708 220.994,263.800 222.073 C 263.250 222.727,262.800 223.496,262.800 223.782 C 262.800 224.068,262.534 224.523,262.208 224.793 C 261.261 225.579,260.400 227.612,260.400 229.061 C 260.400 229.970,260.212 230.400,259.814 230.400 C 259.039 230.400,258.400 231.653,258.400 233.174 C 258.400 233.984,258.201 234.400,257.814 234.400 C 257.039 234.400,256.400 235.653,256.400 237.174 C 256.400 238.005,256.204 238.400,255.791 238.400 C 255.457 238.400,254.978 238.850,254.727 239.400 C 254.477 239.950,254.027 240.400,253.727 240.400 C 253.428 240.400,252.978 240.850,252.727 241.400 C 252.477 241.950,252.027 242.400,251.727 242.400 C 251.428 242.400,250.978 242.850,250.727 243.400 C 250.377 244.170,249.971 244.400,248.964 244.400 C 247.735 244.400,246.400 245.234,246.400 246.002 C 246.400 246.191,246.049 246.457,245.620 246.594 C 245.192 246.730,244.733 247.183,244.600 247.600 C 244.467 248.017,244.017 248.467,243.600 248.600 C 243.183 248.733,242.730 249.192,242.594 249.620 C 242.413 250.189,241.983 250.400,241.002 250.400 C 239.741 250.400,238.400 251.226,238.400 252.002 C 238.400 252.191,238.049 252.457,237.620 252.594 C 237.192 252.730,236.730 253.192,236.594 253.620 C 236.413 254.189,235.983 254.400,235.002 254.400 C 234.045 254.400,233.432 254.688,232.871 255.400 C 232.439 255.950,231.875 256.400,231.619 256.400 C 231.363 256.400,231.264 256.580,231.400 256.800 C 231.538 257.024,231.228 257.200,230.695 257.200 C 230.112 257.200,229.016 257.897,227.865 259.000 C 226.831 259.990,225.820 260.800,225.617 260.800 C 225.415 260.800,224.417 261.520,223.400 262.400 C 222.099 263.526,221.173 264.005,220.276 264.018 C 218.199 264.046,215.302 264.965,214.291 265.915 C 212.340 267.748,210.000 266.882,210.000 264.326 C 210.000 261.985,261.723 210.091,264.113 210.035 C 265.158 210.011,265.702 210.199,265.872 210.645 M96.500 294.606 C 84.345 306.790,74.400 316.907,74.400 317.088 C 74.400 317.827,81.054 324.000,81.849 324.000 C 83.028 324.000,126.000 281.011,126.000 279.832 C 126.000 278.966,119.763 272.374,118.992 272.426 C 118.776 272.441,108.655 282.422,96.500 294.606 M277.589 285.589 C 275.615 287.563,274.000 289.517,274.000 289.930 C 274.000 290.887,317.049 334.000,318.005 334.000 C 319.017 334.000,326.000 326.877,326.000 325.845 C 326.000 324.600,283.334 282.000,282.088 282.000 C 281.476 282.000,280.003 283.175,277.589 285.589 M192.629 300.629 C 191.986 301.271,191.614 363.328,192.243 364.967 C 192.576 365.835,193.307 365.761,193.907 364.800 C 194.365 364.067,194.840 364.000,199.575 364.000 C 206.832 364.000,206.000 368.069,206.000 332.575 C 206.000 302.840,206.011 302.400,206.800 301.907 C 207.761 301.307,207.835 300.576,206.967 300.243 C 205.439 299.656,193.273 299.984,192.629 300.629 " stroke="none" fill="#c1cbdd" fill-rule="evenodd"></path></g></svg>